G04 EAGLE Gerber RS-274X export*
G75*
%MOMM*%
%FSLAX34Y34*%
%LPD*%
%INBottom Copper*%
%IPPOS*%
%AMOC8*
5,1,8,0,0,1.08239X$1,22.5*%
G01*
%ADD10R,1.524000X1.524000*%
%ADD11P,1.649562X8X202.500000*%
%ADD12C,1.508000*%
%ADD13C,1.524000*%
%ADD14C,1.651000*%
%ADD15C,0.112500*%
%ADD16R,3.400000X5.000000*%
%ADD17C,0.708000*%
%ADD18R,1.508000X1.508000*%
%ADD19C,1.508000*%
%ADD20C,5.000000*%
%ADD21P,1.787026X8X202.500000*%
%ADD22R,1.651000X1.651000*%
%ADD23C,2.100000*%
%ADD24C,0.381000*%
%ADD25C,0.756400*%
%ADD26C,0.508000*%
%ADD27C,0.711200*%
%ADD28C,0.254000*%

G36*
X1004688Y10176D02*
X1004688Y10176D01*
X1004807Y10183D01*
X1004845Y10196D01*
X1004886Y10201D01*
X1004996Y10244D01*
X1005109Y10281D01*
X1005144Y10303D01*
X1005181Y10318D01*
X1005277Y10387D01*
X1005378Y10451D01*
X1005406Y10481D01*
X1005439Y10504D01*
X1005515Y10596D01*
X1005596Y10683D01*
X1005616Y10718D01*
X1005641Y10749D01*
X1005692Y10857D01*
X1005750Y10961D01*
X1005760Y11001D01*
X1005777Y11037D01*
X1005799Y11154D01*
X1005829Y11269D01*
X1005833Y11329D01*
X1005837Y11349D01*
X1005835Y11370D01*
X1005839Y11430D01*
X1005839Y801370D01*
X1005824Y801488D01*
X1005817Y801607D01*
X1005804Y801645D01*
X1005799Y801686D01*
X1005756Y801796D01*
X1005719Y801909D01*
X1005697Y801944D01*
X1005682Y801981D01*
X1005613Y802077D01*
X1005549Y802178D01*
X1005519Y802206D01*
X1005496Y802239D01*
X1005404Y802315D01*
X1005317Y802396D01*
X1005282Y802416D01*
X1005251Y802441D01*
X1005143Y802492D01*
X1005039Y802550D01*
X1004999Y802560D01*
X1004963Y802577D01*
X1004846Y802599D01*
X1004731Y802629D01*
X1004671Y802633D01*
X1004651Y802637D01*
X1004630Y802635D01*
X1004570Y802639D01*
X11430Y802639D01*
X11312Y802624D01*
X11193Y802617D01*
X11155Y802604D01*
X11114Y802599D01*
X11004Y802556D01*
X10891Y802519D01*
X10856Y802497D01*
X10819Y802482D01*
X10723Y802413D01*
X10622Y802349D01*
X10594Y802319D01*
X10561Y802296D01*
X10485Y802204D01*
X10404Y802117D01*
X10384Y802082D01*
X10359Y802051D01*
X10308Y801943D01*
X10250Y801839D01*
X10240Y801799D01*
X10223Y801763D01*
X10201Y801646D01*
X10171Y801531D01*
X10167Y801471D01*
X10163Y801451D01*
X10165Y801430D01*
X10161Y801370D01*
X10161Y11430D01*
X10176Y11312D01*
X10183Y11193D01*
X10196Y11155D01*
X10201Y11114D01*
X10244Y11004D01*
X10281Y10891D01*
X10303Y10856D01*
X10318Y10819D01*
X10387Y10723D01*
X10451Y10622D01*
X10481Y10594D01*
X10504Y10561D01*
X10596Y10485D01*
X10683Y10404D01*
X10718Y10384D01*
X10749Y10359D01*
X10857Y10308D01*
X10961Y10250D01*
X11001Y10240D01*
X11037Y10223D01*
X11154Y10201D01*
X11269Y10171D01*
X11329Y10167D01*
X11349Y10163D01*
X11370Y10165D01*
X11430Y10161D01*
X1004570Y10161D01*
X1004688Y10176D01*
G37*
%LPC*%
G36*
X913344Y167413D02*
X913344Y167413D01*
X911394Y168221D01*
X909901Y169714D01*
X909093Y171664D01*
X909093Y173776D01*
X909901Y175726D01*
X909964Y175788D01*
X910024Y175867D01*
X910092Y175939D01*
X910121Y175992D01*
X910158Y176040D01*
X910198Y176131D01*
X910246Y176217D01*
X910261Y176276D01*
X910285Y176332D01*
X910300Y176429D01*
X910325Y176525D01*
X910331Y176625D01*
X910335Y176646D01*
X910333Y176658D01*
X910335Y176686D01*
X910335Y244171D01*
X910323Y244269D01*
X910320Y244368D01*
X910303Y244426D01*
X910295Y244486D01*
X910259Y244578D01*
X910231Y244673D01*
X910201Y244725D01*
X910178Y244782D01*
X910120Y244862D01*
X910070Y244947D01*
X910004Y245023D01*
X909992Y245039D01*
X909982Y245047D01*
X909964Y245068D01*
X762104Y392928D01*
X762026Y392988D01*
X761954Y393056D01*
X761901Y393085D01*
X761853Y393122D01*
X761762Y393162D01*
X761675Y393210D01*
X761617Y393225D01*
X761561Y393249D01*
X761463Y393264D01*
X761367Y393289D01*
X761267Y393295D01*
X761247Y393299D01*
X761235Y393297D01*
X761207Y393299D01*
X650156Y393299D01*
X650057Y393287D01*
X649958Y393284D01*
X649900Y393267D01*
X649840Y393259D01*
X649748Y393223D01*
X649653Y393195D01*
X649601Y393165D01*
X649544Y393142D01*
X649464Y393084D01*
X649379Y393034D01*
X649303Y392968D01*
X649287Y392956D01*
X649279Y392946D01*
X649258Y392928D01*
X627922Y371591D01*
X627837Y371482D01*
X627748Y371375D01*
X627739Y371356D01*
X627727Y371340D01*
X627672Y371212D01*
X627613Y371087D01*
X627609Y371067D01*
X627601Y371048D01*
X627579Y370910D01*
X627553Y370774D01*
X627554Y370754D01*
X627551Y370734D01*
X627564Y370595D01*
X627573Y370457D01*
X627579Y370438D01*
X627581Y370418D01*
X627628Y370286D01*
X627671Y370155D01*
X627681Y370137D01*
X627688Y370118D01*
X627766Y370003D01*
X627841Y369886D01*
X627856Y369872D01*
X627867Y369855D01*
X627971Y369763D01*
X628072Y369668D01*
X628090Y369658D01*
X628105Y369645D01*
X628229Y369581D01*
X628351Y369514D01*
X628370Y369509D01*
X628389Y369500D01*
X628524Y369470D01*
X628659Y369435D01*
X628687Y369433D01*
X628699Y369430D01*
X628719Y369431D01*
X628819Y369425D01*
X639202Y369425D01*
X639392Y369235D01*
X639491Y369158D01*
X639587Y369075D01*
X639617Y369060D01*
X639643Y369040D01*
X639758Y368990D01*
X639871Y368934D01*
X639904Y368927D01*
X639935Y368914D01*
X640059Y368894D01*
X640182Y368868D01*
X640216Y368869D01*
X640249Y368864D01*
X640375Y368875D01*
X640500Y368881D01*
X640532Y368890D01*
X640566Y368893D01*
X640684Y368936D01*
X640805Y368972D01*
X640833Y368990D01*
X640865Y369001D01*
X640969Y369072D01*
X641077Y369137D01*
X641100Y369161D01*
X641128Y369180D01*
X641211Y369274D01*
X641300Y369364D01*
X641327Y369404D01*
X641339Y369418D01*
X641348Y369437D01*
X641357Y369450D01*
X641840Y369933D01*
X642419Y370268D01*
X643066Y370441D01*
X657861Y370441D01*
X657861Y367230D01*
X657867Y367180D01*
X657865Y367131D01*
X657887Y367023D01*
X657901Y366914D01*
X657919Y366868D01*
X657929Y366819D01*
X657977Y366721D01*
X658018Y366619D01*
X658047Y366578D01*
X658069Y366534D01*
X658140Y366450D01*
X658205Y366361D01*
X658243Y366330D01*
X658275Y366292D01*
X658365Y366229D01*
X658449Y366158D01*
X658494Y366137D01*
X658535Y366109D01*
X658638Y366070D01*
X658737Y366023D01*
X658786Y366014D01*
X658833Y365996D01*
X658942Y365984D01*
X658955Y365981D01*
X658979Y365975D01*
X658992Y365974D01*
X659050Y365963D01*
X659099Y365966D01*
X659149Y365961D01*
X659177Y365965D01*
X661581Y365965D01*
X661589Y365963D01*
X661615Y365965D01*
X661660Y365965D01*
X661701Y365970D01*
X661807Y365968D01*
X661857Y365980D01*
X661907Y365983D01*
X661973Y366004D01*
X661975Y366005D01*
X661983Y366008D01*
X662010Y366016D01*
X662117Y366042D01*
X662161Y366065D01*
X662209Y366081D01*
X662302Y366139D01*
X662398Y366190D01*
X662435Y366224D01*
X662478Y366251D01*
X662553Y366331D01*
X662634Y366404D01*
X662661Y366446D01*
X662696Y366483D01*
X662749Y366578D01*
X662809Y366669D01*
X662825Y366717D01*
X662849Y366761D01*
X662877Y366867D01*
X662912Y366970D01*
X662916Y367020D01*
X662929Y367069D01*
X662939Y367230D01*
X662939Y370441D01*
X677734Y370441D01*
X678381Y370268D01*
X678960Y369933D01*
X679461Y369432D01*
X679487Y369397D01*
X679558Y369294D01*
X679583Y369271D01*
X679603Y369244D01*
X679702Y369166D01*
X679796Y369083D01*
X679826Y369068D01*
X679853Y369047D01*
X679967Y368996D01*
X680080Y368938D01*
X680112Y368931D01*
X680143Y368917D01*
X680267Y368896D01*
X680390Y368869D01*
X680424Y368870D01*
X680457Y368864D01*
X680582Y368875D01*
X680708Y368878D01*
X680740Y368888D01*
X680774Y368891D01*
X680893Y368932D01*
X681013Y368967D01*
X681042Y368984D01*
X681074Y368995D01*
X681179Y369065D01*
X681287Y369128D01*
X681324Y369161D01*
X681339Y369171D01*
X681354Y369187D01*
X681408Y369235D01*
X681598Y369425D01*
X688697Y369425D01*
X688795Y369437D01*
X688894Y369440D01*
X688952Y369457D01*
X689012Y369465D01*
X689104Y369501D01*
X689199Y369529D01*
X689252Y369559D01*
X689308Y369582D01*
X689388Y369640D01*
X689473Y369690D01*
X689549Y369756D01*
X689565Y369768D01*
X689573Y369778D01*
X689594Y369796D01*
X706132Y386335D01*
X723744Y386335D01*
X723842Y386347D01*
X723941Y386350D01*
X724000Y386367D01*
X724060Y386375D01*
X724152Y386411D01*
X724247Y386439D01*
X724299Y386469D01*
X724355Y386492D01*
X724435Y386550D01*
X724521Y386600D01*
X724596Y386666D01*
X724613Y386678D01*
X724620Y386688D01*
X724642Y386706D01*
X725974Y388039D01*
X727924Y388847D01*
X730036Y388847D01*
X731986Y388039D01*
X733162Y386862D01*
X733257Y386789D01*
X733346Y386711D01*
X733382Y386692D01*
X733414Y386667D01*
X733523Y386620D01*
X733629Y386566D01*
X733668Y386557D01*
X733706Y386541D01*
X733823Y386522D01*
X733939Y386496D01*
X733980Y386498D01*
X734020Y386491D01*
X734138Y386502D01*
X734257Y386506D01*
X734296Y386517D01*
X734336Y386521D01*
X734449Y386561D01*
X734563Y386594D01*
X734597Y386615D01*
X734636Y386629D01*
X734734Y386695D01*
X734837Y386756D01*
X734882Y386796D01*
X734899Y386807D01*
X734912Y386822D01*
X734957Y386862D01*
X736134Y388039D01*
X738084Y388847D01*
X740196Y388847D01*
X742146Y388039D01*
X743639Y386546D01*
X744447Y384596D01*
X744447Y382484D01*
X743639Y380534D01*
X742146Y379041D01*
X740196Y378233D01*
X738084Y378233D01*
X738049Y378248D01*
X738020Y378256D01*
X737994Y378269D01*
X737867Y378298D01*
X737742Y378332D01*
X737712Y378333D01*
X737683Y378339D01*
X737554Y378335D01*
X737424Y378337D01*
X737395Y378330D01*
X737366Y378329D01*
X737241Y378293D01*
X737115Y378263D01*
X737088Y378249D01*
X737060Y378241D01*
X736948Y378175D01*
X736833Y378114D01*
X736812Y378094D01*
X736786Y378079D01*
X736665Y377973D01*
X716503Y357811D01*
X699694Y357811D01*
X699576Y357796D01*
X699457Y357789D01*
X699419Y357776D01*
X699378Y357771D01*
X699268Y357728D01*
X699155Y357691D01*
X699120Y357669D01*
X699083Y357654D01*
X698987Y357585D01*
X698886Y357521D01*
X698858Y357491D01*
X698825Y357468D01*
X698749Y357376D01*
X698668Y357289D01*
X698648Y357254D01*
X698623Y357223D01*
X698572Y357115D01*
X698514Y357011D01*
X698504Y356971D01*
X698487Y356935D01*
X698465Y356818D01*
X698435Y356703D01*
X698431Y356643D01*
X698427Y356623D01*
X698429Y356602D01*
X698425Y356542D01*
X698425Y356536D01*
X698382Y356437D01*
X698328Y356331D01*
X698319Y356292D01*
X698303Y356254D01*
X698284Y356137D01*
X698258Y356021D01*
X698259Y355980D01*
X698253Y355940D01*
X698264Y355822D01*
X698268Y355703D01*
X698279Y355664D01*
X698283Y355624D01*
X698323Y355512D01*
X698356Y355397D01*
X698377Y355363D01*
X698390Y355324D01*
X698425Y355274D01*
X698425Y350663D01*
X698440Y350545D01*
X698447Y350426D01*
X698460Y350388D01*
X698465Y350347D01*
X698508Y350237D01*
X698545Y350124D01*
X698567Y350089D01*
X698582Y350052D01*
X698651Y349956D01*
X698715Y349855D01*
X698745Y349827D01*
X698768Y349794D01*
X698860Y349718D01*
X698947Y349637D01*
X698982Y349617D01*
X699013Y349592D01*
X699121Y349541D01*
X699225Y349483D01*
X699265Y349473D01*
X699301Y349456D01*
X699418Y349434D01*
X699533Y349404D01*
X699593Y349400D01*
X699613Y349396D01*
X699634Y349398D01*
X699694Y349394D01*
X712375Y349394D01*
X715067Y346701D01*
X715145Y346641D01*
X715217Y346573D01*
X715270Y346544D01*
X715318Y346507D01*
X715409Y346467D01*
X715496Y346419D01*
X715554Y346404D01*
X715610Y346380D01*
X715708Y346365D01*
X715804Y346340D01*
X715904Y346334D01*
X715924Y346330D01*
X715936Y346332D01*
X715964Y346330D01*
X719299Y346330D01*
X719397Y346342D01*
X719496Y346345D01*
X719555Y346362D01*
X719615Y346370D01*
X719707Y346406D01*
X719802Y346434D01*
X719854Y346464D01*
X719910Y346487D01*
X719990Y346545D01*
X720076Y346595D01*
X720151Y346661D01*
X720168Y346673D01*
X720176Y346683D01*
X720197Y346702D01*
X720894Y347399D01*
X722844Y348207D01*
X724956Y348207D01*
X726906Y347399D01*
X728399Y345906D01*
X729207Y343956D01*
X729207Y341844D01*
X728399Y339894D01*
X726906Y338401D01*
X724956Y337593D01*
X722844Y337593D01*
X720894Y338401D01*
X720197Y339098D01*
X720119Y339159D01*
X720046Y339227D01*
X719993Y339256D01*
X719945Y339293D01*
X719854Y339333D01*
X719768Y339381D01*
X719709Y339396D01*
X719654Y339420D01*
X719556Y339435D01*
X719460Y339460D01*
X719360Y339466D01*
X719339Y339470D01*
X719327Y339468D01*
X719299Y339470D01*
X712597Y339470D01*
X709905Y342163D01*
X709827Y342223D01*
X709755Y342291D01*
X709702Y342320D01*
X709654Y342357D01*
X709563Y342397D01*
X709476Y342445D01*
X709418Y342460D01*
X709362Y342484D01*
X709264Y342499D01*
X709168Y342524D01*
X709068Y342530D01*
X709048Y342534D01*
X709035Y342532D01*
X709007Y342534D01*
X700710Y342534D01*
X700592Y342519D01*
X700473Y342512D01*
X700435Y342499D01*
X700394Y342494D01*
X700284Y342451D01*
X700171Y342414D01*
X700136Y342392D01*
X700099Y342377D01*
X700003Y342308D01*
X699902Y342244D01*
X699874Y342214D01*
X699841Y342191D01*
X699765Y342099D01*
X699684Y342012D01*
X699664Y341977D01*
X699639Y341946D01*
X699588Y341838D01*
X699530Y341734D01*
X699520Y341694D01*
X699503Y341658D01*
X699481Y341541D01*
X699451Y341426D01*
X699447Y341366D01*
X699443Y341346D01*
X699445Y341325D01*
X699441Y341265D01*
X699441Y340919D01*
X689400Y340919D01*
X689282Y340904D01*
X689163Y340897D01*
X689125Y340885D01*
X689085Y340880D01*
X688974Y340836D01*
X688861Y340799D01*
X688827Y340777D01*
X688789Y340763D01*
X688693Y340693D01*
X688592Y340629D01*
X688564Y340599D01*
X688532Y340576D01*
X688456Y340484D01*
X688374Y340397D01*
X688355Y340362D01*
X688329Y340331D01*
X688278Y340223D01*
X688221Y340119D01*
X688211Y340080D01*
X688193Y340043D01*
X688171Y339926D01*
X688141Y339811D01*
X688137Y339751D01*
X688134Y339731D01*
X688134Y339730D01*
X688135Y339710D01*
X688131Y339650D01*
X688146Y339532D01*
X688153Y339413D01*
X688166Y339374D01*
X688171Y339334D01*
X688215Y339224D01*
X688251Y339110D01*
X688273Y339076D01*
X688288Y339039D01*
X688358Y338942D01*
X688422Y338842D01*
X688451Y338814D01*
X688475Y338781D01*
X688567Y338705D01*
X688653Y338624D01*
X688689Y338604D01*
X688720Y338578D01*
X688827Y338528D01*
X688932Y338470D01*
X688971Y338460D01*
X689007Y338443D01*
X689124Y338421D01*
X689240Y338391D01*
X689300Y338387D01*
X689320Y338383D01*
X689340Y338384D01*
X689400Y338381D01*
X699441Y338381D01*
X699441Y337554D01*
X699229Y336765D01*
X698821Y336057D01*
X698796Y336033D01*
X698736Y335955D01*
X698668Y335882D01*
X698639Y335829D01*
X698602Y335782D01*
X698562Y335691D01*
X698514Y335604D01*
X698499Y335545D01*
X698475Y335490D01*
X698460Y335392D01*
X698435Y335296D01*
X698429Y335196D01*
X698425Y335176D01*
X698427Y335163D01*
X698425Y335135D01*
X698425Y330536D01*
X698382Y330437D01*
X698328Y330331D01*
X698319Y330292D01*
X698303Y330254D01*
X698284Y330137D01*
X698258Y330021D01*
X698259Y329980D01*
X698253Y329940D01*
X698264Y329822D01*
X698268Y329703D01*
X698279Y329664D01*
X698283Y329624D01*
X698323Y329512D01*
X698356Y329397D01*
X698377Y329363D01*
X698390Y329324D01*
X698425Y329274D01*
X698425Y324036D01*
X698382Y323937D01*
X698328Y323831D01*
X698319Y323792D01*
X698303Y323754D01*
X698284Y323637D01*
X698258Y323521D01*
X698259Y323480D01*
X698253Y323440D01*
X698264Y323322D01*
X698268Y323203D01*
X698279Y323164D01*
X698283Y323124D01*
X698323Y323012D01*
X698356Y322897D01*
X698377Y322863D01*
X698390Y322824D01*
X698425Y322774D01*
X698425Y317598D01*
X697202Y316375D01*
X681598Y316375D01*
X681408Y316565D01*
X681309Y316642D01*
X681213Y316725D01*
X681183Y316740D01*
X681157Y316760D01*
X681042Y316810D01*
X680929Y316866D01*
X680896Y316873D01*
X680865Y316886D01*
X680741Y316906D01*
X680618Y316932D01*
X680584Y316931D01*
X680551Y316936D01*
X680425Y316925D01*
X680300Y316919D01*
X680268Y316910D01*
X680234Y316907D01*
X680116Y316864D01*
X679995Y316828D01*
X679967Y316810D01*
X679935Y316799D01*
X679831Y316728D01*
X679723Y316663D01*
X679700Y316639D01*
X679672Y316620D01*
X679589Y316526D01*
X679500Y316436D01*
X679473Y316396D01*
X679461Y316382D01*
X679452Y316363D01*
X679443Y316350D01*
X678960Y315867D01*
X678381Y315532D01*
X677734Y315359D01*
X662939Y315359D01*
X662939Y318570D01*
X662933Y318620D01*
X662935Y318671D01*
X662913Y318778D01*
X662899Y318886D01*
X662881Y318933D01*
X662871Y318982D01*
X662822Y319080D01*
X662782Y319181D01*
X662753Y319222D01*
X662730Y319268D01*
X662660Y319350D01*
X662595Y319439D01*
X662557Y319471D01*
X662524Y319509D01*
X662435Y319572D01*
X662350Y319642D01*
X662305Y319663D01*
X662264Y319692D01*
X662161Y319731D01*
X662063Y319777D01*
X662013Y319787D01*
X661966Y319804D01*
X661857Y319816D01*
X661845Y319819D01*
X661821Y319825D01*
X661808Y319826D01*
X661750Y319837D01*
X661700Y319834D01*
X661650Y319839D01*
X661622Y319835D01*
X659219Y319835D01*
X659211Y319837D01*
X659185Y319835D01*
X659140Y319835D01*
X659099Y319830D01*
X658991Y319832D01*
X658943Y319820D01*
X658893Y319817D01*
X658827Y319796D01*
X658825Y319795D01*
X658817Y319792D01*
X658789Y319783D01*
X658682Y319758D01*
X658638Y319734D01*
X658591Y319719D01*
X658498Y319660D01*
X658401Y319609D01*
X658364Y319576D01*
X658322Y319549D01*
X658247Y319469D01*
X658165Y319395D01*
X658138Y319354D01*
X658104Y319317D01*
X658051Y319221D01*
X657991Y319129D01*
X657974Y319082D01*
X657950Y319039D01*
X657923Y318932D01*
X657887Y318829D01*
X657883Y318779D01*
X657871Y318731D01*
X657861Y318570D01*
X657861Y315359D01*
X643066Y315359D01*
X642419Y315532D01*
X641840Y315867D01*
X641339Y316368D01*
X641313Y316403D01*
X641242Y316506D01*
X641217Y316529D01*
X641197Y316556D01*
X641098Y316634D01*
X641004Y316717D01*
X640974Y316732D01*
X640947Y316753D01*
X640833Y316804D01*
X640720Y316862D01*
X640688Y316869D01*
X640657Y316883D01*
X640533Y316904D01*
X640410Y316931D01*
X640376Y316930D01*
X640343Y316936D01*
X640218Y316925D01*
X640092Y316922D01*
X640060Y316912D01*
X640026Y316909D01*
X639907Y316868D01*
X639787Y316833D01*
X639758Y316816D01*
X639726Y316805D01*
X639621Y316735D01*
X639513Y316672D01*
X639476Y316639D01*
X639461Y316629D01*
X639446Y316613D01*
X639392Y316565D01*
X639202Y316375D01*
X625170Y316375D01*
X625052Y316360D01*
X624933Y316353D01*
X624895Y316340D01*
X624854Y316335D01*
X624744Y316292D01*
X624631Y316255D01*
X624596Y316233D01*
X624559Y316218D01*
X624463Y316149D01*
X624362Y316085D01*
X624334Y316055D01*
X624301Y316032D01*
X624225Y315940D01*
X624144Y315853D01*
X624124Y315818D01*
X624099Y315787D01*
X624048Y315679D01*
X623990Y315575D01*
X623980Y315535D01*
X623963Y315499D01*
X623941Y315382D01*
X623911Y315267D01*
X623907Y315207D01*
X623903Y315187D01*
X623905Y315166D01*
X623901Y315106D01*
X623901Y288012D01*
X623902Y288003D01*
X623901Y287994D01*
X623922Y287845D01*
X623941Y287697D01*
X623944Y287688D01*
X623945Y287679D01*
X623997Y287527D01*
X624841Y285491D01*
X624841Y283469D01*
X624067Y281602D01*
X622638Y280173D01*
X620771Y279399D01*
X618749Y279399D01*
X616882Y280173D01*
X615453Y281602D01*
X614679Y283469D01*
X614679Y285491D01*
X615453Y287358D01*
X616882Y288787D01*
X617528Y289055D01*
X617553Y289069D01*
X617581Y289078D01*
X617691Y289148D01*
X617804Y289212D01*
X617825Y289233D01*
X617850Y289249D01*
X617939Y289343D01*
X618032Y289434D01*
X618048Y289459D01*
X618068Y289480D01*
X618131Y289594D01*
X618199Y289705D01*
X618207Y289733D01*
X618222Y289759D01*
X618254Y289884D01*
X618292Y290009D01*
X618294Y290038D01*
X618301Y290067D01*
X618311Y290227D01*
X618311Y343885D01*
X622004Y347578D01*
X622064Y347656D01*
X622132Y347728D01*
X622161Y347781D01*
X622198Y347829D01*
X622238Y347920D01*
X622286Y348007D01*
X622301Y348065D01*
X622325Y348121D01*
X622340Y348219D01*
X622365Y348314D01*
X622371Y348415D01*
X622375Y348435D01*
X622373Y348447D01*
X622375Y348475D01*
X622375Y348764D01*
X622418Y348863D01*
X622472Y348969D01*
X622481Y349008D01*
X622497Y349046D01*
X622516Y349163D01*
X622542Y349279D01*
X622541Y349320D01*
X622547Y349360D01*
X622536Y349478D01*
X622532Y349597D01*
X622521Y349636D01*
X622517Y349676D01*
X622477Y349788D01*
X622444Y349903D01*
X622423Y349937D01*
X622410Y349976D01*
X622375Y350026D01*
X622375Y354002D01*
X622360Y354120D01*
X622353Y354239D01*
X622340Y354277D01*
X622335Y354318D01*
X622292Y354428D01*
X622255Y354541D01*
X622233Y354576D01*
X622218Y354613D01*
X622149Y354709D01*
X622085Y354810D01*
X622055Y354838D01*
X622032Y354871D01*
X621940Y354947D01*
X621853Y355028D01*
X621818Y355048D01*
X621787Y355073D01*
X621679Y355124D01*
X621575Y355182D01*
X621535Y355192D01*
X621499Y355209D01*
X621382Y355231D01*
X621267Y355261D01*
X621207Y355265D01*
X621187Y355269D01*
X621166Y355267D01*
X621106Y355271D01*
X620862Y355271D01*
X618110Y358024D01*
X615771Y360362D01*
X615771Y370938D01*
X646262Y401429D01*
X765100Y401429D01*
X918465Y248064D01*
X918465Y176686D01*
X918477Y176588D01*
X918480Y176489D01*
X918497Y176430D01*
X918505Y176370D01*
X918541Y176278D01*
X918569Y176183D01*
X918599Y176131D01*
X918622Y176075D01*
X918680Y175995D01*
X918730Y175909D01*
X918796Y175834D01*
X918808Y175817D01*
X918818Y175810D01*
X918836Y175788D01*
X918899Y175726D01*
X919707Y173776D01*
X919707Y171664D01*
X918899Y169714D01*
X917406Y168221D01*
X915456Y167413D01*
X913344Y167413D01*
G37*
%LPD*%
%LPC*%
G36*
X494244Y517933D02*
X494244Y517933D01*
X492294Y518741D01*
X492232Y518804D01*
X492153Y518864D01*
X492081Y518932D01*
X492028Y518961D01*
X491980Y518998D01*
X491889Y519038D01*
X491803Y519086D01*
X491744Y519101D01*
X491688Y519125D01*
X491591Y519140D01*
X491495Y519165D01*
X491395Y519171D01*
X491374Y519175D01*
X491362Y519173D01*
X491334Y519175D01*
X380476Y519175D01*
X266273Y633379D01*
X266249Y633397D01*
X266230Y633419D01*
X266124Y633494D01*
X266022Y633574D01*
X265994Y633585D01*
X265970Y633602D01*
X265849Y633648D01*
X265730Y633700D01*
X265700Y633705D01*
X265673Y633715D01*
X265544Y633730D01*
X265416Y633750D01*
X265386Y633747D01*
X265357Y633750D01*
X265228Y633732D01*
X265099Y633720D01*
X265071Y633710D01*
X265042Y633706D01*
X264890Y633654D01*
X264603Y633535D01*
X260997Y633535D01*
X257665Y634915D01*
X255115Y637465D01*
X253735Y640797D01*
X253735Y644403D01*
X255115Y647735D01*
X257665Y650285D01*
X260997Y651665D01*
X264603Y651665D01*
X267935Y650285D01*
X270485Y647735D01*
X271865Y644403D01*
X271865Y640797D01*
X271746Y640510D01*
X271738Y640482D01*
X271725Y640456D01*
X271696Y640329D01*
X271662Y640204D01*
X271662Y640174D01*
X271655Y640145D01*
X271659Y640016D01*
X271657Y639886D01*
X271664Y639857D01*
X271665Y639827D01*
X271701Y639703D01*
X271731Y639576D01*
X271745Y639550D01*
X271753Y639522D01*
X271819Y639410D01*
X271880Y639295D01*
X271900Y639274D01*
X271915Y639248D01*
X272021Y639127D01*
X383472Y527676D01*
X383550Y527616D01*
X383622Y527548D01*
X383675Y527519D01*
X383723Y527482D01*
X383814Y527442D01*
X383901Y527394D01*
X383959Y527379D01*
X384015Y527355D01*
X384113Y527340D01*
X384209Y527315D01*
X384309Y527309D01*
X384329Y527305D01*
X384341Y527307D01*
X384369Y527305D01*
X420083Y527305D01*
X420220Y527322D01*
X420359Y527335D01*
X420378Y527342D01*
X420398Y527345D01*
X420527Y527396D01*
X420658Y527443D01*
X420675Y527454D01*
X420694Y527462D01*
X420806Y527543D01*
X420921Y527621D01*
X420935Y527637D01*
X420951Y527648D01*
X421040Y527756D01*
X421132Y527860D01*
X421141Y527878D01*
X421154Y527893D01*
X421213Y528019D01*
X421276Y528143D01*
X421281Y528163D01*
X421290Y528181D01*
X421316Y528317D01*
X421346Y528453D01*
X421346Y528474D01*
X421349Y528493D01*
X421341Y528632D01*
X421336Y528771D01*
X421331Y528791D01*
X421330Y528811D01*
X421287Y528943D01*
X421248Y529077D01*
X421238Y529094D01*
X421232Y529113D01*
X421157Y529231D01*
X421087Y529351D01*
X421068Y529372D01*
X421061Y529382D01*
X421046Y529396D01*
X420980Y529471D01*
X418364Y532088D01*
X317073Y633379D01*
X317049Y633397D01*
X317030Y633419D01*
X316924Y633494D01*
X316822Y633574D01*
X316794Y633585D01*
X316770Y633602D01*
X316649Y633648D01*
X316530Y633700D01*
X316500Y633705D01*
X316473Y633715D01*
X316344Y633730D01*
X316216Y633750D01*
X316186Y633747D01*
X316157Y633750D01*
X316028Y633732D01*
X315899Y633720D01*
X315871Y633710D01*
X315842Y633706D01*
X315690Y633654D01*
X315403Y633535D01*
X311797Y633535D01*
X308465Y634915D01*
X305915Y637465D01*
X304535Y640797D01*
X304535Y644403D01*
X305915Y647735D01*
X308465Y650285D01*
X311797Y651665D01*
X315403Y651665D01*
X318735Y650285D01*
X321285Y647735D01*
X322665Y644403D01*
X322665Y640797D01*
X322546Y640510D01*
X322538Y640482D01*
X322525Y640456D01*
X322496Y640329D01*
X322462Y640204D01*
X322462Y640174D01*
X322455Y640145D01*
X322459Y640016D01*
X322457Y639886D01*
X322464Y639857D01*
X322465Y639827D01*
X322501Y639703D01*
X322531Y639576D01*
X322545Y639550D01*
X322553Y639522D01*
X322619Y639410D01*
X322680Y639295D01*
X322700Y639274D01*
X322715Y639248D01*
X322821Y639127D01*
X424112Y537836D01*
X424190Y537776D01*
X424262Y537708D01*
X424315Y537679D01*
X424363Y537642D01*
X424454Y537602D01*
X424541Y537554D01*
X424599Y537539D01*
X424655Y537515D01*
X424753Y537500D01*
X424849Y537475D01*
X424949Y537469D01*
X424969Y537465D01*
X424981Y537467D01*
X425009Y537465D01*
X526894Y537465D01*
X526992Y537477D01*
X527091Y537480D01*
X527150Y537497D01*
X527210Y537505D01*
X527302Y537541D01*
X527397Y537569D01*
X527449Y537599D01*
X527505Y537622D01*
X527585Y537680D01*
X527671Y537730D01*
X527746Y537796D01*
X527763Y537808D01*
X527770Y537818D01*
X527792Y537836D01*
X527854Y537899D01*
X529804Y538707D01*
X531916Y538707D01*
X533866Y537899D01*
X535359Y536406D01*
X536167Y534456D01*
X536167Y532344D01*
X535359Y530394D01*
X533866Y528901D01*
X531916Y528093D01*
X529804Y528093D01*
X527854Y528901D01*
X527792Y528964D01*
X527713Y529024D01*
X527641Y529092D01*
X527588Y529121D01*
X527540Y529158D01*
X527449Y529198D01*
X527363Y529246D01*
X527304Y529261D01*
X527248Y529285D01*
X527151Y529300D01*
X527055Y529325D01*
X526955Y529331D01*
X526934Y529335D01*
X526922Y529333D01*
X526894Y529335D01*
X499774Y529335D01*
X499636Y529318D01*
X499497Y529305D01*
X499478Y529298D01*
X499458Y529295D01*
X499329Y529244D01*
X499198Y529197D01*
X499181Y529186D01*
X499163Y529178D01*
X499050Y529097D01*
X498935Y529019D01*
X498922Y529003D01*
X498905Y528992D01*
X498816Y528884D01*
X498725Y528780D01*
X498715Y528762D01*
X498702Y528747D01*
X498643Y528621D01*
X498580Y528497D01*
X498576Y528477D01*
X498567Y528459D01*
X498541Y528322D01*
X498510Y528187D01*
X498511Y528166D01*
X498507Y528147D01*
X498516Y528008D01*
X498520Y527869D01*
X498526Y527849D01*
X498527Y527829D01*
X498570Y527697D01*
X498608Y527563D01*
X498619Y527546D01*
X498625Y527527D01*
X498699Y527409D01*
X498770Y527289D01*
X498789Y527268D01*
X498795Y527258D01*
X498810Y527244D01*
X498876Y527169D01*
X499799Y526246D01*
X500607Y524296D01*
X500607Y522184D01*
X499799Y520234D01*
X498306Y518741D01*
X496356Y517933D01*
X494244Y517933D01*
G37*
%LPD*%
%LPC*%
G36*
X372324Y388393D02*
X372324Y388393D01*
X370374Y389201D01*
X368881Y390694D01*
X368073Y392644D01*
X368073Y392733D01*
X368061Y392831D01*
X368058Y392930D01*
X368041Y392988D01*
X368033Y393048D01*
X367997Y393140D01*
X367969Y393235D01*
X367939Y393287D01*
X367916Y393344D01*
X367858Y393424D01*
X367808Y393509D01*
X367742Y393585D01*
X367730Y393601D01*
X367720Y393609D01*
X367702Y393630D01*
X310352Y450980D01*
X310274Y451040D01*
X310202Y451108D01*
X310149Y451137D01*
X310101Y451174D01*
X310010Y451214D01*
X309923Y451262D01*
X309865Y451277D01*
X309809Y451301D01*
X309711Y451316D01*
X309615Y451341D01*
X309515Y451347D01*
X309495Y451351D01*
X309483Y451349D01*
X309455Y451351D01*
X302677Y451351D01*
X292728Y461300D01*
X292634Y461373D01*
X292544Y461452D01*
X292508Y461470D01*
X292476Y461495D01*
X292367Y461542D01*
X292261Y461597D01*
X292222Y461605D01*
X292185Y461621D01*
X292067Y461640D01*
X291951Y461666D01*
X291911Y461665D01*
X291871Y461671D01*
X291752Y461660D01*
X291633Y461657D01*
X291594Y461645D01*
X291554Y461641D01*
X291442Y461601D01*
X291328Y461568D01*
X291293Y461548D01*
X291255Y461534D01*
X291156Y461467D01*
X291054Y461407D01*
X291008Y461367D01*
X290991Y461355D01*
X290978Y461340D01*
X290933Y461300D01*
X287588Y457955D01*
X280012Y457955D01*
X274655Y463312D01*
X274655Y470888D01*
X278352Y474585D01*
X278437Y474694D01*
X278526Y474801D01*
X278534Y474820D01*
X278547Y474836D01*
X278602Y474964D01*
X278661Y475089D01*
X278665Y475109D01*
X278673Y475128D01*
X278695Y475266D01*
X278721Y475402D01*
X278720Y475422D01*
X278723Y475442D01*
X278710Y475581D01*
X278701Y475719D01*
X278695Y475738D01*
X278693Y475758D01*
X278646Y475889D01*
X278603Y476021D01*
X278593Y476039D01*
X278586Y476058D01*
X278508Y476173D01*
X278433Y476290D01*
X278418Y476304D01*
X278407Y476321D01*
X278303Y476413D01*
X278202Y476508D01*
X278184Y476518D01*
X278169Y476531D01*
X278045Y476595D01*
X277923Y476662D01*
X277904Y476667D01*
X277885Y476676D01*
X277750Y476706D01*
X277615Y476741D01*
X277587Y476743D01*
X277575Y476746D01*
X277555Y476745D01*
X277454Y476751D01*
X277277Y476751D01*
X274524Y479504D01*
X268772Y485256D01*
X267328Y486700D01*
X267234Y486773D01*
X267144Y486852D01*
X267108Y486870D01*
X267076Y486895D01*
X266967Y486942D01*
X266861Y486997D01*
X266822Y487005D01*
X266785Y487021D01*
X266667Y487040D01*
X266551Y487066D01*
X266511Y487065D01*
X266471Y487071D01*
X266352Y487060D01*
X266233Y487057D01*
X266194Y487045D01*
X266154Y487041D01*
X266042Y487001D01*
X265928Y486968D01*
X265893Y486948D01*
X265855Y486934D01*
X265756Y486867D01*
X265654Y486807D01*
X265608Y486767D01*
X265592Y486755D01*
X265578Y486740D01*
X265533Y486700D01*
X262188Y483355D01*
X254612Y483355D01*
X249255Y488712D01*
X249255Y496288D01*
X254612Y501645D01*
X256966Y501645D01*
X257104Y501662D01*
X257243Y501675D01*
X257262Y501682D01*
X257282Y501685D01*
X257411Y501736D01*
X257542Y501783D01*
X257559Y501794D01*
X257578Y501802D01*
X257690Y501883D01*
X257805Y501961D01*
X257819Y501977D01*
X257835Y501988D01*
X257924Y502096D01*
X258016Y502200D01*
X258025Y502218D01*
X258038Y502233D01*
X258097Y502359D01*
X258160Y502483D01*
X258165Y502503D01*
X258173Y502521D01*
X258199Y502657D01*
X258230Y502793D01*
X258229Y502814D01*
X258233Y502833D01*
X258224Y502972D01*
X258220Y503111D01*
X258215Y503131D01*
X258213Y503151D01*
X258170Y503283D01*
X258132Y503417D01*
X258121Y503434D01*
X258115Y503453D01*
X258041Y503571D01*
X257970Y503691D01*
X257952Y503712D01*
X257945Y503722D01*
X257930Y503736D01*
X257864Y503811D01*
X233335Y528340D01*
X233335Y633624D01*
X233332Y633653D01*
X233334Y633683D01*
X233312Y633811D01*
X233295Y633940D01*
X233285Y633967D01*
X233280Y633996D01*
X233226Y634115D01*
X233178Y634235D01*
X233161Y634259D01*
X233149Y634286D01*
X233068Y634387D01*
X232992Y634493D01*
X232969Y634511D01*
X232950Y634534D01*
X232847Y634613D01*
X232747Y634695D01*
X232720Y634708D01*
X232696Y634726D01*
X232552Y634797D01*
X232265Y634915D01*
X229715Y637465D01*
X228335Y640797D01*
X228335Y644403D01*
X229715Y647735D01*
X232265Y650285D01*
X235597Y651665D01*
X239203Y651665D01*
X242535Y650285D01*
X245085Y647735D01*
X246465Y644403D01*
X246465Y640797D01*
X245085Y637465D01*
X242535Y634915D01*
X242248Y634797D01*
X242223Y634782D01*
X242195Y634773D01*
X242085Y634703D01*
X241972Y634639D01*
X241951Y634619D01*
X241926Y634603D01*
X241837Y634508D01*
X241744Y634418D01*
X241728Y634393D01*
X241708Y634371D01*
X241645Y634257D01*
X241577Y634147D01*
X241569Y634118D01*
X241554Y634093D01*
X241522Y633967D01*
X241484Y633843D01*
X241482Y633813D01*
X241475Y633785D01*
X241465Y633624D01*
X241465Y532233D01*
X241477Y532135D01*
X241480Y532036D01*
X241497Y531978D01*
X241505Y531918D01*
X241541Y531825D01*
X241569Y531730D01*
X241599Y531678D01*
X241622Y531622D01*
X241680Y531542D01*
X241730Y531456D01*
X241796Y531381D01*
X241808Y531365D01*
X241818Y531357D01*
X241836Y531336D01*
X274149Y499023D01*
X274149Y498846D01*
X274166Y498708D01*
X274179Y498569D01*
X274186Y498550D01*
X274189Y498530D01*
X274240Y498401D01*
X274287Y498270D01*
X274298Y498253D01*
X274306Y498234D01*
X274387Y498122D01*
X274465Y498007D01*
X274481Y497993D01*
X274492Y497977D01*
X274600Y497888D01*
X274704Y497796D01*
X274722Y497787D01*
X274737Y497774D01*
X274863Y497715D01*
X274987Y497652D01*
X275007Y497647D01*
X275025Y497639D01*
X275161Y497613D01*
X275297Y497582D01*
X275318Y497583D01*
X275337Y497579D01*
X275476Y497587D01*
X275615Y497592D01*
X275635Y497597D01*
X275655Y497599D01*
X275787Y497641D01*
X275921Y497680D01*
X275938Y497690D01*
X275957Y497697D01*
X276075Y497771D01*
X276195Y497842D01*
X276216Y497860D01*
X276226Y497867D01*
X276240Y497882D01*
X276315Y497948D01*
X280012Y501645D01*
X287588Y501645D01*
X292945Y496288D01*
X292945Y488712D01*
X289600Y485367D01*
X289527Y485273D01*
X289448Y485184D01*
X289430Y485148D01*
X289405Y485116D01*
X289358Y485007D01*
X289303Y484901D01*
X289295Y484861D01*
X289279Y484824D01*
X289260Y484706D01*
X289234Y484590D01*
X289235Y484550D01*
X289229Y484510D01*
X289240Y484391D01*
X289243Y484273D01*
X289255Y484234D01*
X289259Y484193D01*
X289299Y484081D01*
X289332Y483967D01*
X289352Y483932D01*
X289366Y483894D01*
X289433Y483796D01*
X289493Y483693D01*
X289533Y483648D01*
X289545Y483631D01*
X289560Y483618D01*
X289600Y483572D01*
X299549Y473623D01*
X299549Y473446D01*
X299566Y473308D01*
X299579Y473169D01*
X299586Y473150D01*
X299589Y473130D01*
X299640Y473001D01*
X299687Y472870D01*
X299698Y472853D01*
X299706Y472834D01*
X299787Y472722D01*
X299865Y472607D01*
X299881Y472593D01*
X299892Y472577D01*
X300000Y472488D01*
X300104Y472396D01*
X300122Y472387D01*
X300137Y472374D01*
X300263Y472315D01*
X300387Y472252D01*
X300407Y472247D01*
X300425Y472239D01*
X300561Y472213D01*
X300697Y472182D01*
X300718Y472183D01*
X300737Y472179D01*
X300876Y472187D01*
X301015Y472192D01*
X301035Y472197D01*
X301055Y472199D01*
X301187Y472241D01*
X301321Y472280D01*
X301338Y472290D01*
X301357Y472297D01*
X301475Y472371D01*
X301595Y472442D01*
X301616Y472460D01*
X301626Y472467D01*
X301640Y472482D01*
X301715Y472548D01*
X305412Y476245D01*
X312988Y476245D01*
X318345Y470888D01*
X318345Y463312D01*
X314828Y459795D01*
X314755Y459701D01*
X314676Y459612D01*
X314658Y459576D01*
X314633Y459544D01*
X314586Y459435D01*
X314532Y459329D01*
X314523Y459289D01*
X314507Y459252D01*
X314488Y459135D01*
X314462Y459019D01*
X314463Y458978D01*
X314457Y458938D01*
X314468Y458820D01*
X314472Y458701D01*
X314483Y458662D01*
X314487Y458622D01*
X314527Y458509D01*
X314560Y458395D01*
X314581Y458360D01*
X314594Y458322D01*
X314661Y458224D01*
X314722Y458121D01*
X314761Y458076D01*
X314773Y458059D01*
X314788Y458046D01*
X314828Y458000D01*
X373450Y399378D01*
X373528Y399318D01*
X373600Y399250D01*
X373653Y399221D01*
X373701Y399184D01*
X373792Y399144D01*
X373879Y399096D01*
X373937Y399081D01*
X373993Y399057D01*
X374091Y399042D01*
X374187Y399017D01*
X374287Y399011D01*
X374307Y399007D01*
X374319Y399009D01*
X374347Y399007D01*
X374436Y399007D01*
X376386Y398199D01*
X377879Y396706D01*
X378687Y394756D01*
X378687Y392644D01*
X377879Y390694D01*
X376386Y389201D01*
X374436Y388393D01*
X372324Y388393D01*
G37*
%LPD*%
%LPC*%
G36*
X210197Y633535D02*
X210197Y633535D01*
X206865Y634915D01*
X204315Y637465D01*
X202935Y640797D01*
X202935Y644403D01*
X204315Y647735D01*
X206865Y650285D01*
X207152Y650403D01*
X207177Y650418D01*
X207205Y650427D01*
X207315Y650497D01*
X207428Y650561D01*
X207449Y650581D01*
X207474Y650597D01*
X207563Y650692D01*
X207656Y650782D01*
X207672Y650807D01*
X207692Y650829D01*
X207755Y650943D01*
X207823Y651053D01*
X207831Y651082D01*
X207846Y651107D01*
X207878Y651233D01*
X207916Y651357D01*
X207918Y651387D01*
X207925Y651415D01*
X207935Y651576D01*
X207935Y710686D01*
X207920Y710804D01*
X207913Y710923D01*
X207900Y710961D01*
X207895Y711002D01*
X207852Y711112D01*
X207815Y711225D01*
X207793Y711260D01*
X207778Y711297D01*
X207709Y711393D01*
X207645Y711494D01*
X207615Y711522D01*
X207592Y711555D01*
X207500Y711631D01*
X207413Y711712D01*
X207378Y711732D01*
X207347Y711757D01*
X207239Y711808D01*
X207135Y711866D01*
X207095Y711876D01*
X207059Y711893D01*
X206942Y711915D01*
X206827Y711945D01*
X206767Y711949D01*
X206747Y711953D01*
X206726Y711951D01*
X206666Y711955D01*
X203812Y711955D01*
X198455Y717312D01*
X198455Y724888D01*
X203812Y730245D01*
X211388Y730245D01*
X213053Y728580D01*
X213162Y728495D01*
X213269Y728406D01*
X213288Y728398D01*
X213304Y728385D01*
X213432Y728330D01*
X213557Y728271D01*
X213577Y728267D01*
X213596Y728259D01*
X213734Y728237D01*
X213870Y728211D01*
X213890Y728212D01*
X213910Y728209D01*
X214049Y728222D01*
X214187Y728231D01*
X214206Y728237D01*
X214226Y728239D01*
X214358Y728286D01*
X214489Y728329D01*
X214507Y728339D01*
X214526Y728346D01*
X214641Y728424D01*
X214758Y728499D01*
X214772Y728514D01*
X214789Y728525D01*
X214881Y728629D01*
X214976Y728730D01*
X214986Y728748D01*
X214999Y728763D01*
X215063Y728887D01*
X215130Y729009D01*
X215135Y729028D01*
X215144Y729047D01*
X215174Y729182D01*
X215209Y729317D01*
X215211Y729345D01*
X215214Y729357D01*
X215213Y729377D01*
X215219Y729478D01*
X215219Y738122D01*
X215202Y738260D01*
X215189Y738399D01*
X215182Y738418D01*
X215179Y738438D01*
X215128Y738567D01*
X215081Y738698D01*
X215070Y738715D01*
X215062Y738734D01*
X214981Y738846D01*
X214903Y738961D01*
X214887Y738975D01*
X214876Y738991D01*
X214768Y739080D01*
X214664Y739172D01*
X214646Y739181D01*
X214631Y739194D01*
X214505Y739253D01*
X214381Y739316D01*
X214361Y739321D01*
X214343Y739329D01*
X214207Y739355D01*
X214071Y739386D01*
X214050Y739385D01*
X214031Y739389D01*
X213892Y739381D01*
X213753Y739376D01*
X213733Y739371D01*
X213713Y739369D01*
X213581Y739327D01*
X213447Y739288D01*
X213430Y739278D01*
X213411Y739271D01*
X213293Y739197D01*
X213173Y739126D01*
X213152Y739108D01*
X213142Y739101D01*
X213128Y739086D01*
X213053Y739020D01*
X211388Y737355D01*
X203812Y737355D01*
X198455Y742712D01*
X198455Y750288D01*
X203812Y755645D01*
X211388Y755645D01*
X213053Y753980D01*
X213162Y753895D01*
X213269Y753806D01*
X213288Y753798D01*
X213304Y753785D01*
X213432Y753730D01*
X213557Y753671D01*
X213577Y753667D01*
X213596Y753659D01*
X213734Y753637D01*
X213870Y753611D01*
X213890Y753612D01*
X213910Y753609D01*
X214049Y753622D01*
X214187Y753631D01*
X214206Y753637D01*
X214226Y753639D01*
X214358Y753686D01*
X214489Y753729D01*
X214507Y753739D01*
X214526Y753746D01*
X214641Y753824D01*
X214758Y753899D01*
X214772Y753914D01*
X214789Y753925D01*
X214881Y754029D01*
X214976Y754130D01*
X214986Y754148D01*
X214999Y754163D01*
X215063Y754287D01*
X215130Y754409D01*
X215135Y754428D01*
X215144Y754447D01*
X215174Y754582D01*
X215209Y754717D01*
X215211Y754745D01*
X215214Y754757D01*
X215213Y754777D01*
X215219Y754878D01*
X215219Y774187D01*
X215207Y774285D01*
X215204Y774384D01*
X215187Y774442D01*
X215179Y774502D01*
X215143Y774594D01*
X215115Y774689D01*
X215085Y774741D01*
X215062Y774798D01*
X215004Y774878D01*
X214954Y774963D01*
X214888Y775039D01*
X214876Y775055D01*
X214866Y775063D01*
X214848Y775084D01*
X210750Y779182D01*
X210672Y779242D01*
X210600Y779310D01*
X210547Y779339D01*
X210499Y779376D01*
X210408Y779416D01*
X210321Y779464D01*
X210263Y779479D01*
X210207Y779503D01*
X210109Y779518D01*
X210013Y779543D01*
X209913Y779549D01*
X209893Y779553D01*
X209881Y779551D01*
X209853Y779553D01*
X209764Y779553D01*
X207814Y780361D01*
X206321Y781854D01*
X205513Y783804D01*
X205513Y785916D01*
X206321Y787866D01*
X207814Y789359D01*
X209764Y790167D01*
X211876Y790167D01*
X213826Y789359D01*
X215319Y787866D01*
X216127Y785916D01*
X216127Y785827D01*
X216139Y785729D01*
X216142Y785630D01*
X216159Y785572D01*
X216167Y785512D01*
X216203Y785420D01*
X216231Y785325D01*
X216261Y785273D01*
X216284Y785216D01*
X216342Y785136D01*
X216392Y785051D01*
X216458Y784975D01*
X216470Y784959D01*
X216480Y784951D01*
X216498Y784930D01*
X223349Y778080D01*
X223349Y752846D01*
X223366Y752708D01*
X223379Y752569D01*
X223386Y752550D01*
X223389Y752530D01*
X223440Y752401D01*
X223487Y752270D01*
X223498Y752253D01*
X223506Y752234D01*
X223587Y752122D01*
X223665Y752007D01*
X223681Y751993D01*
X223692Y751977D01*
X223800Y751888D01*
X223904Y751796D01*
X223922Y751787D01*
X223937Y751774D01*
X224063Y751715D01*
X224187Y751652D01*
X224207Y751647D01*
X224225Y751639D01*
X224361Y751613D01*
X224497Y751582D01*
X224518Y751583D01*
X224537Y751579D01*
X224676Y751587D01*
X224815Y751592D01*
X224835Y751597D01*
X224855Y751599D01*
X224987Y751641D01*
X225121Y751680D01*
X225138Y751690D01*
X225157Y751697D01*
X225275Y751771D01*
X225395Y751842D01*
X225416Y751860D01*
X225426Y751867D01*
X225440Y751882D01*
X225515Y751948D01*
X229212Y755645D01*
X236788Y755645D01*
X242145Y750288D01*
X242145Y742712D01*
X236788Y737355D01*
X229212Y737355D01*
X225515Y741052D01*
X225406Y741137D01*
X225299Y741226D01*
X225280Y741234D01*
X225264Y741247D01*
X225136Y741302D01*
X225011Y741361D01*
X224991Y741365D01*
X224972Y741373D01*
X224834Y741395D01*
X224698Y741421D01*
X224678Y741420D01*
X224658Y741423D01*
X224519Y741410D01*
X224381Y741401D01*
X224362Y741395D01*
X224342Y741393D01*
X224210Y741346D01*
X224079Y741303D01*
X224061Y741293D01*
X224042Y741286D01*
X223927Y741208D01*
X223810Y741133D01*
X223796Y741118D01*
X223779Y741107D01*
X223687Y741003D01*
X223592Y740902D01*
X223582Y740884D01*
X223569Y740869D01*
X223505Y740745D01*
X223438Y740623D01*
X223433Y740604D01*
X223424Y740585D01*
X223394Y740450D01*
X223359Y740315D01*
X223357Y740287D01*
X223354Y740275D01*
X223355Y740255D01*
X223349Y740154D01*
X223349Y727446D01*
X223366Y727308D01*
X223379Y727169D01*
X223386Y727150D01*
X223389Y727130D01*
X223440Y727001D01*
X223487Y726870D01*
X223498Y726853D01*
X223506Y726834D01*
X223587Y726722D01*
X223665Y726607D01*
X223681Y726593D01*
X223692Y726577D01*
X223800Y726488D01*
X223904Y726396D01*
X223922Y726387D01*
X223937Y726374D01*
X224063Y726315D01*
X224187Y726252D01*
X224207Y726247D01*
X224225Y726239D01*
X224361Y726213D01*
X224497Y726182D01*
X224518Y726183D01*
X224537Y726179D01*
X224676Y726187D01*
X224815Y726192D01*
X224835Y726197D01*
X224855Y726199D01*
X224987Y726241D01*
X225121Y726280D01*
X225138Y726290D01*
X225157Y726297D01*
X225275Y726371D01*
X225395Y726442D01*
X225416Y726460D01*
X225426Y726467D01*
X225440Y726482D01*
X225515Y726548D01*
X229212Y730245D01*
X236788Y730245D01*
X242145Y724888D01*
X242145Y717312D01*
X236788Y711955D01*
X229212Y711955D01*
X225515Y715652D01*
X225406Y715737D01*
X225299Y715826D01*
X225280Y715834D01*
X225264Y715847D01*
X225136Y715902D01*
X225011Y715961D01*
X224991Y715965D01*
X224972Y715973D01*
X224834Y715995D01*
X224698Y716021D01*
X224678Y716020D01*
X224658Y716023D01*
X224519Y716010D01*
X224381Y716001D01*
X224362Y715995D01*
X224342Y715993D01*
X224210Y715946D01*
X224079Y715903D01*
X224061Y715893D01*
X224042Y715886D01*
X223927Y715808D01*
X223810Y715733D01*
X223796Y715718D01*
X223779Y715707D01*
X223687Y715603D01*
X223592Y715502D01*
X223582Y715484D01*
X223569Y715469D01*
X223505Y715345D01*
X223438Y715223D01*
X223433Y715204D01*
X223424Y715185D01*
X223394Y715050D01*
X223359Y714915D01*
X223357Y714887D01*
X223354Y714875D01*
X223355Y714855D01*
X223349Y714754D01*
X223349Y714577D01*
X220596Y711824D01*
X216436Y707664D01*
X216376Y707586D01*
X216308Y707514D01*
X216279Y707461D01*
X216242Y707413D01*
X216202Y707322D01*
X216154Y707236D01*
X216139Y707177D01*
X216115Y707121D01*
X216100Y707023D01*
X216075Y706928D01*
X216069Y706828D01*
X216065Y706807D01*
X216067Y706795D01*
X216065Y706767D01*
X216065Y651576D01*
X216068Y651547D01*
X216066Y651517D01*
X216088Y651389D01*
X216105Y651260D01*
X216115Y651233D01*
X216120Y651204D01*
X216174Y651085D01*
X216222Y650965D01*
X216239Y650941D01*
X216251Y650914D01*
X216332Y650813D01*
X216408Y650707D01*
X216431Y650689D01*
X216450Y650666D01*
X216553Y650587D01*
X216653Y650505D01*
X216680Y650492D01*
X216704Y650474D01*
X216848Y650403D01*
X217135Y650285D01*
X219685Y647735D01*
X221065Y644403D01*
X221065Y640797D01*
X219685Y637465D01*
X217135Y634915D01*
X213803Y633535D01*
X210197Y633535D01*
G37*
%LPD*%
%LPC*%
G36*
X129508Y301075D02*
X129508Y301075D01*
X122762Y302883D01*
X116713Y306375D01*
X111775Y311313D01*
X108283Y317362D01*
X106475Y324108D01*
X106475Y331092D01*
X108283Y337838D01*
X111775Y343887D01*
X116713Y348825D01*
X122762Y352317D01*
X129508Y354125D01*
X136492Y354125D01*
X143238Y352317D01*
X149287Y348825D01*
X154225Y343887D01*
X157717Y337838D01*
X159525Y331092D01*
X159525Y324108D01*
X157717Y317362D01*
X154225Y311313D01*
X149287Y306375D01*
X143238Y302883D01*
X136492Y301075D01*
X129508Y301075D01*
G37*
%LPD*%
%LPC*%
G36*
X879508Y301075D02*
X879508Y301075D01*
X872762Y302883D01*
X866713Y306375D01*
X861775Y311313D01*
X858283Y317362D01*
X856475Y324108D01*
X856475Y331092D01*
X858283Y337838D01*
X861775Y343887D01*
X866713Y348825D01*
X872762Y352317D01*
X879508Y354125D01*
X886492Y354125D01*
X893238Y352317D01*
X899287Y348825D01*
X904225Y343887D01*
X907717Y337838D01*
X909525Y331092D01*
X909525Y324108D01*
X907717Y317362D01*
X904225Y311313D01*
X899287Y306375D01*
X893238Y302883D01*
X886492Y301075D01*
X879508Y301075D01*
G37*
%LPD*%
%LPC*%
G36*
X879508Y611075D02*
X879508Y611075D01*
X872762Y612883D01*
X866713Y616375D01*
X861775Y621313D01*
X858283Y627362D01*
X856475Y634108D01*
X856475Y641092D01*
X858283Y647838D01*
X861775Y653887D01*
X866713Y658825D01*
X872762Y662317D01*
X879508Y664125D01*
X886492Y664125D01*
X893238Y662317D01*
X899287Y658825D01*
X904225Y653887D01*
X907717Y647838D01*
X909525Y641092D01*
X909525Y634108D01*
X907717Y627362D01*
X904225Y621313D01*
X899287Y616375D01*
X893238Y612883D01*
X886492Y611075D01*
X879508Y611075D01*
G37*
%LPD*%
%LPC*%
G36*
X129508Y611075D02*
X129508Y611075D01*
X122762Y612883D01*
X116713Y616375D01*
X111775Y621313D01*
X108283Y627362D01*
X106475Y634108D01*
X106475Y641092D01*
X108283Y647838D01*
X111775Y653887D01*
X116713Y658825D01*
X122762Y662317D01*
X129508Y664125D01*
X136492Y664125D01*
X143238Y662317D01*
X149287Y658825D01*
X154225Y653887D01*
X157717Y647838D01*
X159525Y641092D01*
X159525Y634108D01*
X157717Y627362D01*
X154225Y621313D01*
X149287Y616375D01*
X143238Y612883D01*
X136492Y611075D01*
X129508Y611075D01*
G37*
%LPD*%
%LPC*%
G36*
X418044Y601753D02*
X418044Y601753D01*
X416094Y602561D01*
X414601Y604054D01*
X413793Y606004D01*
X413793Y608116D01*
X414601Y610066D01*
X416094Y611559D01*
X418044Y612367D01*
X420156Y612367D01*
X422106Y611559D01*
X422168Y611496D01*
X422247Y611436D01*
X422319Y611368D01*
X422372Y611339D01*
X422420Y611302D01*
X422511Y611262D01*
X422597Y611214D01*
X422656Y611199D01*
X422712Y611175D01*
X422809Y611160D01*
X422905Y611135D01*
X423005Y611129D01*
X423026Y611125D01*
X423038Y611127D01*
X423066Y611125D01*
X460666Y611125D01*
X460784Y611140D01*
X460903Y611147D01*
X460941Y611160D01*
X460982Y611165D01*
X461092Y611208D01*
X461205Y611245D01*
X461240Y611267D01*
X461277Y611282D01*
X461373Y611351D01*
X461474Y611415D01*
X461502Y611445D01*
X461535Y611468D01*
X461611Y611560D01*
X461692Y611647D01*
X461712Y611682D01*
X461737Y611713D01*
X461788Y611821D01*
X461846Y611925D01*
X461856Y611965D01*
X461873Y612001D01*
X461895Y612118D01*
X461925Y612233D01*
X461929Y612293D01*
X461933Y612313D01*
X461931Y612334D01*
X461935Y612394D01*
X461935Y633624D01*
X461932Y633653D01*
X461934Y633683D01*
X461912Y633811D01*
X461895Y633940D01*
X461885Y633967D01*
X461880Y633996D01*
X461826Y634115D01*
X461778Y634235D01*
X461761Y634259D01*
X461749Y634286D01*
X461668Y634387D01*
X461592Y634493D01*
X461569Y634511D01*
X461550Y634534D01*
X461447Y634613D01*
X461347Y634695D01*
X461320Y634708D01*
X461296Y634726D01*
X461152Y634797D01*
X460865Y634915D01*
X458867Y636913D01*
X458773Y636986D01*
X458684Y637065D01*
X458648Y637083D01*
X458616Y637108D01*
X458506Y637156D01*
X458401Y637210D01*
X458361Y637218D01*
X458324Y637235D01*
X458206Y637253D01*
X458090Y637279D01*
X458050Y637278D01*
X458010Y637284D01*
X457891Y637273D01*
X457772Y637270D01*
X457734Y637258D01*
X457693Y637255D01*
X457581Y637214D01*
X457467Y637181D01*
X457432Y637161D01*
X457394Y637147D01*
X457295Y637080D01*
X457193Y637020D01*
X457148Y636980D01*
X457131Y636968D01*
X457117Y636953D01*
X457072Y636913D01*
X455708Y635549D01*
X447090Y626931D01*
X430005Y626931D01*
X429907Y626919D01*
X429808Y626916D01*
X429750Y626899D01*
X429690Y626891D01*
X429598Y626855D01*
X429503Y626827D01*
X429451Y626797D01*
X429394Y626774D01*
X429314Y626716D01*
X429229Y626666D01*
X429153Y626600D01*
X429137Y626588D01*
X429129Y626578D01*
X429108Y626560D01*
X424778Y622230D01*
X424718Y622152D01*
X424650Y622080D01*
X424621Y622027D01*
X424584Y621979D01*
X424544Y621888D01*
X424496Y621801D01*
X424481Y621743D01*
X424457Y621687D01*
X424442Y621589D01*
X424417Y621493D01*
X424411Y621393D01*
X424407Y621373D01*
X424409Y621361D01*
X424407Y621333D01*
X424407Y621244D01*
X423599Y619294D01*
X422106Y617801D01*
X420156Y616993D01*
X418044Y616993D01*
X416094Y617801D01*
X414601Y619294D01*
X413793Y621244D01*
X413793Y623356D01*
X414601Y625306D01*
X416094Y626799D01*
X418044Y627607D01*
X418133Y627607D01*
X418231Y627619D01*
X418330Y627622D01*
X418388Y627639D01*
X418448Y627647D01*
X418540Y627683D01*
X418635Y627711D01*
X418687Y627741D01*
X418744Y627764D01*
X418824Y627822D01*
X418909Y627872D01*
X418985Y627938D01*
X419001Y627950D01*
X419009Y627960D01*
X419030Y627978D01*
X426112Y635061D01*
X432256Y635061D01*
X432393Y635078D01*
X432532Y635091D01*
X432551Y635098D01*
X432571Y635101D01*
X432701Y635152D01*
X432831Y635199D01*
X432848Y635210D01*
X432867Y635218D01*
X432979Y635299D01*
X433094Y635377D01*
X433108Y635393D01*
X433124Y635404D01*
X433213Y635511D01*
X433305Y635616D01*
X433314Y635634D01*
X433327Y635649D01*
X433386Y635775D01*
X433449Y635899D01*
X433454Y635919D01*
X433462Y635937D01*
X433489Y636073D01*
X433519Y636209D01*
X433518Y636230D01*
X433522Y636249D01*
X433514Y636388D01*
X433509Y636527D01*
X433504Y636547D01*
X433503Y636567D01*
X433460Y636699D01*
X433421Y636833D01*
X433411Y636850D01*
X433404Y636869D01*
X433330Y636987D01*
X433259Y637107D01*
X433241Y637128D01*
X433234Y637138D01*
X433219Y637152D01*
X433153Y637228D01*
X432915Y637465D01*
X431535Y640797D01*
X431535Y644403D01*
X432915Y647735D01*
X435465Y650285D01*
X438797Y651665D01*
X442403Y651665D01*
X445735Y650285D01*
X448165Y647855D01*
X448274Y647770D01*
X448381Y647681D01*
X448400Y647672D01*
X448416Y647660D01*
X448544Y647605D01*
X448669Y647546D01*
X448689Y647542D01*
X448708Y647534D01*
X448846Y647512D01*
X448982Y647486D01*
X449002Y647487D01*
X449022Y647484D01*
X449161Y647497D01*
X449299Y647505D01*
X449318Y647512D01*
X449338Y647514D01*
X449470Y647561D01*
X449601Y647604D01*
X449619Y647614D01*
X449638Y647621D01*
X449753Y647699D01*
X449870Y647774D01*
X449884Y647788D01*
X449901Y647800D01*
X449993Y647904D01*
X450088Y648005D01*
X450098Y648023D01*
X450111Y648038D01*
X450175Y648162D01*
X450242Y648284D01*
X450247Y648303D01*
X450256Y648321D01*
X450286Y648457D01*
X450321Y648592D01*
X450323Y648620D01*
X450326Y648632D01*
X450325Y648652D01*
X450331Y648752D01*
X450331Y649090D01*
X453084Y651843D01*
X456757Y655516D01*
X459510Y658269D01*
X472490Y658269D01*
X482472Y648287D01*
X482566Y648214D01*
X482656Y648135D01*
X482692Y648117D01*
X482724Y648092D01*
X482833Y648044D01*
X482939Y647990D01*
X482978Y647982D01*
X483015Y647965D01*
X483133Y647947D01*
X483249Y647921D01*
X483289Y647922D01*
X483329Y647916D01*
X483448Y647927D01*
X483567Y647930D01*
X483606Y647942D01*
X483646Y647945D01*
X483758Y647986D01*
X483872Y648019D01*
X483907Y648039D01*
X483945Y648053D01*
X484044Y648120D01*
X484146Y648180D01*
X484192Y648220D01*
X484208Y648232D01*
X484222Y648247D01*
X484267Y648287D01*
X486265Y650285D01*
X489597Y651665D01*
X493203Y651665D01*
X496535Y650285D01*
X499085Y647735D01*
X500465Y644403D01*
X500465Y640797D01*
X499085Y637465D01*
X496535Y634915D01*
X493203Y633535D01*
X489597Y633535D01*
X486265Y634915D01*
X483715Y637465D01*
X483597Y637752D01*
X483582Y637777D01*
X483573Y637805D01*
X483503Y637915D01*
X483439Y638028D01*
X483419Y638049D01*
X483403Y638074D01*
X483308Y638163D01*
X483218Y638256D01*
X483193Y638272D01*
X483171Y638292D01*
X483057Y638355D01*
X482947Y638423D01*
X482918Y638431D01*
X482893Y638446D01*
X482767Y638478D01*
X482643Y638516D01*
X482613Y638518D01*
X482585Y638525D01*
X482424Y638535D01*
X480727Y638535D01*
X477231Y642031D01*
X477122Y642116D01*
X477015Y642205D01*
X476996Y642213D01*
X476980Y642226D01*
X476852Y642281D01*
X476727Y642340D01*
X476707Y642344D01*
X476688Y642352D01*
X476550Y642374D01*
X476414Y642400D01*
X476394Y642399D01*
X476374Y642402D01*
X476235Y642389D01*
X476097Y642380D01*
X476078Y642374D01*
X476058Y642372D01*
X475926Y642325D01*
X475795Y642282D01*
X475777Y642271D01*
X475758Y642264D01*
X475643Y642186D01*
X475526Y642112D01*
X475512Y642097D01*
X475495Y642086D01*
X475403Y641982D01*
X475308Y641880D01*
X475298Y641863D01*
X475285Y641847D01*
X475221Y641723D01*
X475154Y641602D01*
X475149Y641582D01*
X475140Y641564D01*
X475110Y641428D01*
X475075Y641294D01*
X475073Y641266D01*
X475070Y641254D01*
X475071Y641233D01*
X475065Y641133D01*
X475065Y640797D01*
X473685Y637465D01*
X471135Y634915D01*
X470848Y634797D01*
X470823Y634782D01*
X470795Y634773D01*
X470685Y634703D01*
X470572Y634639D01*
X470551Y634619D01*
X470526Y634603D01*
X470437Y634508D01*
X470344Y634418D01*
X470328Y634393D01*
X470308Y634371D01*
X470245Y634257D01*
X470177Y634147D01*
X470169Y634118D01*
X470154Y634093D01*
X470122Y633967D01*
X470084Y633843D01*
X470082Y633813D01*
X470075Y633785D01*
X470065Y633624D01*
X470065Y606556D01*
X466504Y602995D01*
X423066Y602995D01*
X422968Y602983D01*
X422869Y602980D01*
X422810Y602963D01*
X422750Y602955D01*
X422658Y602919D01*
X422563Y602891D01*
X422511Y602861D01*
X422455Y602838D01*
X422375Y602780D01*
X422289Y602730D01*
X422214Y602664D01*
X422197Y602652D01*
X422190Y602642D01*
X422168Y602624D01*
X422106Y602561D01*
X420156Y601753D01*
X418044Y601753D01*
G37*
%LPD*%
%LPC*%
G36*
X148692Y161639D02*
X148692Y161639D01*
X140364Y165089D01*
X133989Y171464D01*
X130539Y179792D01*
X130539Y188808D01*
X133989Y197136D01*
X140364Y203511D01*
X148692Y206961D01*
X157708Y206961D01*
X166036Y203511D01*
X172411Y197136D01*
X175861Y188808D01*
X175861Y179792D01*
X172411Y171464D01*
X166036Y165089D01*
X157708Y161639D01*
X148692Y161639D01*
G37*
%LPD*%
%LPC*%
G36*
X248692Y161639D02*
X248692Y161639D01*
X240364Y165089D01*
X233989Y171464D01*
X230539Y179792D01*
X230539Y188808D01*
X233989Y197136D01*
X240364Y203511D01*
X248692Y206961D01*
X257708Y206961D01*
X266036Y203511D01*
X272411Y197136D01*
X275861Y188808D01*
X275861Y179792D01*
X272411Y171464D01*
X266036Y165089D01*
X257708Y161639D01*
X248692Y161639D01*
G37*
%LPD*%
%LPC*%
G36*
X758292Y161639D02*
X758292Y161639D01*
X749964Y165089D01*
X743589Y171464D01*
X740139Y179792D01*
X740139Y188808D01*
X743589Y197136D01*
X749964Y203511D01*
X758292Y206961D01*
X767308Y206961D01*
X775636Y203511D01*
X782011Y197136D01*
X785461Y188808D01*
X785461Y179792D01*
X782011Y171464D01*
X775636Y165089D01*
X767308Y161639D01*
X758292Y161639D01*
G37*
%LPD*%
%LPC*%
G36*
X858292Y161639D02*
X858292Y161639D01*
X849964Y165089D01*
X843589Y171464D01*
X840139Y179792D01*
X840139Y188808D01*
X843589Y197136D01*
X849964Y203511D01*
X858292Y206961D01*
X867308Y206961D01*
X875636Y203511D01*
X882011Y197136D01*
X885461Y188808D01*
X885461Y179792D01*
X882011Y171464D01*
X875636Y165089D01*
X867308Y161639D01*
X858292Y161639D01*
G37*
%LPD*%
%LPC*%
G36*
X420584Y561113D02*
X420584Y561113D01*
X418634Y561921D01*
X417141Y563414D01*
X416333Y565364D01*
X416333Y567249D01*
X416321Y567347D01*
X416318Y567446D01*
X416301Y567504D01*
X416293Y567564D01*
X416257Y567656D01*
X416229Y567751D01*
X416199Y567804D01*
X416176Y567860D01*
X416118Y567940D01*
X416068Y568025D01*
X416002Y568101D01*
X415990Y568117D01*
X415980Y568125D01*
X415962Y568146D01*
X347561Y636547D01*
X347467Y636620D01*
X347378Y636698D01*
X347342Y636717D01*
X347310Y636742D01*
X347200Y636789D01*
X347094Y636843D01*
X347055Y636852D01*
X347018Y636868D01*
X346900Y636887D01*
X346784Y636913D01*
X346744Y636911D01*
X346704Y636918D01*
X346585Y636907D01*
X346466Y636903D01*
X346427Y636892D01*
X346387Y636888D01*
X346275Y636848D01*
X346161Y636815D01*
X346126Y636794D01*
X346088Y636780D01*
X345989Y636713D01*
X345887Y636653D01*
X345842Y636613D01*
X345825Y636602D01*
X345811Y636586D01*
X345766Y636547D01*
X344135Y634915D01*
X340803Y633535D01*
X337197Y633535D01*
X333865Y634915D01*
X331315Y637465D01*
X329935Y640797D01*
X329935Y644403D01*
X331315Y647735D01*
X333865Y650285D01*
X337197Y651665D01*
X340803Y651665D01*
X340890Y651629D01*
X340938Y651616D01*
X340983Y651594D01*
X341091Y651574D01*
X341197Y651545D01*
X341247Y651544D01*
X341296Y651535D01*
X341405Y651541D01*
X341515Y651540D01*
X341563Y651551D01*
X341613Y651554D01*
X341717Y651588D01*
X341824Y651614D01*
X341868Y651637D01*
X341915Y651652D01*
X342008Y651711D01*
X342105Y651762D01*
X342142Y651796D01*
X342184Y651822D01*
X342259Y651903D01*
X342341Y651976D01*
X342368Y652018D01*
X342402Y652054D01*
X342455Y652150D01*
X342515Y652242D01*
X342532Y652289D01*
X342556Y652333D01*
X342583Y652439D01*
X342619Y652543D01*
X342623Y652593D01*
X342635Y652641D01*
X342645Y652801D01*
X342645Y671693D01*
X342642Y671723D01*
X342644Y671752D01*
X342622Y671880D01*
X342605Y672009D01*
X342595Y672036D01*
X342590Y672066D01*
X342536Y672184D01*
X342488Y672305D01*
X342471Y672329D01*
X342459Y672355D01*
X342378Y672457D01*
X342302Y672562D01*
X342279Y672581D01*
X342260Y672604D01*
X342157Y672682D01*
X342057Y672765D01*
X342030Y672777D01*
X342006Y672795D01*
X341862Y672866D01*
X339894Y673681D01*
X338401Y675174D01*
X337593Y677124D01*
X337593Y679236D01*
X338401Y681186D01*
X339894Y682679D01*
X341844Y683487D01*
X343956Y683487D01*
X345906Y682679D01*
X347399Y681186D01*
X348018Y679691D01*
X348023Y679683D01*
X348025Y679674D01*
X348101Y679546D01*
X348176Y679415D01*
X348182Y679408D01*
X348187Y679400D01*
X348235Y679346D01*
X348235Y652458D01*
X348247Y652360D01*
X348250Y652261D01*
X348267Y652202D01*
X348275Y652142D01*
X348311Y652050D01*
X348339Y651955D01*
X348369Y651903D01*
X348392Y651847D01*
X348450Y651767D01*
X348500Y651681D01*
X348566Y651606D01*
X348578Y651589D01*
X348588Y651582D01*
X348606Y651560D01*
X352129Y648038D01*
X352129Y640409D01*
X352141Y640311D01*
X352144Y640212D01*
X352161Y640154D01*
X352169Y640094D01*
X352205Y640002D01*
X352233Y639907D01*
X352263Y639854D01*
X352286Y639798D01*
X352344Y639718D01*
X352394Y639633D01*
X352460Y639557D01*
X352472Y639541D01*
X352482Y639533D01*
X352500Y639512D01*
X353736Y638276D01*
X353792Y638233D01*
X353840Y638183D01*
X353917Y638136D01*
X353988Y638081D01*
X354052Y638053D01*
X354111Y638017D01*
X354197Y637990D01*
X354280Y637955D01*
X354349Y637944D01*
X354415Y637923D01*
X354505Y637919D01*
X354594Y637905D01*
X354663Y637911D01*
X354733Y637908D01*
X354821Y637926D01*
X354910Y637935D01*
X354976Y637958D01*
X355044Y637972D01*
X355125Y638012D01*
X355210Y638042D01*
X355267Y638081D01*
X355330Y638112D01*
X355398Y638170D01*
X355473Y638221D01*
X355519Y638273D01*
X355572Y638318D01*
X355624Y638392D01*
X355683Y638459D01*
X355715Y638521D01*
X355755Y638578D01*
X355787Y638662D01*
X355828Y638742D01*
X355843Y638811D01*
X355868Y638876D01*
X355878Y638965D01*
X355897Y639053D01*
X355895Y639122D01*
X355903Y639192D01*
X355890Y639281D01*
X355888Y639371D01*
X355868Y639438D01*
X355859Y639507D01*
X355807Y639659D01*
X355335Y640797D01*
X355335Y644403D01*
X356715Y647735D01*
X359265Y650285D01*
X362597Y651665D01*
X366203Y651665D01*
X369535Y650285D01*
X372085Y647735D01*
X373465Y644403D01*
X373465Y640797D01*
X372085Y637465D01*
X369535Y634915D01*
X366203Y633535D01*
X362597Y633535D01*
X361459Y634007D01*
X361392Y634025D01*
X361328Y634053D01*
X361239Y634067D01*
X361152Y634090D01*
X361083Y634092D01*
X361014Y634103D01*
X360924Y634094D01*
X360834Y634096D01*
X360767Y634079D01*
X360697Y634073D01*
X360613Y634042D01*
X360525Y634021D01*
X360463Y633989D01*
X360398Y633965D01*
X360323Y633915D01*
X360244Y633873D01*
X360192Y633826D01*
X360135Y633787D01*
X360075Y633719D01*
X360009Y633659D01*
X359970Y633600D01*
X359924Y633548D01*
X359883Y633468D01*
X359834Y633393D01*
X359811Y633327D01*
X359780Y633265D01*
X359760Y633177D01*
X359731Y633092D01*
X359725Y633023D01*
X359710Y632955D01*
X359713Y632865D01*
X359705Y632775D01*
X359717Y632706D01*
X359720Y632637D01*
X359745Y632550D01*
X359760Y632462D01*
X359789Y632398D01*
X359808Y632331D01*
X359854Y632254D01*
X359890Y632172D01*
X359934Y632117D01*
X359969Y632057D01*
X360076Y631936D01*
X419914Y572098D01*
X419992Y572038D01*
X420064Y571970D01*
X420117Y571941D01*
X420165Y571904D01*
X420256Y571864D01*
X420343Y571816D01*
X420401Y571801D01*
X420457Y571777D01*
X420555Y571762D01*
X420651Y571737D01*
X420751Y571731D01*
X420771Y571727D01*
X420783Y571729D01*
X420811Y571727D01*
X422696Y571727D01*
X424646Y570919D01*
X426139Y569426D01*
X426947Y567476D01*
X426947Y565364D01*
X426139Y563414D01*
X424646Y561921D01*
X422696Y561113D01*
X420584Y561113D01*
G37*
%LPD*%
%LPC*%
G36*
X940057Y761835D02*
X940057Y761835D01*
X936725Y763215D01*
X934175Y765765D01*
X932795Y769097D01*
X932795Y772703D01*
X934175Y776035D01*
X936725Y778585D01*
X940057Y779965D01*
X958743Y779965D01*
X962075Y778585D01*
X964625Y776035D01*
X966005Y772703D01*
X966005Y769097D01*
X964625Y765765D01*
X962075Y763215D01*
X958743Y761835D01*
X940057Y761835D01*
G37*
%LPD*%
%LPC*%
G36*
X977597Y707295D02*
X977597Y707295D01*
X974265Y708675D01*
X971715Y711225D01*
X970335Y714557D01*
X970335Y733243D01*
X971715Y736575D01*
X974265Y739125D01*
X977597Y740505D01*
X981203Y740505D01*
X984535Y739125D01*
X987085Y736575D01*
X988465Y733243D01*
X988465Y714557D01*
X987085Y711225D01*
X984535Y708675D01*
X981203Y707295D01*
X977597Y707295D01*
G37*
%LPD*%
%LPC*%
G36*
X917597Y707295D02*
X917597Y707295D01*
X914265Y708675D01*
X911715Y711225D01*
X910335Y714557D01*
X910335Y733243D01*
X911715Y736575D01*
X914265Y739125D01*
X917597Y740505D01*
X921203Y740505D01*
X924535Y739125D01*
X927085Y736575D01*
X928465Y733243D01*
X928465Y714557D01*
X927085Y711225D01*
X924535Y708675D01*
X921203Y707295D01*
X917597Y707295D01*
G37*
%LPD*%
%LPC*%
G36*
X568108Y140775D02*
X568108Y140775D01*
X563689Y142606D01*
X560306Y145989D01*
X558475Y150408D01*
X558475Y155192D01*
X560306Y159611D01*
X563689Y162994D01*
X568108Y164825D01*
X572892Y164825D01*
X577311Y162994D01*
X580694Y159611D01*
X582525Y155192D01*
X582525Y150408D01*
X580694Y145989D01*
X577311Y142606D01*
X572892Y140775D01*
X568108Y140775D01*
G37*
%LPD*%
%LPC*%
G36*
X443108Y190775D02*
X443108Y190775D01*
X438689Y192606D01*
X435306Y195989D01*
X433475Y200408D01*
X433475Y205192D01*
X435306Y209611D01*
X438689Y212994D01*
X443108Y214825D01*
X447892Y214825D01*
X452311Y212994D01*
X455694Y209611D01*
X457525Y205192D01*
X457525Y200408D01*
X455694Y195989D01*
X452311Y192606D01*
X447892Y190775D01*
X443108Y190775D01*
G37*
%LPD*%
%LPC*%
G36*
X568108Y190775D02*
X568108Y190775D01*
X563689Y192606D01*
X560306Y195989D01*
X558475Y200408D01*
X558475Y205192D01*
X560306Y209611D01*
X563689Y212994D01*
X568108Y214825D01*
X572892Y214825D01*
X577311Y212994D01*
X580694Y209611D01*
X582525Y205192D01*
X582525Y200408D01*
X580694Y195989D01*
X577311Y192606D01*
X572892Y190775D01*
X568108Y190775D01*
G37*
%LPD*%
%LPC*%
G36*
X702313Y28320D02*
X702313Y28320D01*
X701420Y29213D01*
X701420Y46987D01*
X702313Y47880D01*
X720087Y47880D01*
X720980Y46987D01*
X720980Y29213D01*
X720087Y28320D01*
X702313Y28320D01*
G37*
%LPD*%
%LPC*%
G36*
X321313Y28320D02*
X321313Y28320D01*
X320420Y29213D01*
X320420Y46987D01*
X321313Y47880D01*
X339087Y47880D01*
X339980Y46987D01*
X339980Y29213D01*
X339087Y28320D01*
X321313Y28320D01*
G37*
%LPD*%
%LPC*%
G36*
X554948Y457955D02*
X554948Y457955D01*
X554055Y458848D01*
X554055Y475352D01*
X554948Y476245D01*
X571452Y476245D01*
X572345Y475352D01*
X572345Y458848D01*
X571452Y457955D01*
X554948Y457955D01*
G37*
%LPD*%
%LPC*%
G36*
X554948Y711955D02*
X554948Y711955D01*
X554055Y712848D01*
X554055Y729352D01*
X554948Y730245D01*
X571452Y730245D01*
X572345Y729352D01*
X572345Y712848D01*
X571452Y711955D01*
X554948Y711955D01*
G37*
%LPD*%
%LPC*%
G36*
X961149Y536320D02*
X961149Y536320D01*
X955420Y542049D01*
X955420Y550151D01*
X961149Y555880D01*
X969251Y555880D01*
X974980Y550151D01*
X974980Y542049D01*
X969251Y536320D01*
X961149Y536320D01*
G37*
%LPD*%
%LPC*%
G36*
X963255Y510920D02*
X963255Y510920D01*
X959660Y512409D01*
X956909Y515160D01*
X955420Y518755D01*
X955420Y522645D01*
X956909Y526240D01*
X959660Y528991D01*
X963255Y530480D01*
X967145Y530480D01*
X970740Y528991D01*
X973491Y526240D01*
X974980Y522645D01*
X974980Y518755D01*
X973491Y515160D01*
X970740Y512409D01*
X967145Y510920D01*
X963255Y510920D01*
G37*
%LPD*%
%LPC*%
G36*
X353655Y28320D02*
X353655Y28320D01*
X350060Y29809D01*
X347309Y32560D01*
X345820Y36155D01*
X345820Y40045D01*
X347309Y43640D01*
X350060Y46391D01*
X353655Y47880D01*
X357545Y47880D01*
X361140Y46391D01*
X363891Y43640D01*
X365380Y40045D01*
X365380Y36155D01*
X363891Y32560D01*
X361140Y29809D01*
X357545Y28320D01*
X353655Y28320D01*
G37*
%LPD*%
%LPC*%
G36*
X683855Y28320D02*
X683855Y28320D01*
X680260Y29809D01*
X677509Y32560D01*
X676020Y36155D01*
X676020Y40045D01*
X677509Y43640D01*
X680260Y46391D01*
X683855Y47880D01*
X687745Y47880D01*
X691340Y46391D01*
X694091Y43640D01*
X695580Y40045D01*
X695580Y36155D01*
X694091Y32560D01*
X691340Y29809D01*
X687745Y28320D01*
X683855Y28320D01*
G37*
%LPD*%
%LPC*%
G36*
X975955Y28320D02*
X975955Y28320D01*
X972360Y29809D01*
X969609Y32560D01*
X968120Y36155D01*
X968120Y40045D01*
X969609Y43640D01*
X972360Y46391D01*
X975955Y47880D01*
X979845Y47880D01*
X983440Y46391D01*
X986191Y43640D01*
X987680Y40045D01*
X987680Y36155D01*
X986191Y32560D01*
X983440Y29809D01*
X979845Y28320D01*
X975955Y28320D01*
G37*
%LPD*%
%LPC*%
G36*
X975955Y53720D02*
X975955Y53720D01*
X972360Y55209D01*
X969609Y57960D01*
X968120Y61555D01*
X968120Y65445D01*
X969609Y69040D01*
X972360Y71791D01*
X975955Y73280D01*
X979845Y73280D01*
X983440Y71791D01*
X986191Y69040D01*
X987680Y65445D01*
X987680Y61555D01*
X986191Y57960D01*
X983440Y55209D01*
X979845Y53720D01*
X975955Y53720D01*
G37*
%LPD*%
%LPC*%
G36*
X975955Y104520D02*
X975955Y104520D01*
X972360Y106009D01*
X969609Y108760D01*
X968120Y112355D01*
X968120Y116245D01*
X969609Y119840D01*
X972360Y122591D01*
X975955Y124080D01*
X979845Y124080D01*
X983440Y122591D01*
X986191Y119840D01*
X987680Y116245D01*
X987680Y112355D01*
X986191Y108760D01*
X983440Y106009D01*
X979845Y104520D01*
X975955Y104520D01*
G37*
%LPD*%
%LPC*%
G36*
X975955Y79120D02*
X975955Y79120D01*
X972360Y80609D01*
X969609Y83360D01*
X968120Y86955D01*
X968120Y90845D01*
X969609Y94440D01*
X972360Y97191D01*
X975955Y98680D01*
X979845Y98680D01*
X983440Y97191D01*
X986191Y94440D01*
X987680Y90845D01*
X987680Y86955D01*
X986191Y83360D01*
X983440Y80609D01*
X979845Y79120D01*
X975955Y79120D01*
G37*
%LPD*%
%LPC*%
G36*
X975955Y155320D02*
X975955Y155320D01*
X972360Y156809D01*
X969609Y159560D01*
X968120Y163155D01*
X968120Y167045D01*
X969609Y170640D01*
X972360Y173391D01*
X975955Y174880D01*
X979845Y174880D01*
X983440Y173391D01*
X986191Y170640D01*
X987680Y167045D01*
X987680Y163155D01*
X986191Y159560D01*
X983440Y156809D01*
X979845Y155320D01*
X975955Y155320D01*
G37*
%LPD*%
%LPC*%
G36*
X330812Y737355D02*
X330812Y737355D01*
X325455Y742712D01*
X325455Y750288D01*
X330812Y755645D01*
X338388Y755645D01*
X343745Y750288D01*
X343745Y742712D01*
X338388Y737355D01*
X330812Y737355D01*
G37*
%LPD*%
%LPC*%
G36*
X178412Y737355D02*
X178412Y737355D01*
X173055Y742712D01*
X173055Y750288D01*
X178412Y755645D01*
X185988Y755645D01*
X191345Y750288D01*
X191345Y742712D01*
X185988Y737355D01*
X178412Y737355D01*
G37*
%LPD*%
%LPC*%
G36*
X407012Y737355D02*
X407012Y737355D01*
X401655Y742712D01*
X401655Y750288D01*
X407012Y755645D01*
X414588Y755645D01*
X419945Y750288D01*
X419945Y742712D01*
X414588Y737355D01*
X407012Y737355D01*
G37*
%LPD*%
%LPC*%
G36*
X457812Y737355D02*
X457812Y737355D01*
X452455Y742712D01*
X452455Y750288D01*
X457812Y755645D01*
X465388Y755645D01*
X470745Y750288D01*
X470745Y742712D01*
X465388Y737355D01*
X457812Y737355D01*
G37*
%LPD*%
%LPC*%
G36*
X153012Y737355D02*
X153012Y737355D01*
X147655Y742712D01*
X147655Y750288D01*
X153012Y755645D01*
X160588Y755645D01*
X165945Y750288D01*
X165945Y742712D01*
X160588Y737355D01*
X153012Y737355D01*
G37*
%LPD*%
%LPC*%
G36*
X483212Y737355D02*
X483212Y737355D01*
X477855Y742712D01*
X477855Y750288D01*
X483212Y755645D01*
X490788Y755645D01*
X496145Y750288D01*
X496145Y742712D01*
X490788Y737355D01*
X483212Y737355D01*
G37*
%LPD*%
%LPC*%
G36*
X508612Y737355D02*
X508612Y737355D01*
X503255Y742712D01*
X503255Y750288D01*
X508612Y755645D01*
X516188Y755645D01*
X521545Y750288D01*
X521545Y742712D01*
X516188Y737355D01*
X508612Y737355D01*
G37*
%LPD*%
%LPC*%
G36*
X305412Y737355D02*
X305412Y737355D01*
X300055Y742712D01*
X300055Y750288D01*
X305412Y755645D01*
X312988Y755645D01*
X318345Y750288D01*
X318345Y742712D01*
X312988Y737355D01*
X305412Y737355D01*
G37*
%LPD*%
%LPC*%
G36*
X534012Y737355D02*
X534012Y737355D01*
X528655Y742712D01*
X528655Y750288D01*
X534012Y755645D01*
X541588Y755645D01*
X546945Y750288D01*
X546945Y742712D01*
X541588Y737355D01*
X534012Y737355D01*
G37*
%LPD*%
%LPC*%
G36*
X559412Y737355D02*
X559412Y737355D01*
X554055Y742712D01*
X554055Y750288D01*
X559412Y755645D01*
X566988Y755645D01*
X572345Y750288D01*
X572345Y742712D01*
X566988Y737355D01*
X559412Y737355D01*
G37*
%LPD*%
%LPC*%
G36*
X432412Y737355D02*
X432412Y737355D01*
X427055Y742712D01*
X427055Y750288D01*
X432412Y755645D01*
X439988Y755645D01*
X445345Y750288D01*
X445345Y742712D01*
X439988Y737355D01*
X432412Y737355D01*
G37*
%LPD*%
%LPC*%
G36*
X280012Y737355D02*
X280012Y737355D01*
X274655Y742712D01*
X274655Y750288D01*
X280012Y755645D01*
X287588Y755645D01*
X292945Y750288D01*
X292945Y742712D01*
X287588Y737355D01*
X280012Y737355D01*
G37*
%LPD*%
%LPC*%
G36*
X127612Y737355D02*
X127612Y737355D01*
X122255Y742712D01*
X122255Y750288D01*
X127612Y755645D01*
X135188Y755645D01*
X140545Y750288D01*
X140545Y742712D01*
X135188Y737355D01*
X127612Y737355D01*
G37*
%LPD*%
%LPC*%
G36*
X254612Y737355D02*
X254612Y737355D01*
X249255Y742712D01*
X249255Y750288D01*
X254612Y755645D01*
X262188Y755645D01*
X267545Y750288D01*
X267545Y742712D01*
X262188Y737355D01*
X254612Y737355D01*
G37*
%LPD*%
%LPC*%
G36*
X381612Y737355D02*
X381612Y737355D01*
X376255Y742712D01*
X376255Y750288D01*
X381612Y755645D01*
X389188Y755645D01*
X394545Y750288D01*
X394545Y742712D01*
X389188Y737355D01*
X381612Y737355D01*
G37*
%LPD*%
%LPC*%
G36*
X356212Y737355D02*
X356212Y737355D01*
X350855Y742712D01*
X350855Y750288D01*
X356212Y755645D01*
X363788Y755645D01*
X369145Y750288D01*
X369145Y742712D01*
X363788Y737355D01*
X356212Y737355D01*
G37*
%LPD*%
%LPC*%
G36*
X407012Y457955D02*
X407012Y457955D01*
X401655Y463312D01*
X401655Y470888D01*
X407012Y476245D01*
X414588Y476245D01*
X419945Y470888D01*
X419945Y463312D01*
X414588Y457955D01*
X407012Y457955D01*
G37*
%LPD*%
%LPC*%
G36*
X432412Y711955D02*
X432412Y711955D01*
X427055Y717312D01*
X427055Y724888D01*
X432412Y730245D01*
X439988Y730245D01*
X445345Y724888D01*
X445345Y717312D01*
X439988Y711955D01*
X432412Y711955D01*
G37*
%LPD*%
%LPC*%
G36*
X407012Y711955D02*
X407012Y711955D01*
X401655Y717312D01*
X401655Y724888D01*
X407012Y730245D01*
X414588Y730245D01*
X419945Y724888D01*
X419945Y717312D01*
X414588Y711955D01*
X407012Y711955D01*
G37*
%LPD*%
%LPC*%
G36*
X330812Y711955D02*
X330812Y711955D01*
X325455Y717312D01*
X325455Y724888D01*
X330812Y730245D01*
X338388Y730245D01*
X343745Y724888D01*
X343745Y717312D01*
X338388Y711955D01*
X330812Y711955D01*
G37*
%LPD*%
%LPC*%
G36*
X356212Y711955D02*
X356212Y711955D01*
X350855Y717312D01*
X350855Y724888D01*
X356212Y730245D01*
X363788Y730245D01*
X369145Y724888D01*
X369145Y717312D01*
X363788Y711955D01*
X356212Y711955D01*
G37*
%LPD*%
%LPC*%
G36*
X305412Y711955D02*
X305412Y711955D01*
X300055Y717312D01*
X300055Y724888D01*
X305412Y730245D01*
X312988Y730245D01*
X318345Y724888D01*
X318345Y717312D01*
X312988Y711955D01*
X305412Y711955D01*
G37*
%LPD*%
%LPC*%
G36*
X280012Y711955D02*
X280012Y711955D01*
X274655Y717312D01*
X274655Y724888D01*
X280012Y730245D01*
X287588Y730245D01*
X292945Y724888D01*
X292945Y717312D01*
X287588Y711955D01*
X280012Y711955D01*
G37*
%LPD*%
%LPC*%
G36*
X254612Y711955D02*
X254612Y711955D01*
X249255Y717312D01*
X249255Y724888D01*
X254612Y730245D01*
X262188Y730245D01*
X267545Y724888D01*
X267545Y717312D01*
X262188Y711955D01*
X254612Y711955D01*
G37*
%LPD*%
%LPC*%
G36*
X178412Y711955D02*
X178412Y711955D01*
X173055Y717312D01*
X173055Y724888D01*
X178412Y730245D01*
X185988Y730245D01*
X191345Y724888D01*
X191345Y717312D01*
X185988Y711955D01*
X178412Y711955D01*
G37*
%LPD*%
%LPC*%
G36*
X153012Y711955D02*
X153012Y711955D01*
X147655Y717312D01*
X147655Y724888D01*
X153012Y730245D01*
X160588Y730245D01*
X165945Y724888D01*
X165945Y717312D01*
X160588Y711955D01*
X153012Y711955D01*
G37*
%LPD*%
%LPC*%
G36*
X127612Y711955D02*
X127612Y711955D01*
X122255Y717312D01*
X122255Y724888D01*
X127612Y730245D01*
X135188Y730245D01*
X140545Y724888D01*
X140545Y717312D01*
X135188Y711955D01*
X127612Y711955D01*
G37*
%LPD*%
%LPC*%
G36*
X534012Y711955D02*
X534012Y711955D01*
X528655Y717312D01*
X528655Y724888D01*
X534012Y730245D01*
X541588Y730245D01*
X546945Y724888D01*
X546945Y717312D01*
X541588Y711955D01*
X534012Y711955D01*
G37*
%LPD*%
%LPC*%
G36*
X508612Y711955D02*
X508612Y711955D01*
X503255Y717312D01*
X503255Y724888D01*
X508612Y730245D01*
X516188Y730245D01*
X521545Y724888D01*
X521545Y717312D01*
X516188Y711955D01*
X508612Y711955D01*
G37*
%LPD*%
%LPC*%
G36*
X483212Y711955D02*
X483212Y711955D01*
X477855Y717312D01*
X477855Y724888D01*
X483212Y730245D01*
X490788Y730245D01*
X496145Y724888D01*
X496145Y717312D01*
X490788Y711955D01*
X483212Y711955D01*
G37*
%LPD*%
%LPC*%
G36*
X457812Y711955D02*
X457812Y711955D01*
X452455Y717312D01*
X452455Y724888D01*
X457812Y730245D01*
X465388Y730245D01*
X470745Y724888D01*
X470745Y717312D01*
X465388Y711955D01*
X457812Y711955D01*
G37*
%LPD*%
%LPC*%
G36*
X178412Y483355D02*
X178412Y483355D01*
X173055Y488712D01*
X173055Y496288D01*
X178412Y501645D01*
X185988Y501645D01*
X191345Y496288D01*
X191345Y488712D01*
X185988Y483355D01*
X178412Y483355D01*
G37*
%LPD*%
%LPC*%
G36*
X534012Y483355D02*
X534012Y483355D01*
X528655Y488712D01*
X528655Y496288D01*
X534012Y501645D01*
X541588Y501645D01*
X546945Y496288D01*
X546945Y488712D01*
X541588Y483355D01*
X534012Y483355D01*
G37*
%LPD*%
%LPC*%
G36*
X483212Y483355D02*
X483212Y483355D01*
X477855Y488712D01*
X477855Y496288D01*
X483212Y501645D01*
X490788Y501645D01*
X496145Y496288D01*
X496145Y488712D01*
X490788Y483355D01*
X483212Y483355D01*
G37*
%LPD*%
%LPC*%
G36*
X457812Y483355D02*
X457812Y483355D01*
X452455Y488712D01*
X452455Y496288D01*
X457812Y501645D01*
X465388Y501645D01*
X470745Y496288D01*
X470745Y488712D01*
X465388Y483355D01*
X457812Y483355D01*
G37*
%LPD*%
%LPC*%
G36*
X432412Y483355D02*
X432412Y483355D01*
X427055Y488712D01*
X427055Y496288D01*
X432412Y501645D01*
X439988Y501645D01*
X445345Y496288D01*
X445345Y488712D01*
X439988Y483355D01*
X432412Y483355D01*
G37*
%LPD*%
%LPC*%
G36*
X407012Y483355D02*
X407012Y483355D01*
X401655Y488712D01*
X401655Y496288D01*
X407012Y501645D01*
X414588Y501645D01*
X419945Y496288D01*
X419945Y488712D01*
X414588Y483355D01*
X407012Y483355D01*
G37*
%LPD*%
%LPC*%
G36*
X381612Y483355D02*
X381612Y483355D01*
X376255Y488712D01*
X376255Y496288D01*
X381612Y501645D01*
X389188Y501645D01*
X394545Y496288D01*
X394545Y488712D01*
X389188Y483355D01*
X381612Y483355D01*
G37*
%LPD*%
%LPC*%
G36*
X356212Y483355D02*
X356212Y483355D01*
X350855Y488712D01*
X350855Y496288D01*
X356212Y501645D01*
X363788Y501645D01*
X369145Y496288D01*
X369145Y488712D01*
X363788Y483355D01*
X356212Y483355D01*
G37*
%LPD*%
%LPC*%
G36*
X330812Y483355D02*
X330812Y483355D01*
X325455Y488712D01*
X325455Y496288D01*
X330812Y501645D01*
X338388Y501645D01*
X343745Y496288D01*
X343745Y488712D01*
X338388Y483355D01*
X330812Y483355D01*
G37*
%LPD*%
%LPC*%
G36*
X229212Y483355D02*
X229212Y483355D01*
X223855Y488712D01*
X223855Y496288D01*
X229212Y501645D01*
X236788Y501645D01*
X242145Y496288D01*
X242145Y488712D01*
X236788Y483355D01*
X229212Y483355D01*
G37*
%LPD*%
%LPC*%
G36*
X508612Y483355D02*
X508612Y483355D01*
X503255Y488712D01*
X503255Y496288D01*
X508612Y501645D01*
X516188Y501645D01*
X521545Y496288D01*
X521545Y488712D01*
X516188Y483355D01*
X508612Y483355D01*
G37*
%LPD*%
%LPC*%
G36*
X203812Y483355D02*
X203812Y483355D01*
X198455Y488712D01*
X198455Y496288D01*
X203812Y501645D01*
X211388Y501645D01*
X216745Y496288D01*
X216745Y488712D01*
X211388Y483355D01*
X203812Y483355D01*
G37*
%LPD*%
%LPC*%
G36*
X330812Y457955D02*
X330812Y457955D01*
X325455Y463312D01*
X325455Y470888D01*
X330812Y476245D01*
X338388Y476245D01*
X343745Y470888D01*
X343745Y463312D01*
X338388Y457955D01*
X330812Y457955D01*
G37*
%LPD*%
%LPC*%
G36*
X153012Y483355D02*
X153012Y483355D01*
X147655Y488712D01*
X147655Y496288D01*
X153012Y501645D01*
X160588Y501645D01*
X165945Y496288D01*
X165945Y488712D01*
X160588Y483355D01*
X153012Y483355D01*
G37*
%LPD*%
%LPC*%
G36*
X127612Y483355D02*
X127612Y483355D01*
X122255Y488712D01*
X122255Y496288D01*
X127612Y501645D01*
X135188Y501645D01*
X140545Y496288D01*
X140545Y488712D01*
X135188Y483355D01*
X127612Y483355D01*
G37*
%LPD*%
%LPC*%
G36*
X559412Y483355D02*
X559412Y483355D01*
X554055Y488712D01*
X554055Y496288D01*
X559412Y501645D01*
X566988Y501645D01*
X572345Y496288D01*
X572345Y488712D01*
X566988Y483355D01*
X559412Y483355D01*
G37*
%LPD*%
%LPC*%
G36*
X381612Y457955D02*
X381612Y457955D01*
X376255Y463312D01*
X376255Y470888D01*
X381612Y476245D01*
X389188Y476245D01*
X394545Y470888D01*
X394545Y463312D01*
X389188Y457955D01*
X381612Y457955D01*
G37*
%LPD*%
%LPC*%
G36*
X356212Y457955D02*
X356212Y457955D01*
X350855Y463312D01*
X350855Y470888D01*
X356212Y476245D01*
X363788Y476245D01*
X369145Y470888D01*
X369145Y463312D01*
X363788Y457955D01*
X356212Y457955D01*
G37*
%LPD*%
%LPC*%
G36*
X178412Y457955D02*
X178412Y457955D01*
X173055Y463312D01*
X173055Y470888D01*
X178412Y476245D01*
X185988Y476245D01*
X191345Y470888D01*
X191345Y463312D01*
X185988Y457955D01*
X178412Y457955D01*
G37*
%LPD*%
%LPC*%
G36*
X153012Y457955D02*
X153012Y457955D01*
X147655Y463312D01*
X147655Y470888D01*
X153012Y476245D01*
X160588Y476245D01*
X165945Y470888D01*
X165945Y463312D01*
X160588Y457955D01*
X153012Y457955D01*
G37*
%LPD*%
%LPC*%
G36*
X127612Y457955D02*
X127612Y457955D01*
X122255Y463312D01*
X122255Y470888D01*
X127612Y476245D01*
X135188Y476245D01*
X140545Y470888D01*
X140545Y463312D01*
X135188Y457955D01*
X127612Y457955D01*
G37*
%LPD*%
%LPC*%
G36*
X457812Y457955D02*
X457812Y457955D01*
X452455Y463312D01*
X452455Y470888D01*
X457812Y476245D01*
X465388Y476245D01*
X470745Y470888D01*
X470745Y463312D01*
X465388Y457955D01*
X457812Y457955D01*
G37*
%LPD*%
%LPC*%
G36*
X203812Y457955D02*
X203812Y457955D01*
X198455Y463312D01*
X198455Y470888D01*
X203812Y476245D01*
X211388Y476245D01*
X216745Y470888D01*
X216745Y463312D01*
X211388Y457955D01*
X203812Y457955D01*
G37*
%LPD*%
%LPC*%
G36*
X229212Y457955D02*
X229212Y457955D01*
X223855Y463312D01*
X223855Y470888D01*
X229212Y476245D01*
X236788Y476245D01*
X242145Y470888D01*
X242145Y463312D01*
X236788Y457955D01*
X229212Y457955D01*
G37*
%LPD*%
%LPC*%
G36*
X254612Y457955D02*
X254612Y457955D01*
X249255Y463312D01*
X249255Y470888D01*
X254612Y476245D01*
X262188Y476245D01*
X267545Y470888D01*
X267545Y463312D01*
X262188Y457955D01*
X254612Y457955D01*
G37*
%LPD*%
%LPC*%
G36*
X534012Y457955D02*
X534012Y457955D01*
X528655Y463312D01*
X528655Y470888D01*
X534012Y476245D01*
X541588Y476245D01*
X546945Y470888D01*
X546945Y463312D01*
X541588Y457955D01*
X534012Y457955D01*
G37*
%LPD*%
%LPC*%
G36*
X508612Y457955D02*
X508612Y457955D01*
X503255Y463312D01*
X503255Y470888D01*
X508612Y476245D01*
X516188Y476245D01*
X521545Y470888D01*
X521545Y463312D01*
X516188Y457955D01*
X508612Y457955D01*
G37*
%LPD*%
%LPC*%
G36*
X483212Y457955D02*
X483212Y457955D01*
X477855Y463312D01*
X477855Y470888D01*
X483212Y476245D01*
X490788Y476245D01*
X496145Y470888D01*
X496145Y463312D01*
X490788Y457955D01*
X483212Y457955D01*
G37*
%LPD*%
%LPC*%
G36*
X432412Y457955D02*
X432412Y457955D01*
X427055Y463312D01*
X427055Y470888D01*
X432412Y476245D01*
X439988Y476245D01*
X445345Y470888D01*
X445345Y463312D01*
X439988Y457955D01*
X432412Y457955D01*
G37*
%LPD*%
%LPC*%
G36*
X709381Y600455D02*
X709381Y600455D01*
X706020Y601847D01*
X703447Y604420D01*
X702055Y607781D01*
X702055Y611419D01*
X703447Y614780D01*
X706020Y617353D01*
X709381Y618745D01*
X713019Y618745D01*
X716380Y617353D01*
X718953Y614780D01*
X720345Y611419D01*
X720345Y607781D01*
X718953Y604420D01*
X716380Y601847D01*
X713019Y600455D01*
X709381Y600455D01*
G37*
%LPD*%
%LPC*%
G36*
X803361Y460755D02*
X803361Y460755D01*
X800000Y462147D01*
X797427Y464720D01*
X796035Y468081D01*
X796035Y471719D01*
X797427Y475080D01*
X800000Y477653D01*
X803361Y479045D01*
X806999Y479045D01*
X810360Y477653D01*
X812933Y475080D01*
X814325Y471719D01*
X814325Y468081D01*
X812933Y464720D01*
X810360Y462147D01*
X806999Y460755D01*
X803361Y460755D01*
G37*
%LPD*%
%LPC*%
G36*
X879561Y460755D02*
X879561Y460755D01*
X876200Y462147D01*
X873627Y464720D01*
X872235Y468081D01*
X872235Y471719D01*
X873627Y475080D01*
X876200Y477653D01*
X879561Y479045D01*
X883199Y479045D01*
X886560Y477653D01*
X889133Y475080D01*
X890525Y471719D01*
X890525Y468081D01*
X889133Y464720D01*
X886560Y462147D01*
X883199Y460755D01*
X879561Y460755D01*
G37*
%LPD*%
%LPC*%
G36*
X854161Y460755D02*
X854161Y460755D01*
X850800Y462147D01*
X848227Y464720D01*
X846835Y468081D01*
X846835Y471719D01*
X848227Y475080D01*
X850800Y477653D01*
X854161Y479045D01*
X857799Y479045D01*
X861160Y477653D01*
X863733Y475080D01*
X865125Y471719D01*
X865125Y468081D01*
X863733Y464720D01*
X861160Y462147D01*
X857799Y460755D01*
X854161Y460755D01*
G37*
%LPD*%
%LPC*%
G36*
X785581Y600455D02*
X785581Y600455D01*
X782220Y601847D01*
X779647Y604420D01*
X778255Y607781D01*
X778255Y611419D01*
X779647Y614780D01*
X782220Y617353D01*
X785581Y618745D01*
X789219Y618745D01*
X792580Y617353D01*
X795153Y614780D01*
X796545Y611419D01*
X796545Y607781D01*
X795153Y604420D01*
X792580Y601847D01*
X789219Y600455D01*
X785581Y600455D01*
G37*
%LPD*%
%LPC*%
G36*
X760181Y600455D02*
X760181Y600455D01*
X756820Y601847D01*
X754247Y604420D01*
X752855Y607781D01*
X752855Y611419D01*
X754247Y614780D01*
X756820Y617353D01*
X760181Y618745D01*
X763819Y618745D01*
X767180Y617353D01*
X769753Y614780D01*
X771145Y611419D01*
X771145Y607781D01*
X769753Y604420D01*
X767180Y601847D01*
X763819Y600455D01*
X760181Y600455D01*
G37*
%LPD*%
%LPC*%
G36*
X734781Y600455D02*
X734781Y600455D01*
X731420Y601847D01*
X728847Y604420D01*
X727455Y607781D01*
X727455Y611419D01*
X728847Y614780D01*
X731420Y617353D01*
X734781Y618745D01*
X738419Y618745D01*
X741780Y617353D01*
X744353Y614780D01*
X745745Y611419D01*
X745745Y607781D01*
X744353Y604420D01*
X741780Y601847D01*
X738419Y600455D01*
X734781Y600455D01*
G37*
%LPD*%
%LPC*%
G36*
X810997Y105235D02*
X810997Y105235D01*
X807665Y106615D01*
X805115Y109165D01*
X803735Y112497D01*
X803735Y116103D01*
X805115Y119435D01*
X807665Y121985D01*
X810997Y123365D01*
X814603Y123365D01*
X817935Y121985D01*
X820485Y119435D01*
X821865Y116103D01*
X821865Y112497D01*
X820485Y109165D01*
X817935Y106615D01*
X814603Y105235D01*
X810997Y105235D01*
G37*
%LPD*%
%LPC*%
G36*
X565797Y633535D02*
X565797Y633535D01*
X562465Y634915D01*
X559915Y637465D01*
X558535Y640797D01*
X558535Y644403D01*
X559915Y647735D01*
X562465Y650285D01*
X565797Y651665D01*
X569403Y651665D01*
X572735Y650285D01*
X575285Y647735D01*
X576665Y644403D01*
X576665Y640797D01*
X575285Y637465D01*
X572735Y634915D01*
X569403Y633535D01*
X565797Y633535D01*
G37*
%LPD*%
%LPC*%
G36*
X514997Y633535D02*
X514997Y633535D01*
X511665Y634915D01*
X509115Y637465D01*
X507735Y640797D01*
X507735Y644403D01*
X509115Y647735D01*
X511665Y650285D01*
X514997Y651665D01*
X518603Y651665D01*
X521935Y650285D01*
X524485Y647735D01*
X525865Y644403D01*
X525865Y640797D01*
X524485Y637465D01*
X521935Y634915D01*
X518603Y633535D01*
X514997Y633535D01*
G37*
%LPD*%
%LPC*%
G36*
X540397Y633535D02*
X540397Y633535D01*
X537065Y634915D01*
X534515Y637465D01*
X533135Y640797D01*
X533135Y644403D01*
X534515Y647735D01*
X537065Y650285D01*
X540397Y651665D01*
X544003Y651665D01*
X547335Y650285D01*
X549885Y647735D01*
X551265Y644403D01*
X551265Y640797D01*
X549885Y637465D01*
X547335Y634915D01*
X544003Y633535D01*
X540397Y633535D01*
G37*
%LPD*%
%LPC*%
G36*
X387997Y633535D02*
X387997Y633535D01*
X384665Y634915D01*
X382115Y637465D01*
X380735Y640797D01*
X380735Y644403D01*
X382115Y647735D01*
X384665Y650285D01*
X387997Y651665D01*
X391603Y651665D01*
X394935Y650285D01*
X397485Y647735D01*
X398865Y644403D01*
X398865Y640797D01*
X397485Y637465D01*
X394935Y634915D01*
X391603Y633535D01*
X387997Y633535D01*
G37*
%LPD*%
%LPC*%
G36*
X413397Y633535D02*
X413397Y633535D01*
X410065Y634915D01*
X407515Y637465D01*
X406135Y640797D01*
X406135Y644403D01*
X407515Y647735D01*
X410065Y650285D01*
X413397Y651665D01*
X417003Y651665D01*
X420335Y650285D01*
X422885Y647735D01*
X424265Y644403D01*
X424265Y640797D01*
X422885Y637465D01*
X420335Y634915D01*
X417003Y633535D01*
X413397Y633535D01*
G37*
%LPD*%
%LPC*%
G36*
X286397Y633535D02*
X286397Y633535D01*
X283065Y634915D01*
X280515Y637465D01*
X279135Y640797D01*
X279135Y644403D01*
X280515Y647735D01*
X283065Y650285D01*
X286397Y651665D01*
X290003Y651665D01*
X293335Y650285D01*
X295885Y647735D01*
X297265Y644403D01*
X297265Y640797D01*
X295885Y637465D01*
X293335Y634915D01*
X290003Y633535D01*
X286397Y633535D01*
G37*
%LPD*%
%LPC*%
G36*
X176397Y105235D02*
X176397Y105235D01*
X173065Y106615D01*
X170515Y109165D01*
X169135Y112497D01*
X169135Y116103D01*
X170515Y119435D01*
X173065Y121985D01*
X176397Y123365D01*
X180003Y123365D01*
X183335Y121985D01*
X185885Y119435D01*
X187265Y116103D01*
X187265Y112497D01*
X185885Y109165D01*
X183335Y106615D01*
X180003Y105235D01*
X176397Y105235D01*
G37*
%LPD*%
%LPC*%
G36*
X201397Y105235D02*
X201397Y105235D01*
X198065Y106615D01*
X195515Y109165D01*
X194135Y112497D01*
X194135Y116103D01*
X195515Y119435D01*
X198065Y121985D01*
X201397Y123365D01*
X205003Y123365D01*
X208335Y121985D01*
X210885Y119435D01*
X212265Y116103D01*
X212265Y112497D01*
X210885Y109165D01*
X208335Y106615D01*
X205003Y105235D01*
X201397Y105235D01*
G37*
%LPD*%
%LPC*%
G36*
X226397Y105235D02*
X226397Y105235D01*
X223065Y106615D01*
X220515Y109165D01*
X219135Y112497D01*
X219135Y116103D01*
X220515Y119435D01*
X223065Y121985D01*
X226397Y123365D01*
X230003Y123365D01*
X233335Y121985D01*
X235885Y119435D01*
X237265Y116103D01*
X237265Y112497D01*
X235885Y109165D01*
X233335Y106615D01*
X230003Y105235D01*
X226397Y105235D01*
G37*
%LPD*%
%LPC*%
G36*
X785997Y105235D02*
X785997Y105235D01*
X782665Y106615D01*
X780115Y109165D01*
X778735Y112497D01*
X778735Y116103D01*
X780115Y119435D01*
X782665Y121985D01*
X785997Y123365D01*
X789603Y123365D01*
X792935Y121985D01*
X795485Y119435D01*
X796865Y116103D01*
X796865Y112497D01*
X795485Y109165D01*
X792935Y106615D01*
X789603Y105235D01*
X785997Y105235D01*
G37*
%LPD*%
%LPC*%
G36*
X448039Y155339D02*
X448039Y155339D01*
X448039Y165601D01*
X448554Y165520D01*
X450506Y164885D01*
X452335Y163953D01*
X453995Y162747D01*
X455447Y161295D01*
X456653Y159635D01*
X457585Y157806D01*
X458220Y155854D01*
X458301Y155339D01*
X448039Y155339D01*
G37*
%LPD*%
%LPC*%
G36*
X432699Y155339D02*
X432699Y155339D01*
X432780Y155854D01*
X433415Y157806D01*
X434347Y159635D01*
X435553Y161295D01*
X437005Y162747D01*
X438665Y163953D01*
X440494Y164885D01*
X442446Y165520D01*
X442961Y165601D01*
X442961Y155339D01*
X432699Y155339D01*
G37*
%LPD*%
%LPC*%
G36*
X448039Y150261D02*
X448039Y150261D01*
X458301Y150261D01*
X458220Y149746D01*
X457585Y147794D01*
X456653Y145965D01*
X455447Y144305D01*
X453995Y142853D01*
X452335Y141647D01*
X450506Y140715D01*
X448554Y140080D01*
X448039Y139999D01*
X448039Y150261D01*
G37*
%LPD*%
%LPC*%
G36*
X442446Y140080D02*
X442446Y140080D01*
X440494Y140715D01*
X438665Y141647D01*
X437005Y142853D01*
X435553Y144305D01*
X434347Y145965D01*
X433415Y147794D01*
X432780Y149746D01*
X432699Y150261D01*
X442961Y150261D01*
X442961Y139999D01*
X442446Y140080D01*
G37*
%LPD*%
%LPC*%
G36*
X189099Y645099D02*
X189099Y645099D01*
X189099Y652681D01*
X194474Y652681D01*
X195121Y652508D01*
X195700Y652173D01*
X196173Y651700D01*
X196508Y651121D01*
X196681Y650474D01*
X196681Y645099D01*
X189099Y645099D01*
G37*
%LPD*%
%LPC*%
G36*
X176519Y645099D02*
X176519Y645099D01*
X176519Y650474D01*
X176692Y651121D01*
X177027Y651700D01*
X177500Y652173D01*
X178079Y652508D01*
X178726Y652681D01*
X184101Y652681D01*
X184101Y645099D01*
X176519Y645099D01*
G37*
%LPD*%
%LPC*%
G36*
X189099Y632519D02*
X189099Y632519D01*
X189099Y640101D01*
X196681Y640101D01*
X196681Y634726D01*
X196508Y634079D01*
X196173Y633500D01*
X195700Y633027D01*
X195121Y632692D01*
X194474Y632519D01*
X189099Y632519D01*
G37*
%LPD*%
%LPC*%
G36*
X178726Y632519D02*
X178726Y632519D01*
X178079Y632692D01*
X177500Y633027D01*
X177027Y633500D01*
X176692Y634079D01*
X176519Y634726D01*
X176519Y640101D01*
X184101Y640101D01*
X184101Y632519D01*
X178726Y632519D01*
G37*
%LPD*%
%LPC*%
G36*
X980122Y141922D02*
X980122Y141922D01*
X980122Y150278D01*
X980428Y150230D01*
X982044Y149705D01*
X983558Y148933D01*
X983807Y148752D01*
X983808Y148752D01*
X984933Y147935D01*
X986135Y146733D01*
X987133Y145358D01*
X987905Y143844D01*
X988430Y142228D01*
X988478Y141922D01*
X980122Y141922D01*
G37*
%LPD*%
%LPC*%
G36*
X967422Y497522D02*
X967422Y497522D01*
X967422Y505878D01*
X967728Y505830D01*
X969344Y505305D01*
X970858Y504533D01*
X972233Y503535D01*
X973435Y502333D01*
X974433Y500958D01*
X975205Y499444D01*
X975730Y497828D01*
X975778Y497522D01*
X967422Y497522D01*
G37*
%LPD*%
%LPC*%
G36*
X662622Y40322D02*
X662622Y40322D01*
X662622Y48678D01*
X662928Y48630D01*
X664544Y48105D01*
X666058Y47333D01*
X667433Y46335D01*
X668635Y45133D01*
X669633Y43758D01*
X670405Y42244D01*
X670930Y40628D01*
X670978Y40322D01*
X662622Y40322D01*
G37*
%LPD*%
%LPC*%
G36*
X383222Y40322D02*
X383222Y40322D01*
X383222Y48678D01*
X383528Y48630D01*
X385144Y48105D01*
X386658Y47333D01*
X388033Y46335D01*
X389235Y45133D01*
X390233Y43758D01*
X391005Y42244D01*
X391530Y40628D01*
X391578Y40322D01*
X383222Y40322D01*
G37*
%LPD*%
%LPC*%
G36*
X967422Y493078D02*
X967422Y493078D01*
X975778Y493078D01*
X975730Y492772D01*
X975205Y491156D01*
X974433Y489642D01*
X973435Y488267D01*
X972233Y487065D01*
X970858Y486067D01*
X969344Y485295D01*
X967728Y484770D01*
X967422Y484722D01*
X967422Y493078D01*
G37*
%LPD*%
%LPC*%
G36*
X383222Y35878D02*
X383222Y35878D01*
X391578Y35878D01*
X391530Y35572D01*
X391005Y33956D01*
X390233Y32442D01*
X389235Y31067D01*
X388033Y29865D01*
X386658Y28867D01*
X385144Y28095D01*
X383528Y27570D01*
X383222Y27522D01*
X383222Y35878D01*
G37*
%LPD*%
%LPC*%
G36*
X662622Y35878D02*
X662622Y35878D01*
X670978Y35878D01*
X670930Y35572D01*
X670405Y33956D01*
X669633Y32442D01*
X668635Y31067D01*
X667433Y29865D01*
X666058Y28867D01*
X664544Y28095D01*
X662928Y27570D01*
X662622Y27522D01*
X662622Y35878D01*
G37*
%LPD*%
%LPC*%
G36*
X649822Y40322D02*
X649822Y40322D01*
X649870Y40628D01*
X650395Y42244D01*
X651167Y43758D01*
X652165Y45133D01*
X653367Y46335D01*
X654742Y47333D01*
X656256Y48105D01*
X657872Y48630D01*
X658178Y48678D01*
X658178Y40322D01*
X649822Y40322D01*
G37*
%LPD*%
%LPC*%
G36*
X980122Y137478D02*
X980122Y137478D01*
X988478Y137478D01*
X988430Y137172D01*
X987905Y135556D01*
X987133Y134042D01*
X986135Y132667D01*
X984933Y131465D01*
X983558Y130467D01*
X982044Y129695D01*
X980428Y129170D01*
X980122Y129122D01*
X980122Y137478D01*
G37*
%LPD*%
%LPC*%
G36*
X954622Y497522D02*
X954622Y497522D01*
X954670Y497828D01*
X955195Y499444D01*
X955967Y500958D01*
X956965Y502333D01*
X958167Y503535D01*
X959542Y504533D01*
X961056Y505305D01*
X962672Y505830D01*
X962978Y505878D01*
X962978Y497522D01*
X954622Y497522D01*
G37*
%LPD*%
%LPC*%
G36*
X370422Y40322D02*
X370422Y40322D01*
X370470Y40628D01*
X370995Y42244D01*
X371767Y43758D01*
X372765Y45133D01*
X373967Y46335D01*
X375342Y47333D01*
X376856Y48105D01*
X378472Y48630D01*
X378778Y48678D01*
X378778Y40322D01*
X370422Y40322D01*
G37*
%LPD*%
%LPC*%
G36*
X967322Y141922D02*
X967322Y141922D01*
X967370Y142228D01*
X967895Y143844D01*
X968667Y145358D01*
X969665Y146733D01*
X970867Y147935D01*
X972242Y148933D01*
X973756Y149705D01*
X975372Y150230D01*
X975678Y150278D01*
X975678Y141922D01*
X967322Y141922D01*
G37*
%LPD*%
%LPC*%
G36*
X657872Y27570D02*
X657872Y27570D01*
X656256Y28095D01*
X654742Y28867D01*
X653367Y29865D01*
X652165Y31067D01*
X651167Y32442D01*
X650395Y33956D01*
X649870Y35572D01*
X649822Y35878D01*
X658178Y35878D01*
X658178Y27522D01*
X657872Y27570D01*
G37*
%LPD*%
%LPC*%
G36*
X378472Y27570D02*
X378472Y27570D01*
X376856Y28095D01*
X375342Y28867D01*
X373967Y29865D01*
X372765Y31067D01*
X371767Y32442D01*
X370995Y33956D01*
X370470Y35572D01*
X370422Y35878D01*
X378778Y35878D01*
X378778Y27522D01*
X378472Y27570D01*
G37*
%LPD*%
%LPC*%
G36*
X975372Y129170D02*
X975372Y129170D01*
X973756Y129695D01*
X972242Y130467D01*
X970867Y131465D01*
X969665Y132667D01*
X968667Y134042D01*
X967895Y135556D01*
X967370Y137172D01*
X967322Y137478D01*
X975678Y137478D01*
X975678Y129122D01*
X975372Y129170D01*
G37*
%LPD*%
%LPC*%
G36*
X962672Y484770D02*
X962672Y484770D01*
X961056Y485295D01*
X959542Y486067D01*
X958167Y487065D01*
X956965Y488267D01*
X955967Y489642D01*
X955195Y491156D01*
X954670Y492772D01*
X954622Y493078D01*
X962978Y493078D01*
X962978Y484722D01*
X962672Y484770D01*
G37*
%LPD*%
%LPC*%
G36*
X311422Y494722D02*
X311422Y494722D01*
X311422Y502661D01*
X313409Y502661D01*
X319361Y496709D01*
X319361Y494722D01*
X311422Y494722D01*
G37*
%LPD*%
%LPC*%
G36*
X387622Y723322D02*
X387622Y723322D01*
X387622Y731261D01*
X389609Y731261D01*
X395561Y725309D01*
X395561Y723322D01*
X387622Y723322D01*
G37*
%LPD*%
%LPC*%
G36*
X387622Y710939D02*
X387622Y710939D01*
X387622Y718878D01*
X395561Y718878D01*
X395561Y716891D01*
X389609Y710939D01*
X387622Y710939D01*
G37*
%LPD*%
%LPC*%
G36*
X375239Y723322D02*
X375239Y723322D01*
X375239Y725309D01*
X381191Y731261D01*
X383178Y731261D01*
X383178Y723322D01*
X375239Y723322D01*
G37*
%LPD*%
%LPC*%
G36*
X311422Y482339D02*
X311422Y482339D01*
X311422Y490278D01*
X319361Y490278D01*
X319361Y488291D01*
X313409Y482339D01*
X311422Y482339D01*
G37*
%LPD*%
%LPC*%
G36*
X299039Y494722D02*
X299039Y494722D01*
X299039Y496709D01*
X304991Y502661D01*
X306978Y502661D01*
X306978Y494722D01*
X299039Y494722D01*
G37*
%LPD*%
%LPC*%
G36*
X381191Y710939D02*
X381191Y710939D01*
X375239Y716891D01*
X375239Y718878D01*
X383178Y718878D01*
X383178Y710939D01*
X381191Y710939D01*
G37*
%LPD*%
%LPC*%
G36*
X304991Y482339D02*
X304991Y482339D01*
X299039Y488291D01*
X299039Y490278D01*
X306978Y490278D01*
X306978Y482339D01*
X304991Y482339D01*
G37*
%LPD*%
%LPC*%
G36*
X833119Y472439D02*
X833119Y472439D01*
X833119Y479759D01*
X834480Y479316D01*
X835905Y478590D01*
X837199Y477650D01*
X838330Y476519D01*
X839270Y475225D01*
X839996Y473800D01*
X840439Y472439D01*
X833119Y472439D01*
G37*
%LPD*%
%LPC*%
G36*
X820721Y472439D02*
X820721Y472439D01*
X821164Y473800D01*
X821890Y475225D01*
X822830Y476519D01*
X823961Y477650D01*
X825255Y478590D01*
X826680Y479316D01*
X828041Y479759D01*
X828041Y472439D01*
X820721Y472439D01*
G37*
%LPD*%
%LPC*%
G36*
X833119Y467361D02*
X833119Y467361D01*
X840439Y467361D01*
X839996Y466000D01*
X839270Y464575D01*
X838330Y463281D01*
X837199Y462150D01*
X835905Y461210D01*
X834480Y460484D01*
X833119Y460041D01*
X833119Y467361D01*
G37*
%LPD*%
%LPC*%
G36*
X826680Y460484D02*
X826680Y460484D01*
X825255Y461210D01*
X824483Y461770D01*
X824483Y461771D01*
X823961Y462150D01*
X822830Y463281D01*
X821890Y464575D01*
X821164Y466000D01*
X820721Y467361D01*
X828041Y467361D01*
X828041Y460041D01*
X826680Y460484D01*
G37*
%LPD*%
%LPC*%
G36*
X840299Y116799D02*
X840299Y116799D01*
X840299Y124087D01*
X841670Y123642D01*
X843083Y122922D01*
X844367Y121989D01*
X845489Y120867D01*
X846422Y119583D01*
X847142Y118170D01*
X847587Y116799D01*
X840299Y116799D01*
G37*
%LPD*%
%LPC*%
G36*
X828013Y116799D02*
X828013Y116799D01*
X828458Y118170D01*
X829178Y119583D01*
X830111Y120867D01*
X831233Y121989D01*
X832517Y122922D01*
X833930Y123642D01*
X835301Y124087D01*
X835301Y116799D01*
X828013Y116799D01*
G37*
%LPD*%
%LPC*%
G36*
X840299Y111801D02*
X840299Y111801D01*
X847587Y111801D01*
X847142Y110430D01*
X846422Y109017D01*
X845489Y107733D01*
X844367Y106611D01*
X843083Y105678D01*
X841670Y104958D01*
X840299Y104513D01*
X840299Y111801D01*
G37*
%LPD*%
%LPC*%
G36*
X833930Y104958D02*
X833930Y104958D01*
X832517Y105678D01*
X831233Y106611D01*
X830111Y107733D01*
X829178Y109017D01*
X828458Y110430D01*
X828013Y111801D01*
X835301Y111801D01*
X835301Y104513D01*
X833930Y104958D01*
G37*
%LPD*%
%LPC*%
G36*
X445499Y152799D02*
X445499Y152799D01*
X445499Y152801D01*
X445501Y152801D01*
X445501Y152799D01*
X445499Y152799D01*
G37*
%LPD*%
%LPC*%
G36*
X830579Y469899D02*
X830579Y469899D01*
X830579Y469901D01*
X830581Y469901D01*
X830581Y469899D01*
X830579Y469899D01*
G37*
%LPD*%
D10*
X563200Y467100D03*
D11*
X563200Y492500D03*
X537800Y467100D03*
X537800Y492500D03*
X512400Y467100D03*
X512400Y492500D03*
X487000Y467100D03*
X487000Y492500D03*
X461600Y467100D03*
X461600Y492500D03*
X436200Y467100D03*
X436200Y492500D03*
X410800Y467100D03*
X410800Y492500D03*
X385400Y467100D03*
X385400Y492500D03*
X360000Y467100D03*
X360000Y492500D03*
X334600Y467100D03*
X334600Y492500D03*
X309200Y467100D03*
X309200Y492500D03*
X283800Y467100D03*
X283800Y492500D03*
X258400Y467100D03*
X258400Y492500D03*
X233000Y467100D03*
X233000Y492500D03*
X207600Y467100D03*
X207600Y492500D03*
X182200Y467100D03*
X182200Y492500D03*
X156800Y467100D03*
X156800Y492500D03*
X131400Y467100D03*
X131400Y492500D03*
D10*
X563200Y721100D03*
D11*
X563200Y746500D03*
X537800Y721100D03*
X537800Y746500D03*
X512400Y721100D03*
X512400Y746500D03*
X487000Y721100D03*
X487000Y746500D03*
X461600Y721100D03*
X461600Y746500D03*
X436200Y721100D03*
X436200Y746500D03*
X410800Y721100D03*
X410800Y746500D03*
X385400Y721100D03*
X385400Y746500D03*
X360000Y721100D03*
X360000Y746500D03*
X334600Y721100D03*
X334600Y746500D03*
X309200Y721100D03*
X309200Y746500D03*
X283800Y721100D03*
X283800Y746500D03*
X258400Y721100D03*
X258400Y746500D03*
X233000Y721100D03*
X233000Y746500D03*
X207600Y721100D03*
X207600Y746500D03*
X182200Y721100D03*
X182200Y746500D03*
X156800Y721100D03*
X156800Y746500D03*
X131400Y721100D03*
X131400Y746500D03*
D12*
X979400Y731440D02*
X979400Y716360D01*
X919400Y716360D02*
X919400Y731440D01*
X941860Y770900D02*
X956940Y770900D01*
D13*
X787400Y609600D03*
X762000Y609600D03*
X736600Y609600D03*
X711200Y609600D03*
X881380Y469900D03*
X855980Y469900D03*
X830580Y469900D03*
X805180Y469900D03*
D14*
X977900Y165100D03*
X977900Y139700D03*
X977900Y114300D03*
X977900Y88900D03*
X977900Y63500D03*
X977900Y38100D03*
D15*
X638338Y318462D02*
X624462Y318462D01*
X624462Y321838D01*
X638338Y321838D01*
X638338Y318462D01*
X638338Y319531D02*
X624462Y319531D01*
X624462Y320600D02*
X638338Y320600D01*
X638338Y321669D02*
X624462Y321669D01*
X624462Y324962D02*
X638338Y324962D01*
X624462Y324962D02*
X624462Y328338D01*
X638338Y328338D01*
X638338Y324962D01*
X638338Y326031D02*
X624462Y326031D01*
X624462Y327100D02*
X638338Y327100D01*
X638338Y328169D02*
X624462Y328169D01*
X624462Y331462D02*
X638338Y331462D01*
X624462Y331462D02*
X624462Y334838D01*
X638338Y334838D01*
X638338Y331462D01*
X638338Y332531D02*
X624462Y332531D01*
X624462Y333600D02*
X638338Y333600D01*
X638338Y334669D02*
X624462Y334669D01*
X624462Y337962D02*
X638338Y337962D01*
X624462Y337962D02*
X624462Y341338D01*
X638338Y341338D01*
X638338Y337962D01*
X638338Y339031D02*
X624462Y339031D01*
X624462Y340100D02*
X638338Y340100D01*
X638338Y341169D02*
X624462Y341169D01*
X624462Y344462D02*
X638338Y344462D01*
X624462Y344462D02*
X624462Y347838D01*
X638338Y347838D01*
X638338Y344462D01*
X638338Y345531D02*
X624462Y345531D01*
X624462Y346600D02*
X638338Y346600D01*
X638338Y347669D02*
X624462Y347669D01*
X624462Y350962D02*
X638338Y350962D01*
X624462Y350962D02*
X624462Y354338D01*
X638338Y354338D01*
X638338Y350962D01*
X638338Y352031D02*
X624462Y352031D01*
X624462Y353100D02*
X638338Y353100D01*
X638338Y354169D02*
X624462Y354169D01*
X624462Y357462D02*
X638338Y357462D01*
X624462Y357462D02*
X624462Y360838D01*
X638338Y360838D01*
X638338Y357462D01*
X638338Y358531D02*
X624462Y358531D01*
X624462Y359600D02*
X638338Y359600D01*
X638338Y360669D02*
X624462Y360669D01*
X624462Y363962D02*
X638338Y363962D01*
X624462Y363962D02*
X624462Y367338D01*
X638338Y367338D01*
X638338Y363962D01*
X638338Y365031D02*
X624462Y365031D01*
X624462Y366100D02*
X638338Y366100D01*
X638338Y367169D02*
X624462Y367169D01*
X682462Y363962D02*
X696338Y363962D01*
X682462Y363962D02*
X682462Y367338D01*
X696338Y367338D01*
X696338Y363962D01*
X696338Y365031D02*
X682462Y365031D01*
X682462Y366100D02*
X696338Y366100D01*
X696338Y367169D02*
X682462Y367169D01*
X682462Y357462D02*
X696338Y357462D01*
X682462Y357462D02*
X682462Y360838D01*
X696338Y360838D01*
X696338Y357462D01*
X696338Y358531D02*
X682462Y358531D01*
X682462Y359600D02*
X696338Y359600D01*
X696338Y360669D02*
X682462Y360669D01*
X682462Y350962D02*
X696338Y350962D01*
X682462Y350962D02*
X682462Y354338D01*
X696338Y354338D01*
X696338Y350962D01*
X696338Y352031D02*
X682462Y352031D01*
X682462Y353100D02*
X696338Y353100D01*
X696338Y354169D02*
X682462Y354169D01*
X682462Y344462D02*
X696338Y344462D01*
X682462Y344462D02*
X682462Y347838D01*
X696338Y347838D01*
X696338Y344462D01*
X696338Y345531D02*
X682462Y345531D01*
X682462Y346600D02*
X696338Y346600D01*
X696338Y347669D02*
X682462Y347669D01*
X682462Y337962D02*
X696338Y337962D01*
X682462Y337962D02*
X682462Y341338D01*
X696338Y341338D01*
X696338Y337962D01*
X696338Y339031D02*
X682462Y339031D01*
X682462Y340100D02*
X696338Y340100D01*
X696338Y341169D02*
X682462Y341169D01*
X682462Y331462D02*
X696338Y331462D01*
X682462Y331462D02*
X682462Y334838D01*
X696338Y334838D01*
X696338Y331462D01*
X696338Y332531D02*
X682462Y332531D01*
X682462Y333600D02*
X696338Y333600D01*
X696338Y334669D02*
X682462Y334669D01*
X682462Y324962D02*
X696338Y324962D01*
X682462Y324962D02*
X682462Y328338D01*
X696338Y328338D01*
X696338Y324962D01*
X696338Y326031D02*
X682462Y326031D01*
X682462Y327100D02*
X696338Y327100D01*
X696338Y328169D02*
X682462Y328169D01*
X682462Y318462D02*
X696338Y318462D01*
X682462Y318462D02*
X682462Y321838D01*
X696338Y321838D01*
X696338Y318462D01*
X696338Y319531D02*
X682462Y319531D01*
X682462Y320600D02*
X696338Y320600D01*
X696338Y321669D02*
X682462Y321669D01*
D16*
X660400Y342900D03*
D17*
X650400Y324900D03*
X660400Y324900D03*
X670400Y324900D03*
X650400Y336900D03*
X660400Y336900D03*
X670400Y336900D03*
X650400Y348900D03*
X660400Y348900D03*
X670400Y348900D03*
X650400Y360900D03*
X660400Y360900D03*
X670400Y360900D03*
D18*
X186600Y642600D03*
D19*
X212000Y642600D03*
X237400Y642600D03*
X262800Y642600D03*
X288200Y642600D03*
X313600Y642600D03*
X339000Y642600D03*
X364400Y642600D03*
X389800Y642600D03*
X415200Y642600D03*
X440600Y642600D03*
X466000Y642600D03*
X491400Y642600D03*
X516800Y642600D03*
X542200Y642600D03*
X567600Y642600D03*
D20*
X883000Y637600D03*
X133000Y637600D03*
X133000Y327600D03*
X883000Y327600D03*
D19*
X787800Y114300D03*
X812800Y114300D03*
X837800Y114300D03*
D21*
X965200Y546100D03*
D14*
X965200Y520700D03*
X965200Y495300D03*
D22*
X711200Y38100D03*
D14*
X685800Y38100D03*
X660400Y38100D03*
D22*
X330200Y38100D03*
D14*
X355600Y38100D03*
X381000Y38100D03*
D19*
X178200Y114300D03*
X203200Y114300D03*
X228200Y114300D03*
D23*
X570500Y202800D03*
X570500Y152800D03*
X445500Y152800D03*
X445500Y202800D03*
D24*
X689586Y345964D02*
X710954Y345964D01*
X689586Y345964D02*
X689400Y346150D01*
X710954Y345964D02*
X714018Y342900D01*
X723900Y342900D01*
D25*
X723900Y342900D03*
X210820Y784860D03*
D26*
X212000Y708976D02*
X212000Y642600D01*
X212000Y708976D02*
X219284Y716260D01*
X219284Y776396D02*
X210820Y784860D01*
X219284Y776396D02*
X219284Y716260D01*
D25*
X873760Y73660D03*
X955040Y337820D03*
D26*
X622546Y359336D02*
X619836Y362046D01*
X619836Y369254D01*
X647946Y397364D01*
X763416Y397364D01*
X914400Y246380D01*
X914400Y172720D01*
X631400Y359150D02*
X631214Y359336D01*
X622546Y359336D01*
D25*
X914400Y172720D03*
D27*
X619760Y284480D03*
D28*
X621106Y342728D02*
X623072Y344694D01*
X629944Y344694D02*
X631400Y346150D01*
X629944Y344694D02*
X623072Y344694D01*
X621106Y285826D02*
X619760Y284480D01*
X621106Y285826D02*
X621106Y342728D01*
D26*
X422800Y533400D02*
X313600Y642600D01*
X422800Y533400D02*
X530860Y533400D01*
D25*
X530860Y533400D03*
X495300Y523240D03*
D26*
X382160Y523240D01*
X262800Y642600D01*
D25*
X373380Y393700D03*
D26*
X311664Y455416D01*
X304360Y455416D01*
X237400Y530024D02*
X237400Y642600D01*
X237400Y530024D02*
X270084Y497340D01*
X295484Y464292D02*
X304360Y455416D01*
X295484Y464292D02*
X295484Y471940D01*
X286608Y480816D01*
X278960Y480816D01*
X270084Y489692D01*
X270084Y497340D01*
D25*
X419100Y622300D03*
D26*
X454396Y647407D02*
X461193Y654204D01*
X470807Y654204D01*
X427796Y630996D02*
X419100Y622300D01*
X482411Y642600D02*
X491400Y642600D01*
X445407Y630996D02*
X427796Y630996D01*
X470807Y654204D02*
X482411Y642600D01*
X454396Y639985D02*
X445407Y630996D01*
X454396Y639985D02*
X454396Y647407D01*
D25*
X419100Y607060D03*
D26*
X464820Y607060D01*
X466000Y608240D01*
X466000Y642600D01*
D25*
X421640Y566420D03*
D28*
X349334Y638726D01*
X349334Y646881D01*
X345440Y650775D01*
X345440Y678180D01*
X342900Y678180D01*
D25*
X342900Y678180D03*
D28*
X689400Y365650D02*
X707290Y383540D01*
X728980Y383540D01*
D25*
X728980Y383540D03*
X739140Y383540D03*
D28*
X690856Y360606D02*
X689400Y359150D01*
X738280Y383540D02*
X739140Y383540D01*
X715346Y360606D02*
X690856Y360606D01*
X715346Y360606D02*
X738280Y383540D01*
M02*
