G04 EAGLE Gerber RS-274X export*
G75*
%MOMM*%
%FSLAX34Y34*%
%LPD*%
%INSilkscreen Bottom*%
%IPPOS*%
%AMOC8*
5,1,8,0,0,1.08239X$1,22.5*%
G01*
%ADD10R,0.508000X0.508000*%
%ADD11C,0.254000*%
%ADD12C,0.152400*%
%ADD13C,0.101600*%
%ADD14C,0.127000*%
%ADD15C,0.400000*%
%ADD16C,0.076200*%
%ADD17C,0.200000*%


D10*
X563200Y467100D03*
X563200Y492500D03*
X537800Y492500D03*
X537800Y467100D03*
X512400Y492500D03*
X512400Y467100D03*
X487000Y492500D03*
X461600Y492500D03*
X436200Y492500D03*
X487000Y467100D03*
X461600Y467100D03*
X436200Y467100D03*
X410800Y492500D03*
X410800Y467100D03*
X385400Y492500D03*
X385400Y467100D03*
X360000Y492500D03*
X360000Y467100D03*
X334600Y492500D03*
X334600Y467100D03*
X309200Y492500D03*
X309200Y467100D03*
X283800Y492500D03*
X283800Y467100D03*
X258400Y492500D03*
X258400Y467100D03*
X233000Y492500D03*
X233000Y467100D03*
X207600Y492500D03*
X207600Y467100D03*
X182200Y492500D03*
X182200Y467100D03*
X156800Y492500D03*
X156800Y467100D03*
X131400Y492500D03*
X131400Y467100D03*
X563200Y721100D03*
X563200Y746500D03*
X537800Y746500D03*
X537800Y721100D03*
X512400Y746500D03*
X512400Y721100D03*
X487000Y746500D03*
X461600Y746500D03*
X436200Y746500D03*
X487000Y721100D03*
X461600Y721100D03*
X436200Y721100D03*
X410800Y746500D03*
X410800Y721100D03*
X385400Y746500D03*
X385400Y721100D03*
X360000Y746500D03*
X360000Y721100D03*
X334600Y746500D03*
X334600Y721100D03*
X309200Y746500D03*
X309200Y721100D03*
X283800Y746500D03*
X283800Y721100D03*
X258400Y746500D03*
X258400Y721100D03*
X233000Y746500D03*
X233000Y721100D03*
X207600Y746500D03*
X207600Y721100D03*
X182200Y746500D03*
X182200Y721100D03*
X156800Y746500D03*
X156800Y721100D03*
X131400Y746500D03*
X131400Y721100D03*
D11*
X172300Y781800D02*
X522300Y781800D01*
X524716Y781771D01*
X527131Y781683D01*
X529543Y781537D01*
X531951Y781333D01*
X534354Y781071D01*
X536749Y780751D01*
X539136Y780373D01*
X541513Y779937D01*
X543878Y779444D01*
X546232Y778894D01*
X548571Y778288D01*
X550895Y777625D01*
X553202Y776906D01*
X555491Y776131D01*
X557760Y775302D01*
X560009Y774417D01*
X562236Y773479D01*
X564440Y772487D01*
X566619Y771443D01*
X568772Y770346D01*
X570898Y769197D01*
X572996Y767997D01*
X575064Y766747D01*
X577101Y765447D01*
X579106Y764098D01*
X581079Y762702D01*
X583016Y761258D01*
X584919Y759767D01*
X586784Y758232D01*
X588612Y756651D01*
X590402Y755027D01*
X592151Y753360D01*
X593860Y751651D01*
X595527Y749902D01*
X597151Y748112D01*
X598732Y746284D01*
X600267Y744419D01*
X601758Y742516D01*
X603202Y740579D01*
X604598Y738606D01*
X605947Y736601D01*
X607247Y734564D01*
X608497Y732496D01*
X609697Y730398D01*
X610846Y728272D01*
X611943Y726119D01*
X612987Y723940D01*
X613979Y721736D01*
X614917Y719509D01*
X615802Y717260D01*
X616631Y714991D01*
X617406Y712702D01*
X618125Y710395D01*
X618788Y708071D01*
X619394Y705732D01*
X619944Y703378D01*
X620437Y701013D01*
X620873Y698636D01*
X621251Y696249D01*
X621571Y693854D01*
X621833Y691451D01*
X622037Y689043D01*
X622183Y686631D01*
X622271Y684216D01*
X622300Y681800D01*
X622300Y531800D01*
X622271Y529384D01*
X622183Y526969D01*
X622037Y524557D01*
X621833Y522149D01*
X621571Y519746D01*
X621251Y517351D01*
X620873Y514964D01*
X620437Y512587D01*
X619944Y510222D01*
X619394Y507868D01*
X618788Y505529D01*
X618125Y503205D01*
X617406Y500898D01*
X616631Y498609D01*
X615802Y496340D01*
X614917Y494091D01*
X613979Y491864D01*
X612987Y489660D01*
X611943Y487481D01*
X610846Y485328D01*
X609697Y483202D01*
X608497Y481104D01*
X607247Y479036D01*
X605947Y476999D01*
X604598Y474994D01*
X603202Y473021D01*
X601758Y471084D01*
X600267Y469181D01*
X598732Y467316D01*
X597151Y465488D01*
X595527Y463698D01*
X593860Y461949D01*
X592151Y460240D01*
X590402Y458573D01*
X588612Y456949D01*
X586784Y455368D01*
X584919Y453833D01*
X583016Y452342D01*
X581079Y450898D01*
X579106Y449502D01*
X577101Y448153D01*
X575064Y446853D01*
X572996Y445603D01*
X570898Y444403D01*
X568772Y443254D01*
X566619Y442157D01*
X564440Y441113D01*
X562236Y440121D01*
X560009Y439183D01*
X557760Y438298D01*
X555491Y437469D01*
X553202Y436694D01*
X550895Y435975D01*
X548571Y435312D01*
X546232Y434706D01*
X543878Y434156D01*
X541513Y433663D01*
X539136Y433227D01*
X536749Y432849D01*
X534354Y432529D01*
X531951Y432267D01*
X529543Y432063D01*
X527131Y431917D01*
X524716Y431829D01*
X522300Y431800D01*
X172300Y431800D01*
X169884Y431829D01*
X167469Y431917D01*
X165057Y432063D01*
X162649Y432267D01*
X160246Y432529D01*
X157851Y432849D01*
X155464Y433227D01*
X153087Y433663D01*
X150722Y434156D01*
X148368Y434706D01*
X146029Y435312D01*
X143705Y435975D01*
X141398Y436694D01*
X139109Y437469D01*
X136840Y438298D01*
X134591Y439183D01*
X132364Y440121D01*
X130160Y441113D01*
X127981Y442157D01*
X125828Y443254D01*
X123702Y444403D01*
X121604Y445603D01*
X119536Y446853D01*
X117499Y448153D01*
X115494Y449502D01*
X113521Y450898D01*
X111584Y452342D01*
X109681Y453833D01*
X107816Y455368D01*
X105988Y456949D01*
X104198Y458573D01*
X102449Y460240D01*
X100740Y461949D01*
X99073Y463698D01*
X97449Y465488D01*
X95868Y467316D01*
X94333Y469181D01*
X92842Y471084D01*
X91398Y473021D01*
X90002Y474994D01*
X88653Y476999D01*
X87353Y479036D01*
X86103Y481104D01*
X84903Y483202D01*
X83754Y485328D01*
X82657Y487481D01*
X81613Y489660D01*
X80621Y491864D01*
X79683Y494091D01*
X78798Y496340D01*
X77969Y498609D01*
X77194Y500898D01*
X76475Y503205D01*
X75812Y505529D01*
X75206Y507868D01*
X74656Y510222D01*
X74163Y512587D01*
X73727Y514964D01*
X73349Y517351D01*
X73029Y519746D01*
X72767Y522149D01*
X72563Y524557D01*
X72417Y526969D01*
X72329Y529384D01*
X72300Y531800D01*
X72300Y681800D01*
X72329Y684216D01*
X72417Y686631D01*
X72563Y689043D01*
X72767Y691451D01*
X73029Y693854D01*
X73349Y696249D01*
X73727Y698636D01*
X74163Y701013D01*
X74656Y703378D01*
X75206Y705732D01*
X75812Y708071D01*
X76475Y710395D01*
X77194Y712702D01*
X77969Y714991D01*
X78798Y717260D01*
X79683Y719509D01*
X80621Y721736D01*
X81613Y723940D01*
X82657Y726119D01*
X83754Y728272D01*
X84903Y730398D01*
X86103Y732496D01*
X87353Y734564D01*
X88653Y736601D01*
X90002Y738606D01*
X91398Y740579D01*
X92842Y742516D01*
X94333Y744419D01*
X95868Y746284D01*
X97449Y748112D01*
X99073Y749902D01*
X100740Y751651D01*
X102449Y753360D01*
X104198Y755027D01*
X105988Y756651D01*
X107816Y758232D01*
X109681Y759767D01*
X111584Y761258D01*
X113521Y762702D01*
X115494Y764098D01*
X117499Y765447D01*
X119536Y766747D01*
X121604Y767997D01*
X123702Y769197D01*
X125828Y770346D01*
X127981Y771443D01*
X130160Y772487D01*
X132364Y773479D01*
X134591Y774417D01*
X136840Y775302D01*
X139109Y776131D01*
X141398Y776906D01*
X143705Y777625D01*
X146029Y778288D01*
X148368Y778894D01*
X150722Y779444D01*
X153087Y779937D01*
X155464Y780373D01*
X157851Y780751D01*
X160246Y781071D01*
X162649Y781333D01*
X165057Y781537D01*
X167469Y781683D01*
X169884Y781771D01*
X172300Y781800D01*
D12*
X97113Y578753D02*
X89662Y578753D01*
X97113Y578753D02*
X97113Y584341D01*
X97111Y584425D01*
X97106Y584508D01*
X97096Y584591D01*
X97083Y584674D01*
X97066Y584756D01*
X97046Y584837D01*
X97022Y584917D01*
X96994Y584996D01*
X96963Y585073D01*
X96929Y585149D01*
X96891Y585224D01*
X96849Y585297D01*
X96805Y585367D01*
X96757Y585436D01*
X96707Y585503D01*
X96653Y585567D01*
X96597Y585628D01*
X96537Y585688D01*
X96476Y585744D01*
X96412Y585798D01*
X96345Y585848D01*
X96276Y585896D01*
X96206Y585940D01*
X96133Y585982D01*
X96058Y586020D01*
X95982Y586054D01*
X95905Y586085D01*
X95826Y586113D01*
X95746Y586137D01*
X95665Y586157D01*
X95583Y586174D01*
X95500Y586187D01*
X95417Y586197D01*
X95334Y586202D01*
X95250Y586204D01*
X89662Y586204D01*
X89662Y582479D02*
X97113Y582479D01*
X97113Y591623D02*
X89662Y591623D01*
X100217Y591312D02*
X100838Y591312D01*
X100838Y591933D01*
X100217Y591933D01*
X100217Y591312D01*
X89662Y598257D02*
X89662Y600741D01*
X89662Y598257D02*
X89664Y598173D01*
X89669Y598090D01*
X89679Y598007D01*
X89692Y597924D01*
X89709Y597842D01*
X89729Y597761D01*
X89753Y597681D01*
X89781Y597602D01*
X89812Y597525D01*
X89846Y597449D01*
X89884Y597374D01*
X89926Y597301D01*
X89970Y597231D01*
X90018Y597162D01*
X90068Y597095D01*
X90122Y597031D01*
X90178Y596970D01*
X90238Y596910D01*
X90299Y596854D01*
X90363Y596800D01*
X90430Y596750D01*
X90499Y596702D01*
X90569Y596658D01*
X90642Y596616D01*
X90717Y596578D01*
X90793Y596544D01*
X90870Y596513D01*
X90949Y596485D01*
X91029Y596461D01*
X91110Y596441D01*
X91192Y596424D01*
X91275Y596411D01*
X91358Y596401D01*
X91441Y596396D01*
X91525Y596394D01*
X91525Y596395D02*
X95250Y596395D01*
X95250Y596394D02*
X95334Y596396D01*
X95417Y596402D01*
X95500Y596411D01*
X95583Y596424D01*
X95665Y596441D01*
X95746Y596461D01*
X95826Y596485D01*
X95905Y596513D01*
X95982Y596544D01*
X96058Y596578D01*
X96133Y596616D01*
X96206Y596658D01*
X96276Y596702D01*
X96345Y596750D01*
X96412Y596800D01*
X96476Y596854D01*
X96537Y596910D01*
X96597Y596970D01*
X96653Y597031D01*
X96707Y597095D01*
X96757Y597162D01*
X96805Y597231D01*
X96849Y597301D01*
X96891Y597374D01*
X96929Y597449D01*
X96963Y597525D01*
X96994Y597602D01*
X97022Y597681D01*
X97046Y597761D01*
X97066Y597842D01*
X97083Y597924D01*
X97096Y598007D01*
X97106Y598090D01*
X97111Y598173D01*
X97113Y598257D01*
X97113Y600741D01*
X97113Y605605D02*
X89662Y605605D01*
X97113Y605605D02*
X97113Y609330D01*
X95871Y609330D01*
X94629Y613142D02*
X92146Y613142D01*
X94629Y613141D02*
X94728Y613143D01*
X94826Y613149D01*
X94925Y613159D01*
X95022Y613172D01*
X95120Y613190D01*
X95216Y613211D01*
X95312Y613237D01*
X95406Y613266D01*
X95499Y613298D01*
X95591Y613335D01*
X95681Y613375D01*
X95770Y613419D01*
X95857Y613466D01*
X95942Y613516D01*
X96024Y613570D01*
X96105Y613627D01*
X96183Y613687D01*
X96259Y613751D01*
X96332Y613817D01*
X96403Y613886D01*
X96471Y613958D01*
X96535Y614033D01*
X96597Y614110D01*
X96656Y614189D01*
X96711Y614271D01*
X96764Y614355D01*
X96812Y614440D01*
X96858Y614528D01*
X96900Y614618D01*
X96938Y614709D01*
X96972Y614801D01*
X97003Y614895D01*
X97030Y614990D01*
X97054Y615086D01*
X97073Y615183D01*
X97089Y615280D01*
X97101Y615378D01*
X97109Y615477D01*
X97113Y615576D01*
X97113Y615674D01*
X97109Y615773D01*
X97101Y615872D01*
X97089Y615970D01*
X97073Y616067D01*
X97054Y616164D01*
X97030Y616260D01*
X97003Y616355D01*
X96972Y616449D01*
X96938Y616541D01*
X96900Y616632D01*
X96858Y616722D01*
X96812Y616810D01*
X96764Y616895D01*
X96711Y616979D01*
X96656Y617061D01*
X96597Y617140D01*
X96535Y617217D01*
X96471Y617292D01*
X96403Y617364D01*
X96332Y617433D01*
X96259Y617499D01*
X96183Y617563D01*
X96105Y617623D01*
X96024Y617680D01*
X95942Y617734D01*
X95857Y617784D01*
X95770Y617831D01*
X95681Y617875D01*
X95591Y617915D01*
X95499Y617952D01*
X95406Y617984D01*
X95312Y618013D01*
X95216Y618039D01*
X95120Y618060D01*
X95022Y618078D01*
X94925Y618091D01*
X94826Y618101D01*
X94728Y618107D01*
X94629Y618109D01*
X92146Y618109D01*
X92047Y618107D01*
X91949Y618101D01*
X91850Y618091D01*
X91753Y618078D01*
X91655Y618060D01*
X91559Y618039D01*
X91463Y618013D01*
X91369Y617984D01*
X91276Y617952D01*
X91184Y617915D01*
X91094Y617875D01*
X91005Y617831D01*
X90918Y617784D01*
X90833Y617734D01*
X90751Y617680D01*
X90670Y617623D01*
X90592Y617563D01*
X90516Y617499D01*
X90443Y617433D01*
X90372Y617364D01*
X90304Y617292D01*
X90240Y617217D01*
X90178Y617140D01*
X90119Y617061D01*
X90064Y616979D01*
X90011Y616895D01*
X89963Y616810D01*
X89917Y616722D01*
X89875Y616632D01*
X89837Y616541D01*
X89803Y616449D01*
X89772Y616355D01*
X89745Y616260D01*
X89721Y616164D01*
X89702Y616067D01*
X89686Y615970D01*
X89674Y615872D01*
X89666Y615773D01*
X89662Y615674D01*
X89662Y615576D01*
X89666Y615477D01*
X89674Y615378D01*
X89686Y615280D01*
X89702Y615183D01*
X89721Y615086D01*
X89745Y614990D01*
X89772Y614895D01*
X89803Y614801D01*
X89837Y614709D01*
X89875Y614618D01*
X89917Y614528D01*
X89963Y614440D01*
X90011Y614355D01*
X90064Y614271D01*
X90119Y614189D01*
X90178Y614110D01*
X90240Y614033D01*
X90304Y613958D01*
X90372Y613886D01*
X90443Y613817D01*
X90516Y613751D01*
X90592Y613687D01*
X90670Y613627D01*
X90751Y613570D01*
X90833Y613516D01*
X90918Y613466D01*
X91005Y613419D01*
X91094Y613375D01*
X91184Y613335D01*
X91276Y613298D01*
X91369Y613266D01*
X91463Y613237D01*
X91559Y613211D01*
X91655Y613190D01*
X91753Y613172D01*
X91850Y613159D01*
X91949Y613149D01*
X92047Y613143D01*
X92146Y613141D01*
X89662Y626533D02*
X89664Y626631D01*
X89670Y626728D01*
X89679Y626825D01*
X89693Y626922D01*
X89710Y627018D01*
X89731Y627113D01*
X89755Y627207D01*
X89784Y627301D01*
X89816Y627393D01*
X89851Y627484D01*
X89890Y627573D01*
X89933Y627661D01*
X89979Y627747D01*
X90028Y627831D01*
X90081Y627913D01*
X90136Y627993D01*
X90195Y628071D01*
X90257Y628146D01*
X90322Y628219D01*
X90390Y628289D01*
X90460Y628357D01*
X90533Y628422D01*
X90608Y628484D01*
X90686Y628543D01*
X90766Y628598D01*
X90848Y628651D01*
X90932Y628700D01*
X91018Y628746D01*
X91106Y628789D01*
X91195Y628828D01*
X91286Y628863D01*
X91378Y628895D01*
X91472Y628924D01*
X91566Y628948D01*
X91661Y628969D01*
X91757Y628986D01*
X91854Y629000D01*
X91951Y629009D01*
X92048Y629015D01*
X92146Y629017D01*
X89662Y626533D02*
X89664Y626390D01*
X89670Y626247D01*
X89679Y626105D01*
X89693Y625963D01*
X89711Y625821D01*
X89732Y625680D01*
X89757Y625539D01*
X89786Y625399D01*
X89819Y625260D01*
X89855Y625122D01*
X89896Y624985D01*
X89940Y624849D01*
X89987Y624715D01*
X90039Y624581D01*
X90093Y624450D01*
X90152Y624319D01*
X90214Y624191D01*
X90279Y624064D01*
X90348Y623939D01*
X90421Y623815D01*
X90496Y623694D01*
X90575Y623575D01*
X90657Y623458D01*
X90743Y623344D01*
X90831Y623232D01*
X90922Y623122D01*
X91017Y623015D01*
X91114Y622910D01*
X91214Y622808D01*
X98354Y623118D02*
X98452Y623120D01*
X98549Y623126D01*
X98646Y623135D01*
X98743Y623149D01*
X98839Y623166D01*
X98934Y623187D01*
X99028Y623211D01*
X99122Y623240D01*
X99214Y623272D01*
X99305Y623307D01*
X99394Y623346D01*
X99482Y623389D01*
X99568Y623435D01*
X99652Y623484D01*
X99734Y623537D01*
X99814Y623592D01*
X99892Y623651D01*
X99967Y623713D01*
X100040Y623778D01*
X100110Y623846D01*
X100178Y623916D01*
X100243Y623989D01*
X100305Y624064D01*
X100364Y624142D01*
X100419Y624222D01*
X100472Y624304D01*
X100521Y624388D01*
X100567Y624474D01*
X100610Y624562D01*
X100649Y624651D01*
X100684Y624742D01*
X100716Y624834D01*
X100745Y624928D01*
X100769Y625022D01*
X100790Y625117D01*
X100807Y625213D01*
X100821Y625310D01*
X100830Y625407D01*
X100836Y625504D01*
X100838Y625602D01*
X100836Y625732D01*
X100831Y625862D01*
X100822Y625992D01*
X100809Y626122D01*
X100793Y626251D01*
X100773Y626380D01*
X100749Y626508D01*
X100722Y626636D01*
X100691Y626762D01*
X100657Y626888D01*
X100619Y627013D01*
X100578Y627136D01*
X100533Y627259D01*
X100485Y627380D01*
X100434Y627500D01*
X100379Y627618D01*
X100321Y627734D01*
X100260Y627849D01*
X100195Y627963D01*
X100128Y628074D01*
X100057Y628183D01*
X99983Y628291D01*
X99907Y628396D01*
X96181Y624361D02*
X96232Y624278D01*
X96286Y624197D01*
X96343Y624119D01*
X96403Y624043D01*
X96466Y623969D01*
X96532Y623898D01*
X96600Y623829D01*
X96671Y623763D01*
X96744Y623699D01*
X96820Y623639D01*
X96898Y623582D01*
X96979Y623527D01*
X97061Y623476D01*
X97145Y623428D01*
X97231Y623383D01*
X97319Y623341D01*
X97408Y623303D01*
X97498Y623269D01*
X97590Y623237D01*
X97683Y623210D01*
X97777Y623186D01*
X97872Y623165D01*
X97968Y623149D01*
X98064Y623136D01*
X98160Y623126D01*
X98257Y623121D01*
X98354Y623119D01*
X94319Y627774D02*
X94268Y627857D01*
X94214Y627938D01*
X94157Y628016D01*
X94097Y628092D01*
X94034Y628166D01*
X93968Y628237D01*
X93900Y628306D01*
X93829Y628372D01*
X93756Y628436D01*
X93680Y628496D01*
X93602Y628553D01*
X93521Y628608D01*
X93439Y628659D01*
X93355Y628707D01*
X93269Y628752D01*
X93181Y628794D01*
X93092Y628832D01*
X93002Y628866D01*
X92910Y628898D01*
X92817Y628925D01*
X92723Y628949D01*
X92628Y628970D01*
X92532Y628986D01*
X92436Y628999D01*
X92340Y629009D01*
X92243Y629014D01*
X92146Y629016D01*
X94319Y627775D02*
X96181Y624360D01*
X100838Y634238D02*
X89662Y634238D01*
X100838Y634238D02*
X100838Y637342D01*
X100836Y637453D01*
X100830Y637563D01*
X100820Y637674D01*
X100806Y637784D01*
X100789Y637893D01*
X100767Y638002D01*
X100742Y638110D01*
X100712Y638216D01*
X100679Y638322D01*
X100642Y638427D01*
X100602Y638530D01*
X100557Y638631D01*
X100510Y638731D01*
X100458Y638830D01*
X100403Y638926D01*
X100345Y639020D01*
X100284Y639112D01*
X100219Y639202D01*
X100151Y639290D01*
X100080Y639375D01*
X100006Y639457D01*
X99929Y639537D01*
X99849Y639614D01*
X99767Y639688D01*
X99682Y639759D01*
X99594Y639827D01*
X99504Y639892D01*
X99412Y639953D01*
X99318Y640011D01*
X99222Y640066D01*
X99123Y640118D01*
X99023Y640165D01*
X98922Y640210D01*
X98819Y640250D01*
X98714Y640287D01*
X98608Y640320D01*
X98502Y640350D01*
X98394Y640375D01*
X98285Y640397D01*
X98176Y640414D01*
X98066Y640428D01*
X97955Y640438D01*
X97845Y640444D01*
X97734Y640446D01*
X97734Y640447D02*
X92766Y640447D01*
X92766Y640446D02*
X92655Y640444D01*
X92545Y640438D01*
X92434Y640428D01*
X92324Y640414D01*
X92215Y640397D01*
X92106Y640375D01*
X91998Y640350D01*
X91892Y640320D01*
X91786Y640287D01*
X91681Y640250D01*
X91578Y640210D01*
X91477Y640165D01*
X91377Y640118D01*
X91278Y640066D01*
X91182Y640011D01*
X91088Y639953D01*
X90996Y639892D01*
X90906Y639827D01*
X90818Y639759D01*
X90733Y639688D01*
X90651Y639614D01*
X90571Y639537D01*
X90494Y639457D01*
X90420Y639375D01*
X90349Y639290D01*
X90281Y639202D01*
X90216Y639112D01*
X90155Y639020D01*
X90097Y638926D01*
X90042Y638830D01*
X89990Y638731D01*
X89943Y638631D01*
X89898Y638530D01*
X89858Y638427D01*
X89821Y638322D01*
X89788Y638216D01*
X89758Y638110D01*
X89733Y638002D01*
X89711Y637893D01*
X89694Y637784D01*
X89680Y637674D01*
X89670Y637563D01*
X89664Y637453D01*
X89662Y637342D01*
X89662Y634238D01*
X597662Y572551D02*
X605113Y572551D01*
X605113Y578139D01*
X605111Y578223D01*
X605106Y578306D01*
X605096Y578389D01*
X605083Y578472D01*
X605066Y578554D01*
X605046Y578635D01*
X605022Y578715D01*
X604994Y578794D01*
X604963Y578871D01*
X604929Y578947D01*
X604891Y579022D01*
X604849Y579095D01*
X604805Y579165D01*
X604757Y579234D01*
X604707Y579301D01*
X604653Y579365D01*
X604597Y579426D01*
X604537Y579486D01*
X604476Y579542D01*
X604412Y579596D01*
X604345Y579646D01*
X604276Y579694D01*
X604206Y579738D01*
X604133Y579780D01*
X604058Y579818D01*
X603982Y579852D01*
X603905Y579883D01*
X603826Y579911D01*
X603746Y579935D01*
X603665Y579955D01*
X603583Y579972D01*
X603500Y579985D01*
X603417Y579995D01*
X603334Y580000D01*
X603250Y580002D01*
X597662Y580002D01*
X597662Y576277D02*
X605113Y576277D01*
X605113Y585421D02*
X597662Y585421D01*
X608217Y585110D02*
X608838Y585110D01*
X608838Y585731D01*
X608217Y585731D01*
X608217Y585110D01*
X597662Y592055D02*
X597662Y594539D01*
X597662Y592055D02*
X597664Y591971D01*
X597669Y591888D01*
X597679Y591805D01*
X597692Y591722D01*
X597709Y591640D01*
X597729Y591559D01*
X597753Y591479D01*
X597781Y591400D01*
X597812Y591323D01*
X597846Y591247D01*
X597884Y591172D01*
X597926Y591099D01*
X597970Y591029D01*
X598018Y590960D01*
X598068Y590893D01*
X598122Y590829D01*
X598178Y590768D01*
X598238Y590708D01*
X598299Y590652D01*
X598363Y590598D01*
X598430Y590548D01*
X598499Y590500D01*
X598569Y590456D01*
X598642Y590414D01*
X598717Y590376D01*
X598793Y590342D01*
X598870Y590311D01*
X598949Y590283D01*
X599029Y590259D01*
X599110Y590239D01*
X599192Y590222D01*
X599275Y590209D01*
X599358Y590199D01*
X599441Y590194D01*
X599525Y590192D01*
X599525Y590193D02*
X603250Y590193D01*
X603250Y590192D02*
X603334Y590194D01*
X603417Y590200D01*
X603500Y590209D01*
X603583Y590222D01*
X603665Y590239D01*
X603746Y590259D01*
X603826Y590283D01*
X603905Y590311D01*
X603982Y590342D01*
X604058Y590376D01*
X604133Y590414D01*
X604206Y590456D01*
X604276Y590500D01*
X604345Y590548D01*
X604412Y590598D01*
X604476Y590652D01*
X604537Y590708D01*
X604597Y590768D01*
X604653Y590829D01*
X604707Y590893D01*
X604757Y590960D01*
X604805Y591029D01*
X604849Y591099D01*
X604891Y591172D01*
X604929Y591247D01*
X604963Y591323D01*
X604994Y591400D01*
X605022Y591479D01*
X605046Y591559D01*
X605066Y591640D01*
X605083Y591722D01*
X605096Y591805D01*
X605106Y591888D01*
X605111Y591971D01*
X605113Y592055D01*
X605113Y594539D01*
X605113Y599403D02*
X597662Y599403D01*
X605113Y599403D02*
X605113Y603128D01*
X603871Y603128D01*
X602629Y606940D02*
X600146Y606940D01*
X602629Y606940D02*
X602728Y606942D01*
X602826Y606948D01*
X602925Y606958D01*
X603022Y606971D01*
X603120Y606989D01*
X603216Y607010D01*
X603312Y607036D01*
X603406Y607065D01*
X603499Y607097D01*
X603591Y607134D01*
X603681Y607174D01*
X603770Y607218D01*
X603857Y607265D01*
X603942Y607315D01*
X604024Y607369D01*
X604105Y607426D01*
X604183Y607486D01*
X604259Y607550D01*
X604332Y607616D01*
X604403Y607685D01*
X604471Y607757D01*
X604535Y607832D01*
X604597Y607909D01*
X604656Y607988D01*
X604711Y608070D01*
X604764Y608154D01*
X604812Y608239D01*
X604858Y608327D01*
X604900Y608417D01*
X604938Y608508D01*
X604972Y608600D01*
X605003Y608694D01*
X605030Y608789D01*
X605054Y608885D01*
X605073Y608982D01*
X605089Y609079D01*
X605101Y609177D01*
X605109Y609276D01*
X605113Y609375D01*
X605113Y609473D01*
X605109Y609572D01*
X605101Y609671D01*
X605089Y609769D01*
X605073Y609866D01*
X605054Y609963D01*
X605030Y610059D01*
X605003Y610154D01*
X604972Y610248D01*
X604938Y610340D01*
X604900Y610431D01*
X604858Y610521D01*
X604812Y610609D01*
X604764Y610694D01*
X604711Y610778D01*
X604656Y610860D01*
X604597Y610939D01*
X604535Y611016D01*
X604471Y611091D01*
X604403Y611163D01*
X604332Y611232D01*
X604259Y611298D01*
X604183Y611362D01*
X604105Y611422D01*
X604024Y611479D01*
X603942Y611533D01*
X603857Y611583D01*
X603770Y611630D01*
X603681Y611674D01*
X603591Y611714D01*
X603499Y611751D01*
X603406Y611783D01*
X603312Y611812D01*
X603216Y611838D01*
X603120Y611859D01*
X603022Y611877D01*
X602925Y611890D01*
X602826Y611900D01*
X602728Y611906D01*
X602629Y611908D01*
X602629Y611907D02*
X600146Y611907D01*
X600146Y611908D02*
X600047Y611906D01*
X599949Y611900D01*
X599850Y611890D01*
X599753Y611877D01*
X599655Y611859D01*
X599559Y611838D01*
X599463Y611812D01*
X599369Y611783D01*
X599276Y611751D01*
X599184Y611714D01*
X599094Y611674D01*
X599005Y611630D01*
X598918Y611583D01*
X598833Y611533D01*
X598751Y611479D01*
X598670Y611422D01*
X598592Y611362D01*
X598516Y611298D01*
X598443Y611232D01*
X598372Y611163D01*
X598304Y611091D01*
X598240Y611016D01*
X598178Y610939D01*
X598119Y610860D01*
X598064Y610778D01*
X598011Y610694D01*
X597963Y610609D01*
X597917Y610521D01*
X597875Y610431D01*
X597837Y610340D01*
X597803Y610248D01*
X597772Y610154D01*
X597745Y610059D01*
X597721Y609963D01*
X597702Y609866D01*
X597686Y609769D01*
X597674Y609671D01*
X597666Y609572D01*
X597662Y609473D01*
X597662Y609375D01*
X597666Y609276D01*
X597674Y609177D01*
X597686Y609079D01*
X597702Y608982D01*
X597721Y608885D01*
X597745Y608789D01*
X597772Y608694D01*
X597803Y608600D01*
X597837Y608508D01*
X597875Y608417D01*
X597917Y608327D01*
X597963Y608239D01*
X598011Y608154D01*
X598064Y608070D01*
X598119Y607988D01*
X598178Y607909D01*
X598240Y607832D01*
X598304Y607757D01*
X598372Y607685D01*
X598443Y607616D01*
X598516Y607550D01*
X598592Y607486D01*
X598670Y607426D01*
X598751Y607369D01*
X598833Y607315D01*
X598918Y607265D01*
X599005Y607218D01*
X599094Y607174D01*
X599184Y607134D01*
X599276Y607097D01*
X599369Y607065D01*
X599463Y607036D01*
X599559Y607010D01*
X599655Y606989D01*
X599753Y606971D01*
X599850Y606958D01*
X599949Y606948D01*
X600047Y606942D01*
X600146Y606940D01*
X600766Y617368D02*
X608838Y617368D01*
X600766Y617369D02*
X600655Y617371D01*
X600545Y617377D01*
X600434Y617387D01*
X600324Y617401D01*
X600215Y617418D01*
X600106Y617440D01*
X599998Y617465D01*
X599892Y617495D01*
X599786Y617528D01*
X599681Y617565D01*
X599578Y617605D01*
X599477Y617650D01*
X599377Y617697D01*
X599278Y617749D01*
X599182Y617804D01*
X599088Y617862D01*
X598996Y617923D01*
X598906Y617988D01*
X598818Y618056D01*
X598733Y618127D01*
X598651Y618201D01*
X598571Y618278D01*
X598494Y618358D01*
X598420Y618440D01*
X598349Y618525D01*
X598281Y618613D01*
X598216Y618703D01*
X598155Y618795D01*
X598097Y618889D01*
X598042Y618985D01*
X597990Y619084D01*
X597943Y619184D01*
X597898Y619285D01*
X597858Y619388D01*
X597821Y619493D01*
X597788Y619599D01*
X597758Y619705D01*
X597733Y619813D01*
X597711Y619922D01*
X597694Y620031D01*
X597680Y620141D01*
X597670Y620252D01*
X597664Y620362D01*
X597662Y620473D01*
X597664Y620584D01*
X597670Y620694D01*
X597680Y620805D01*
X597694Y620915D01*
X597711Y621024D01*
X597733Y621133D01*
X597758Y621241D01*
X597788Y621347D01*
X597821Y621453D01*
X597858Y621558D01*
X597898Y621661D01*
X597943Y621762D01*
X597990Y621862D01*
X598042Y621961D01*
X598097Y622057D01*
X598155Y622151D01*
X598216Y622243D01*
X598281Y622333D01*
X598349Y622421D01*
X598420Y622506D01*
X598494Y622588D01*
X598571Y622668D01*
X598651Y622745D01*
X598733Y622819D01*
X598818Y622890D01*
X598906Y622958D01*
X598996Y623023D01*
X599088Y623084D01*
X599182Y623142D01*
X599278Y623197D01*
X599377Y623249D01*
X599477Y623296D01*
X599578Y623341D01*
X599681Y623381D01*
X599786Y623418D01*
X599892Y623451D01*
X599998Y623481D01*
X600106Y623506D01*
X600215Y623528D01*
X600324Y623545D01*
X600434Y623559D01*
X600545Y623569D01*
X600655Y623575D01*
X600766Y623577D01*
X608838Y623577D01*
X597662Y632523D02*
X597664Y632621D01*
X597670Y632718D01*
X597679Y632815D01*
X597693Y632912D01*
X597710Y633008D01*
X597731Y633103D01*
X597755Y633197D01*
X597784Y633291D01*
X597816Y633383D01*
X597851Y633474D01*
X597890Y633563D01*
X597933Y633651D01*
X597979Y633737D01*
X598028Y633821D01*
X598081Y633903D01*
X598136Y633983D01*
X598195Y634061D01*
X598257Y634136D01*
X598322Y634209D01*
X598390Y634279D01*
X598460Y634347D01*
X598533Y634412D01*
X598608Y634474D01*
X598686Y634533D01*
X598766Y634588D01*
X598848Y634641D01*
X598932Y634690D01*
X599018Y634736D01*
X599106Y634779D01*
X599195Y634818D01*
X599286Y634853D01*
X599378Y634885D01*
X599472Y634914D01*
X599566Y634938D01*
X599661Y634959D01*
X599757Y634976D01*
X599854Y634990D01*
X599951Y634999D01*
X600048Y635005D01*
X600146Y635007D01*
X597662Y632523D02*
X597664Y632380D01*
X597670Y632237D01*
X597679Y632095D01*
X597693Y631953D01*
X597711Y631811D01*
X597732Y631670D01*
X597757Y631529D01*
X597786Y631389D01*
X597819Y631250D01*
X597855Y631112D01*
X597896Y630975D01*
X597940Y630839D01*
X597987Y630705D01*
X598039Y630571D01*
X598093Y630440D01*
X598152Y630309D01*
X598214Y630181D01*
X598279Y630054D01*
X598348Y629929D01*
X598421Y629805D01*
X598496Y629684D01*
X598575Y629565D01*
X598657Y629448D01*
X598743Y629334D01*
X598831Y629222D01*
X598922Y629112D01*
X599017Y629005D01*
X599114Y628900D01*
X599214Y628798D01*
X606354Y629108D02*
X606452Y629110D01*
X606549Y629116D01*
X606646Y629125D01*
X606743Y629139D01*
X606839Y629156D01*
X606934Y629177D01*
X607028Y629201D01*
X607122Y629230D01*
X607214Y629262D01*
X607305Y629297D01*
X607394Y629336D01*
X607482Y629379D01*
X607568Y629425D01*
X607652Y629474D01*
X607734Y629527D01*
X607814Y629582D01*
X607892Y629641D01*
X607967Y629703D01*
X608040Y629768D01*
X608110Y629836D01*
X608178Y629906D01*
X608243Y629979D01*
X608305Y630054D01*
X608364Y630132D01*
X608419Y630212D01*
X608472Y630294D01*
X608521Y630378D01*
X608567Y630464D01*
X608610Y630552D01*
X608649Y630641D01*
X608684Y630732D01*
X608716Y630824D01*
X608745Y630918D01*
X608769Y631012D01*
X608790Y631107D01*
X608807Y631203D01*
X608821Y631300D01*
X608830Y631397D01*
X608836Y631494D01*
X608838Y631592D01*
X608836Y631722D01*
X608831Y631852D01*
X608822Y631982D01*
X608809Y632112D01*
X608793Y632241D01*
X608773Y632370D01*
X608749Y632498D01*
X608722Y632626D01*
X608691Y632752D01*
X608657Y632878D01*
X608619Y633003D01*
X608578Y633126D01*
X608533Y633249D01*
X608485Y633370D01*
X608434Y633490D01*
X608379Y633608D01*
X608321Y633724D01*
X608260Y633839D01*
X608195Y633953D01*
X608128Y634064D01*
X608057Y634173D01*
X607983Y634281D01*
X607907Y634386D01*
X604181Y630351D02*
X604232Y630268D01*
X604286Y630187D01*
X604343Y630109D01*
X604403Y630033D01*
X604466Y629959D01*
X604532Y629888D01*
X604600Y629819D01*
X604671Y629753D01*
X604744Y629689D01*
X604820Y629629D01*
X604898Y629572D01*
X604979Y629517D01*
X605061Y629466D01*
X605145Y629418D01*
X605231Y629373D01*
X605319Y629331D01*
X605408Y629293D01*
X605498Y629259D01*
X605590Y629227D01*
X605683Y629200D01*
X605777Y629176D01*
X605872Y629155D01*
X605968Y629139D01*
X606064Y629126D01*
X606160Y629116D01*
X606257Y629111D01*
X606354Y629109D01*
X602319Y633765D02*
X602268Y633848D01*
X602214Y633929D01*
X602157Y634007D01*
X602097Y634083D01*
X602034Y634157D01*
X601968Y634228D01*
X601900Y634297D01*
X601829Y634363D01*
X601756Y634427D01*
X601680Y634487D01*
X601602Y634544D01*
X601521Y634599D01*
X601439Y634650D01*
X601355Y634698D01*
X601269Y634743D01*
X601181Y634785D01*
X601092Y634823D01*
X601002Y634857D01*
X600910Y634889D01*
X600817Y634916D01*
X600723Y634940D01*
X600628Y634961D01*
X600532Y634977D01*
X600436Y634990D01*
X600340Y635000D01*
X600243Y635005D01*
X600146Y635007D01*
X602319Y633765D02*
X604181Y630350D01*
X603871Y640440D02*
X603871Y643544D01*
X603870Y643544D02*
X603868Y643655D01*
X603862Y643765D01*
X603852Y643876D01*
X603838Y643986D01*
X603821Y644095D01*
X603799Y644204D01*
X603774Y644312D01*
X603744Y644418D01*
X603711Y644524D01*
X603674Y644629D01*
X603634Y644732D01*
X603589Y644833D01*
X603542Y644933D01*
X603490Y645032D01*
X603435Y645128D01*
X603377Y645222D01*
X603316Y645314D01*
X603251Y645404D01*
X603183Y645492D01*
X603112Y645577D01*
X603038Y645659D01*
X602961Y645739D01*
X602881Y645816D01*
X602799Y645890D01*
X602714Y645961D01*
X602626Y646029D01*
X602536Y646094D01*
X602444Y646155D01*
X602350Y646213D01*
X602254Y646268D01*
X602155Y646320D01*
X602055Y646367D01*
X601954Y646412D01*
X601851Y646452D01*
X601746Y646489D01*
X601640Y646522D01*
X601534Y646552D01*
X601426Y646577D01*
X601317Y646599D01*
X601208Y646616D01*
X601098Y646630D01*
X600987Y646640D01*
X600877Y646646D01*
X600766Y646648D01*
X600655Y646646D01*
X600545Y646640D01*
X600434Y646630D01*
X600324Y646616D01*
X600215Y646599D01*
X600106Y646577D01*
X599998Y646552D01*
X599892Y646522D01*
X599786Y646489D01*
X599681Y646452D01*
X599578Y646412D01*
X599477Y646367D01*
X599377Y646320D01*
X599278Y646268D01*
X599182Y646213D01*
X599088Y646155D01*
X598996Y646094D01*
X598906Y646029D01*
X598818Y645961D01*
X598733Y645890D01*
X598651Y645816D01*
X598571Y645739D01*
X598494Y645659D01*
X598420Y645577D01*
X598349Y645492D01*
X598281Y645404D01*
X598216Y645314D01*
X598155Y645222D01*
X598097Y645128D01*
X598042Y645032D01*
X597990Y644933D01*
X597943Y644833D01*
X597898Y644732D01*
X597858Y644629D01*
X597821Y644524D01*
X597788Y644418D01*
X597758Y644312D01*
X597733Y644204D01*
X597711Y644095D01*
X597694Y643986D01*
X597680Y643876D01*
X597670Y643765D01*
X597664Y643655D01*
X597662Y643544D01*
X597662Y640440D01*
X608838Y640440D01*
X608838Y643544D01*
X608836Y643643D01*
X608830Y643741D01*
X608820Y643840D01*
X608807Y643937D01*
X608789Y644035D01*
X608768Y644131D01*
X608742Y644227D01*
X608713Y644321D01*
X608681Y644414D01*
X608644Y644506D01*
X608604Y644596D01*
X608560Y644685D01*
X608513Y644772D01*
X608463Y644857D01*
X608409Y644939D01*
X608352Y645020D01*
X608292Y645098D01*
X608228Y645174D01*
X608162Y645247D01*
X608093Y645318D01*
X608021Y645386D01*
X607946Y645450D01*
X607869Y645512D01*
X607790Y645571D01*
X607708Y645626D01*
X607624Y645679D01*
X607539Y645727D01*
X607451Y645773D01*
X607361Y645815D01*
X607270Y645853D01*
X607178Y645887D01*
X607084Y645918D01*
X606989Y645945D01*
X606893Y645969D01*
X606796Y645988D01*
X606699Y646004D01*
X606601Y646016D01*
X606502Y646024D01*
X606403Y646028D01*
X606305Y646028D01*
X606206Y646024D01*
X606107Y646016D01*
X606009Y646004D01*
X605912Y645988D01*
X605815Y645969D01*
X605719Y645945D01*
X605624Y645918D01*
X605530Y645887D01*
X605438Y645853D01*
X605347Y645815D01*
X605257Y645773D01*
X605169Y645727D01*
X605084Y645679D01*
X605000Y645626D01*
X604918Y645571D01*
X604839Y645512D01*
X604762Y645450D01*
X604687Y645386D01*
X604615Y645318D01*
X604546Y645247D01*
X604480Y645174D01*
X604416Y645098D01*
X604356Y645020D01*
X604299Y644939D01*
X604245Y644857D01*
X604195Y644772D01*
X604148Y644685D01*
X604104Y644596D01*
X604064Y644506D01*
X604027Y644414D01*
X603995Y644321D01*
X603966Y644227D01*
X603940Y644131D01*
X603919Y644035D01*
X603901Y643937D01*
X603888Y643840D01*
X603878Y643741D01*
X603872Y643643D01*
X603870Y643544D01*
X397595Y608838D02*
X397595Y597662D01*
X397595Y608838D02*
X394490Y608838D01*
X394379Y608836D01*
X394269Y608830D01*
X394158Y608820D01*
X394048Y608806D01*
X393939Y608789D01*
X393830Y608767D01*
X393722Y608742D01*
X393616Y608712D01*
X393510Y608679D01*
X393405Y608642D01*
X393302Y608602D01*
X393201Y608557D01*
X393101Y608510D01*
X393002Y608458D01*
X392906Y608403D01*
X392812Y608345D01*
X392720Y608284D01*
X392630Y608219D01*
X392542Y608151D01*
X392457Y608080D01*
X392375Y608006D01*
X392295Y607929D01*
X392218Y607849D01*
X392144Y607767D01*
X392073Y607682D01*
X392005Y607594D01*
X391940Y607504D01*
X391879Y607412D01*
X391821Y607318D01*
X391766Y607222D01*
X391714Y607123D01*
X391667Y607023D01*
X391622Y606922D01*
X391582Y606819D01*
X391545Y606714D01*
X391512Y606608D01*
X391482Y606502D01*
X391457Y606394D01*
X391435Y606285D01*
X391418Y606176D01*
X391404Y606066D01*
X391394Y605955D01*
X391388Y605845D01*
X391386Y605734D01*
X391388Y605623D01*
X391394Y605513D01*
X391404Y605402D01*
X391418Y605292D01*
X391435Y605183D01*
X391457Y605074D01*
X391482Y604966D01*
X391512Y604860D01*
X391545Y604754D01*
X391582Y604649D01*
X391622Y604546D01*
X391667Y604445D01*
X391714Y604345D01*
X391766Y604246D01*
X391821Y604150D01*
X391879Y604056D01*
X391940Y603964D01*
X392005Y603874D01*
X392073Y603786D01*
X392144Y603701D01*
X392218Y603619D01*
X392295Y603539D01*
X392375Y603462D01*
X392457Y603388D01*
X392542Y603317D01*
X392630Y603249D01*
X392720Y603184D01*
X392812Y603123D01*
X392906Y603065D01*
X393002Y603010D01*
X393101Y602958D01*
X393201Y602911D01*
X393302Y602866D01*
X393405Y602826D01*
X393510Y602789D01*
X393616Y602756D01*
X393722Y602726D01*
X393830Y602701D01*
X393939Y602679D01*
X394048Y602662D01*
X394158Y602648D01*
X394269Y602638D01*
X394379Y602632D01*
X394490Y602630D01*
X394490Y602629D02*
X397595Y602629D01*
X386898Y602629D02*
X386898Y600146D01*
X386899Y602629D02*
X386897Y602728D01*
X386891Y602826D01*
X386881Y602925D01*
X386868Y603022D01*
X386850Y603120D01*
X386829Y603216D01*
X386803Y603312D01*
X386774Y603406D01*
X386742Y603499D01*
X386705Y603591D01*
X386665Y603681D01*
X386621Y603770D01*
X386574Y603857D01*
X386524Y603942D01*
X386470Y604024D01*
X386413Y604105D01*
X386353Y604183D01*
X386289Y604259D01*
X386223Y604332D01*
X386154Y604403D01*
X386082Y604471D01*
X386007Y604535D01*
X385930Y604597D01*
X385851Y604656D01*
X385769Y604711D01*
X385685Y604764D01*
X385600Y604812D01*
X385512Y604858D01*
X385422Y604900D01*
X385331Y604938D01*
X385239Y604972D01*
X385145Y605003D01*
X385050Y605030D01*
X384954Y605054D01*
X384857Y605073D01*
X384760Y605089D01*
X384662Y605101D01*
X384563Y605109D01*
X384464Y605113D01*
X384366Y605113D01*
X384267Y605109D01*
X384168Y605101D01*
X384070Y605089D01*
X383973Y605073D01*
X383876Y605054D01*
X383780Y605030D01*
X383685Y605003D01*
X383591Y604972D01*
X383499Y604938D01*
X383408Y604900D01*
X383318Y604858D01*
X383230Y604812D01*
X383145Y604764D01*
X383061Y604711D01*
X382979Y604656D01*
X382900Y604597D01*
X382823Y604535D01*
X382748Y604471D01*
X382676Y604403D01*
X382607Y604332D01*
X382541Y604259D01*
X382477Y604183D01*
X382417Y604105D01*
X382360Y604024D01*
X382306Y603942D01*
X382256Y603857D01*
X382209Y603770D01*
X382165Y603681D01*
X382125Y603591D01*
X382088Y603499D01*
X382056Y603406D01*
X382027Y603312D01*
X382001Y603216D01*
X381980Y603120D01*
X381962Y603022D01*
X381949Y602925D01*
X381939Y602826D01*
X381933Y602728D01*
X381931Y602629D01*
X381931Y600146D01*
X381933Y600047D01*
X381939Y599949D01*
X381949Y599850D01*
X381962Y599753D01*
X381980Y599655D01*
X382001Y599559D01*
X382027Y599463D01*
X382056Y599369D01*
X382088Y599276D01*
X382125Y599184D01*
X382165Y599094D01*
X382209Y599005D01*
X382256Y598918D01*
X382306Y598833D01*
X382360Y598751D01*
X382417Y598670D01*
X382477Y598592D01*
X382541Y598516D01*
X382607Y598443D01*
X382676Y598372D01*
X382748Y598304D01*
X382823Y598240D01*
X382900Y598178D01*
X382979Y598119D01*
X383061Y598064D01*
X383145Y598011D01*
X383230Y597963D01*
X383318Y597917D01*
X383408Y597875D01*
X383499Y597837D01*
X383591Y597803D01*
X383685Y597772D01*
X383780Y597745D01*
X383876Y597721D01*
X383973Y597702D01*
X384070Y597686D01*
X384168Y597674D01*
X384267Y597666D01*
X384366Y597662D01*
X384464Y597662D01*
X384563Y597666D01*
X384662Y597674D01*
X384760Y597686D01*
X384857Y597702D01*
X384954Y597721D01*
X385050Y597745D01*
X385145Y597772D01*
X385239Y597803D01*
X385331Y597837D01*
X385422Y597875D01*
X385512Y597917D01*
X385600Y597963D01*
X385685Y598011D01*
X385769Y598064D01*
X385851Y598119D01*
X385930Y598178D01*
X386007Y598240D01*
X386082Y598304D01*
X386154Y598372D01*
X386223Y598443D01*
X386289Y598516D01*
X386353Y598592D01*
X386413Y598670D01*
X386470Y598751D01*
X386524Y598833D01*
X386574Y598918D01*
X386621Y599005D01*
X386665Y599094D01*
X386705Y599184D01*
X386742Y599276D01*
X386774Y599369D01*
X386803Y599463D01*
X386829Y599559D01*
X386850Y599655D01*
X386868Y599753D01*
X386881Y599850D01*
X386891Y599949D01*
X386897Y600047D01*
X386899Y600146D01*
X375113Y597662D02*
X372630Y597662D01*
X375113Y597662D02*
X375197Y597664D01*
X375280Y597670D01*
X375363Y597679D01*
X375446Y597692D01*
X375528Y597709D01*
X375609Y597729D01*
X375689Y597753D01*
X375768Y597781D01*
X375845Y597812D01*
X375921Y597846D01*
X375996Y597884D01*
X376069Y597926D01*
X376139Y597970D01*
X376208Y598018D01*
X376275Y598068D01*
X376339Y598122D01*
X376400Y598178D01*
X376460Y598238D01*
X376516Y598299D01*
X376570Y598363D01*
X376620Y598430D01*
X376668Y598499D01*
X376712Y598569D01*
X376754Y598642D01*
X376792Y598717D01*
X376826Y598793D01*
X376857Y598870D01*
X376885Y598949D01*
X376909Y599029D01*
X376929Y599110D01*
X376946Y599192D01*
X376959Y599275D01*
X376969Y599358D01*
X376974Y599441D01*
X376976Y599525D01*
X376976Y603250D01*
X376974Y603334D01*
X376969Y603417D01*
X376959Y603500D01*
X376946Y603583D01*
X376929Y603665D01*
X376909Y603746D01*
X376885Y603826D01*
X376857Y603905D01*
X376826Y603982D01*
X376792Y604058D01*
X376754Y604133D01*
X376712Y604206D01*
X376668Y604276D01*
X376620Y604345D01*
X376570Y604412D01*
X376516Y604476D01*
X376460Y604537D01*
X376400Y604597D01*
X376339Y604653D01*
X376275Y604707D01*
X376208Y604757D01*
X376139Y604805D01*
X376069Y604849D01*
X375996Y604891D01*
X375921Y604929D01*
X375845Y604963D01*
X375768Y604994D01*
X375689Y605022D01*
X375609Y605046D01*
X375528Y605066D01*
X375446Y605083D01*
X375363Y605096D01*
X375280Y605106D01*
X375197Y605111D01*
X375113Y605113D01*
X372630Y605113D01*
X367679Y608838D02*
X367679Y597662D01*
X367679Y601387D02*
X362712Y605113D01*
X365506Y602940D02*
X362712Y597662D01*
X356461Y597662D02*
X353356Y597662D01*
X356461Y597662D02*
X356545Y597664D01*
X356628Y597670D01*
X356711Y597679D01*
X356794Y597692D01*
X356876Y597709D01*
X356957Y597729D01*
X357037Y597753D01*
X357116Y597781D01*
X357193Y597812D01*
X357269Y597846D01*
X357344Y597884D01*
X357417Y597926D01*
X357487Y597970D01*
X357556Y598018D01*
X357623Y598068D01*
X357687Y598122D01*
X357748Y598178D01*
X357808Y598238D01*
X357864Y598299D01*
X357918Y598363D01*
X357968Y598430D01*
X358016Y598499D01*
X358060Y598569D01*
X358102Y598642D01*
X358140Y598717D01*
X358174Y598793D01*
X358205Y598870D01*
X358233Y598949D01*
X358257Y599029D01*
X358277Y599110D01*
X358294Y599192D01*
X358307Y599275D01*
X358317Y599358D01*
X358322Y599441D01*
X358324Y599525D01*
X358323Y599525D02*
X358323Y602629D01*
X358324Y602629D02*
X358322Y602728D01*
X358316Y602826D01*
X358306Y602925D01*
X358293Y603022D01*
X358275Y603120D01*
X358254Y603216D01*
X358228Y603312D01*
X358199Y603406D01*
X358167Y603499D01*
X358130Y603591D01*
X358090Y603681D01*
X358046Y603770D01*
X357999Y603857D01*
X357949Y603942D01*
X357895Y604024D01*
X357838Y604105D01*
X357778Y604183D01*
X357714Y604259D01*
X357648Y604332D01*
X357579Y604403D01*
X357507Y604471D01*
X357432Y604535D01*
X357355Y604597D01*
X357276Y604656D01*
X357194Y604711D01*
X357110Y604764D01*
X357025Y604812D01*
X356937Y604858D01*
X356847Y604900D01*
X356756Y604938D01*
X356664Y604972D01*
X356570Y605003D01*
X356475Y605030D01*
X356379Y605054D01*
X356282Y605073D01*
X356185Y605089D01*
X356087Y605101D01*
X355988Y605109D01*
X355889Y605113D01*
X355791Y605113D01*
X355692Y605109D01*
X355593Y605101D01*
X355495Y605089D01*
X355398Y605073D01*
X355301Y605054D01*
X355205Y605030D01*
X355110Y605003D01*
X355016Y604972D01*
X354924Y604938D01*
X354833Y604900D01*
X354743Y604858D01*
X354655Y604812D01*
X354570Y604764D01*
X354486Y604711D01*
X354404Y604656D01*
X354325Y604597D01*
X354248Y604535D01*
X354173Y604471D01*
X354101Y604403D01*
X354032Y604332D01*
X353966Y604259D01*
X353902Y604183D01*
X353842Y604105D01*
X353785Y604024D01*
X353731Y603942D01*
X353681Y603857D01*
X353634Y603770D01*
X353590Y603681D01*
X353550Y603591D01*
X353513Y603499D01*
X353481Y603406D01*
X353452Y603312D01*
X353426Y603216D01*
X353405Y603120D01*
X353387Y603022D01*
X353374Y602925D01*
X353364Y602826D01*
X353358Y602728D01*
X353356Y602629D01*
X353356Y601387D01*
X358323Y601387D01*
X349436Y605113D02*
X345711Y605113D01*
X348194Y608838D02*
X348194Y599525D01*
X348195Y599525D02*
X348193Y599441D01*
X348187Y599358D01*
X348178Y599275D01*
X348165Y599192D01*
X348148Y599110D01*
X348128Y599029D01*
X348104Y598949D01*
X348076Y598870D01*
X348045Y598793D01*
X348011Y598717D01*
X347973Y598642D01*
X347931Y598569D01*
X347887Y598499D01*
X347839Y598430D01*
X347789Y598363D01*
X347735Y598299D01*
X347679Y598238D01*
X347619Y598178D01*
X347558Y598122D01*
X347494Y598068D01*
X347427Y598018D01*
X347358Y597970D01*
X347288Y597926D01*
X347215Y597884D01*
X347140Y597846D01*
X347064Y597812D01*
X346987Y597781D01*
X346908Y597753D01*
X346828Y597729D01*
X346747Y597709D01*
X346665Y597692D01*
X346582Y597679D01*
X346499Y597669D01*
X346416Y597664D01*
X346332Y597662D01*
X345711Y597662D01*
X340445Y603871D02*
X337340Y603871D01*
X337340Y603870D02*
X337229Y603868D01*
X337119Y603862D01*
X337008Y603852D01*
X336898Y603838D01*
X336789Y603821D01*
X336680Y603799D01*
X336572Y603774D01*
X336466Y603744D01*
X336360Y603711D01*
X336255Y603674D01*
X336152Y603634D01*
X336051Y603589D01*
X335951Y603542D01*
X335852Y603490D01*
X335756Y603435D01*
X335662Y603377D01*
X335570Y603316D01*
X335480Y603251D01*
X335392Y603183D01*
X335307Y603112D01*
X335225Y603038D01*
X335145Y602961D01*
X335068Y602881D01*
X334994Y602799D01*
X334923Y602714D01*
X334855Y602626D01*
X334790Y602536D01*
X334729Y602444D01*
X334671Y602350D01*
X334616Y602254D01*
X334564Y602155D01*
X334517Y602055D01*
X334472Y601954D01*
X334432Y601851D01*
X334395Y601746D01*
X334362Y601640D01*
X334332Y601534D01*
X334307Y601426D01*
X334285Y601317D01*
X334268Y601208D01*
X334254Y601098D01*
X334244Y600987D01*
X334238Y600877D01*
X334236Y600766D01*
X334238Y600655D01*
X334244Y600545D01*
X334254Y600434D01*
X334268Y600324D01*
X334285Y600215D01*
X334307Y600106D01*
X334332Y599998D01*
X334362Y599892D01*
X334395Y599786D01*
X334432Y599681D01*
X334472Y599578D01*
X334517Y599477D01*
X334564Y599377D01*
X334616Y599278D01*
X334671Y599182D01*
X334729Y599088D01*
X334790Y598996D01*
X334855Y598906D01*
X334923Y598818D01*
X334994Y598733D01*
X335068Y598651D01*
X335145Y598571D01*
X335225Y598494D01*
X335307Y598420D01*
X335392Y598349D01*
X335480Y598281D01*
X335570Y598216D01*
X335662Y598155D01*
X335756Y598097D01*
X335852Y598042D01*
X335951Y597990D01*
X336051Y597943D01*
X336152Y597898D01*
X336255Y597858D01*
X336360Y597821D01*
X336466Y597788D01*
X336572Y597758D01*
X336680Y597733D01*
X336789Y597711D01*
X336898Y597694D01*
X337008Y597680D01*
X337119Y597670D01*
X337229Y597664D01*
X337340Y597662D01*
X340445Y597662D01*
X340445Y608838D01*
X337340Y608838D01*
X337241Y608836D01*
X337143Y608830D01*
X337044Y608820D01*
X336947Y608807D01*
X336849Y608789D01*
X336753Y608768D01*
X336657Y608742D01*
X336563Y608713D01*
X336470Y608681D01*
X336378Y608644D01*
X336288Y608604D01*
X336199Y608560D01*
X336112Y608513D01*
X336027Y608463D01*
X335945Y608409D01*
X335864Y608352D01*
X335786Y608292D01*
X335710Y608228D01*
X335637Y608162D01*
X335566Y608093D01*
X335498Y608021D01*
X335434Y607946D01*
X335372Y607869D01*
X335313Y607790D01*
X335258Y607708D01*
X335205Y607624D01*
X335157Y607539D01*
X335111Y607451D01*
X335069Y607361D01*
X335031Y607270D01*
X334997Y607178D01*
X334966Y607084D01*
X334939Y606989D01*
X334915Y606893D01*
X334896Y606796D01*
X334880Y606699D01*
X334868Y606601D01*
X334860Y606502D01*
X334856Y606403D01*
X334856Y606305D01*
X334860Y606206D01*
X334868Y606107D01*
X334880Y606009D01*
X334896Y605912D01*
X334915Y605815D01*
X334939Y605719D01*
X334966Y605624D01*
X334997Y605530D01*
X335031Y605438D01*
X335069Y605347D01*
X335111Y605257D01*
X335157Y605169D01*
X335205Y605084D01*
X335258Y605000D01*
X335313Y604918D01*
X335372Y604839D01*
X335434Y604762D01*
X335498Y604687D01*
X335566Y604615D01*
X335637Y604546D01*
X335710Y604480D01*
X335786Y604416D01*
X335864Y604356D01*
X335945Y604299D01*
X336027Y604245D01*
X336112Y604195D01*
X336199Y604148D01*
X336288Y604104D01*
X336378Y604064D01*
X336470Y604027D01*
X336563Y603995D01*
X336657Y603966D01*
X336753Y603940D01*
X336849Y603919D01*
X336947Y603901D01*
X337044Y603888D01*
X337143Y603878D01*
X337241Y603872D01*
X337340Y603870D01*
X327886Y597662D02*
X324781Y597662D01*
X327886Y597662D02*
X327970Y597664D01*
X328053Y597670D01*
X328136Y597679D01*
X328219Y597692D01*
X328301Y597709D01*
X328382Y597729D01*
X328462Y597753D01*
X328541Y597781D01*
X328618Y597812D01*
X328694Y597846D01*
X328769Y597884D01*
X328842Y597926D01*
X328912Y597970D01*
X328981Y598018D01*
X329048Y598068D01*
X329112Y598122D01*
X329173Y598178D01*
X329233Y598238D01*
X329289Y598299D01*
X329343Y598363D01*
X329393Y598430D01*
X329441Y598499D01*
X329485Y598569D01*
X329527Y598642D01*
X329565Y598717D01*
X329599Y598793D01*
X329630Y598870D01*
X329658Y598949D01*
X329682Y599029D01*
X329702Y599110D01*
X329719Y599192D01*
X329732Y599275D01*
X329742Y599358D01*
X329747Y599441D01*
X329749Y599525D01*
X329749Y602629D01*
X329747Y602728D01*
X329741Y602826D01*
X329731Y602925D01*
X329718Y603022D01*
X329700Y603120D01*
X329679Y603216D01*
X329653Y603312D01*
X329624Y603406D01*
X329592Y603499D01*
X329555Y603591D01*
X329515Y603681D01*
X329471Y603770D01*
X329424Y603857D01*
X329374Y603942D01*
X329320Y604024D01*
X329263Y604105D01*
X329203Y604183D01*
X329139Y604259D01*
X329073Y604332D01*
X329004Y604403D01*
X328932Y604471D01*
X328857Y604535D01*
X328780Y604597D01*
X328701Y604656D01*
X328619Y604711D01*
X328535Y604764D01*
X328450Y604812D01*
X328362Y604858D01*
X328272Y604900D01*
X328181Y604938D01*
X328089Y604972D01*
X327995Y605003D01*
X327900Y605030D01*
X327804Y605054D01*
X327707Y605073D01*
X327610Y605089D01*
X327512Y605101D01*
X327413Y605109D01*
X327314Y605113D01*
X327216Y605113D01*
X327117Y605109D01*
X327018Y605101D01*
X326920Y605089D01*
X326823Y605073D01*
X326726Y605054D01*
X326630Y605030D01*
X326535Y605003D01*
X326441Y604972D01*
X326349Y604938D01*
X326258Y604900D01*
X326168Y604858D01*
X326080Y604812D01*
X325995Y604764D01*
X325911Y604711D01*
X325829Y604656D01*
X325750Y604597D01*
X325673Y604535D01*
X325598Y604471D01*
X325526Y604403D01*
X325457Y604332D01*
X325391Y604259D01*
X325327Y604183D01*
X325267Y604105D01*
X325210Y604024D01*
X325156Y603942D01*
X325106Y603857D01*
X325059Y603770D01*
X325015Y603681D01*
X324975Y603591D01*
X324938Y603499D01*
X324906Y603406D01*
X324877Y603312D01*
X324851Y603216D01*
X324830Y603120D01*
X324812Y603022D01*
X324799Y602925D01*
X324789Y602826D01*
X324783Y602728D01*
X324781Y602629D01*
X324781Y601387D01*
X329749Y601387D01*
X317743Y602008D02*
X314949Y602008D01*
X317743Y602008D02*
X317835Y602006D01*
X317927Y602000D01*
X318019Y601990D01*
X318110Y601977D01*
X318201Y601959D01*
X318291Y601938D01*
X318379Y601913D01*
X318467Y601884D01*
X318553Y601851D01*
X318638Y601815D01*
X318721Y601775D01*
X318803Y601732D01*
X318882Y601685D01*
X318960Y601635D01*
X319035Y601582D01*
X319108Y601526D01*
X319179Y601466D01*
X319247Y601404D01*
X319312Y601339D01*
X319374Y601271D01*
X319434Y601200D01*
X319490Y601127D01*
X319543Y601052D01*
X319593Y600974D01*
X319640Y600895D01*
X319683Y600813D01*
X319723Y600730D01*
X319759Y600645D01*
X319792Y600559D01*
X319821Y600471D01*
X319846Y600383D01*
X319867Y600293D01*
X319885Y600202D01*
X319898Y600111D01*
X319908Y600019D01*
X319914Y599927D01*
X319916Y599835D01*
X319914Y599743D01*
X319908Y599651D01*
X319898Y599559D01*
X319885Y599468D01*
X319867Y599377D01*
X319846Y599287D01*
X319821Y599199D01*
X319792Y599111D01*
X319759Y599025D01*
X319723Y598940D01*
X319683Y598857D01*
X319640Y598775D01*
X319593Y598696D01*
X319543Y598618D01*
X319490Y598543D01*
X319434Y598470D01*
X319374Y598399D01*
X319312Y598331D01*
X319247Y598266D01*
X319179Y598204D01*
X319108Y598144D01*
X319035Y598088D01*
X318960Y598035D01*
X318882Y597985D01*
X318803Y597938D01*
X318721Y597895D01*
X318638Y597855D01*
X318553Y597819D01*
X318467Y597786D01*
X318379Y597757D01*
X318291Y597732D01*
X318201Y597711D01*
X318110Y597693D01*
X318019Y597680D01*
X317927Y597670D01*
X317835Y597664D01*
X317743Y597662D01*
X314949Y597662D01*
X314949Y603250D01*
X314951Y603334D01*
X314957Y603417D01*
X314966Y603500D01*
X314979Y603583D01*
X314996Y603665D01*
X315016Y603746D01*
X315040Y603826D01*
X315068Y603905D01*
X315099Y603982D01*
X315133Y604058D01*
X315171Y604133D01*
X315213Y604206D01*
X315257Y604276D01*
X315305Y604345D01*
X315355Y604412D01*
X315409Y604476D01*
X315465Y604537D01*
X315525Y604597D01*
X315586Y604653D01*
X315650Y604707D01*
X315717Y604757D01*
X315786Y604805D01*
X315856Y604849D01*
X315929Y604891D01*
X316004Y604929D01*
X316080Y604963D01*
X316157Y604994D01*
X316236Y605022D01*
X316316Y605046D01*
X316397Y605066D01*
X316479Y605083D01*
X316562Y605096D01*
X316645Y605106D01*
X316728Y605111D01*
X316812Y605113D01*
X319295Y605113D01*
X307767Y597662D02*
X304662Y597662D01*
X307767Y597662D02*
X307851Y597664D01*
X307934Y597670D01*
X308017Y597679D01*
X308100Y597692D01*
X308182Y597709D01*
X308263Y597729D01*
X308343Y597753D01*
X308422Y597781D01*
X308499Y597812D01*
X308575Y597846D01*
X308650Y597884D01*
X308723Y597926D01*
X308793Y597970D01*
X308862Y598018D01*
X308929Y598068D01*
X308993Y598122D01*
X309054Y598178D01*
X309114Y598238D01*
X309170Y598299D01*
X309224Y598363D01*
X309274Y598430D01*
X309322Y598499D01*
X309366Y598569D01*
X309408Y598642D01*
X309446Y598717D01*
X309480Y598793D01*
X309511Y598870D01*
X309539Y598949D01*
X309563Y599029D01*
X309583Y599110D01*
X309600Y599192D01*
X309613Y599275D01*
X309623Y599358D01*
X309628Y599441D01*
X309630Y599525D01*
X309629Y599525D02*
X309629Y603250D01*
X309630Y603250D02*
X309628Y603334D01*
X309623Y603417D01*
X309613Y603500D01*
X309600Y603583D01*
X309583Y603665D01*
X309563Y603746D01*
X309539Y603826D01*
X309511Y603905D01*
X309480Y603982D01*
X309446Y604058D01*
X309408Y604133D01*
X309366Y604206D01*
X309322Y604276D01*
X309274Y604345D01*
X309224Y604412D01*
X309170Y604476D01*
X309114Y604537D01*
X309054Y604597D01*
X308993Y604653D01*
X308929Y604707D01*
X308862Y604757D01*
X308793Y604805D01*
X308723Y604849D01*
X308650Y604891D01*
X308575Y604929D01*
X308499Y604963D01*
X308422Y604994D01*
X308343Y605022D01*
X308263Y605046D01*
X308182Y605066D01*
X308100Y605083D01*
X308017Y605096D01*
X307934Y605106D01*
X307851Y605111D01*
X307767Y605113D01*
X304662Y605113D01*
X304662Y595799D01*
X304664Y595715D01*
X304669Y595632D01*
X304679Y595549D01*
X304692Y595466D01*
X304709Y595384D01*
X304729Y595303D01*
X304753Y595223D01*
X304781Y595144D01*
X304812Y595067D01*
X304846Y594991D01*
X304884Y594916D01*
X304926Y594843D01*
X304970Y594773D01*
X305018Y594704D01*
X305068Y594637D01*
X305122Y594573D01*
X305178Y594512D01*
X305238Y594452D01*
X305299Y594396D01*
X305363Y594342D01*
X305430Y594292D01*
X305499Y594244D01*
X305569Y594200D01*
X305642Y594158D01*
X305717Y594120D01*
X305793Y594086D01*
X305870Y594055D01*
X305949Y594027D01*
X306029Y594003D01*
X306110Y593983D01*
X306192Y593966D01*
X306275Y593953D01*
X306358Y593943D01*
X306441Y593938D01*
X306525Y593936D01*
X306525Y593937D02*
X309008Y593937D01*
X299177Y599525D02*
X299177Y608838D01*
X299177Y599525D02*
X299175Y599439D01*
X299169Y599353D01*
X299159Y599268D01*
X299145Y599183D01*
X299128Y599098D01*
X299106Y599015D01*
X299080Y598933D01*
X299051Y598852D01*
X299018Y598773D01*
X298982Y598695D01*
X298942Y598618D01*
X298898Y598544D01*
X298851Y598472D01*
X298801Y598402D01*
X298747Y598335D01*
X298691Y598270D01*
X298631Y598208D01*
X298569Y598148D01*
X298504Y598092D01*
X298437Y598038D01*
X298367Y597988D01*
X298295Y597941D01*
X298221Y597897D01*
X298144Y597857D01*
X298067Y597821D01*
X297987Y597788D01*
X297906Y597759D01*
X297824Y597733D01*
X297741Y597711D01*
X297656Y597694D01*
X297571Y597680D01*
X297486Y597670D01*
X297400Y597664D01*
X297314Y597662D01*
X291310Y597662D02*
X288206Y597662D01*
X291310Y597662D02*
X291394Y597664D01*
X291477Y597670D01*
X291560Y597679D01*
X291643Y597692D01*
X291725Y597709D01*
X291806Y597729D01*
X291886Y597753D01*
X291965Y597781D01*
X292042Y597812D01*
X292118Y597846D01*
X292193Y597884D01*
X292266Y597926D01*
X292336Y597970D01*
X292405Y598018D01*
X292472Y598068D01*
X292536Y598122D01*
X292597Y598178D01*
X292657Y598238D01*
X292713Y598299D01*
X292767Y598363D01*
X292817Y598430D01*
X292865Y598499D01*
X292909Y598569D01*
X292951Y598642D01*
X292989Y598717D01*
X293023Y598793D01*
X293054Y598870D01*
X293082Y598949D01*
X293106Y599029D01*
X293126Y599110D01*
X293143Y599192D01*
X293156Y599275D01*
X293166Y599358D01*
X293171Y599441D01*
X293173Y599525D01*
X293173Y602629D01*
X293171Y602728D01*
X293165Y602826D01*
X293155Y602925D01*
X293142Y603022D01*
X293124Y603120D01*
X293103Y603216D01*
X293077Y603312D01*
X293048Y603406D01*
X293016Y603499D01*
X292979Y603591D01*
X292939Y603681D01*
X292895Y603770D01*
X292848Y603857D01*
X292798Y603942D01*
X292744Y604024D01*
X292687Y604105D01*
X292627Y604183D01*
X292563Y604259D01*
X292497Y604332D01*
X292428Y604403D01*
X292356Y604471D01*
X292281Y604535D01*
X292204Y604597D01*
X292125Y604656D01*
X292043Y604711D01*
X291959Y604764D01*
X291874Y604812D01*
X291786Y604858D01*
X291696Y604900D01*
X291605Y604938D01*
X291513Y604972D01*
X291419Y605003D01*
X291324Y605030D01*
X291228Y605054D01*
X291131Y605073D01*
X291034Y605089D01*
X290936Y605101D01*
X290837Y605109D01*
X290738Y605113D01*
X290640Y605113D01*
X290541Y605109D01*
X290442Y605101D01*
X290344Y605089D01*
X290247Y605073D01*
X290150Y605054D01*
X290054Y605030D01*
X289959Y605003D01*
X289865Y604972D01*
X289773Y604938D01*
X289682Y604900D01*
X289592Y604858D01*
X289504Y604812D01*
X289419Y604764D01*
X289335Y604711D01*
X289253Y604656D01*
X289174Y604597D01*
X289097Y604535D01*
X289022Y604471D01*
X288950Y604403D01*
X288881Y604332D01*
X288815Y604259D01*
X288751Y604183D01*
X288691Y604105D01*
X288634Y604024D01*
X288580Y603942D01*
X288530Y603857D01*
X288483Y603770D01*
X288439Y603681D01*
X288399Y603591D01*
X288362Y603499D01*
X288330Y603406D01*
X288301Y603312D01*
X288275Y603216D01*
X288254Y603120D01*
X288236Y603022D01*
X288223Y602925D01*
X288213Y602826D01*
X288207Y602728D01*
X288205Y602629D01*
X288206Y602629D02*
X288206Y601387D01*
X293173Y601387D01*
X592723Y724662D02*
X592723Y735838D01*
X589619Y735838D01*
X589508Y735836D01*
X589398Y735830D01*
X589287Y735820D01*
X589177Y735806D01*
X589068Y735789D01*
X588959Y735767D01*
X588851Y735742D01*
X588745Y735712D01*
X588639Y735679D01*
X588534Y735642D01*
X588431Y735602D01*
X588330Y735557D01*
X588230Y735510D01*
X588131Y735458D01*
X588035Y735403D01*
X587941Y735345D01*
X587849Y735284D01*
X587759Y735219D01*
X587671Y735151D01*
X587586Y735080D01*
X587504Y735006D01*
X587424Y734929D01*
X587347Y734849D01*
X587273Y734767D01*
X587202Y734682D01*
X587134Y734594D01*
X587069Y734504D01*
X587008Y734412D01*
X586950Y734318D01*
X586895Y734222D01*
X586843Y734123D01*
X586796Y734023D01*
X586751Y733922D01*
X586711Y733819D01*
X586674Y733714D01*
X586641Y733608D01*
X586611Y733502D01*
X586586Y733394D01*
X586564Y733285D01*
X586547Y733176D01*
X586533Y733066D01*
X586523Y732955D01*
X586517Y732845D01*
X586515Y732734D01*
X586517Y732623D01*
X586523Y732513D01*
X586533Y732402D01*
X586547Y732292D01*
X586564Y732183D01*
X586586Y732074D01*
X586611Y731966D01*
X586641Y731860D01*
X586674Y731754D01*
X586711Y731649D01*
X586751Y731546D01*
X586796Y731445D01*
X586843Y731345D01*
X586895Y731246D01*
X586950Y731150D01*
X587008Y731056D01*
X587069Y730964D01*
X587134Y730874D01*
X587202Y730786D01*
X587273Y730701D01*
X587347Y730619D01*
X587424Y730539D01*
X587504Y730462D01*
X587586Y730388D01*
X587671Y730317D01*
X587759Y730249D01*
X587849Y730184D01*
X587941Y730123D01*
X588035Y730065D01*
X588131Y730010D01*
X588230Y729958D01*
X588330Y729911D01*
X588431Y729866D01*
X588534Y729826D01*
X588639Y729789D01*
X588745Y729756D01*
X588851Y729726D01*
X588959Y729701D01*
X589068Y729679D01*
X589177Y729662D01*
X589287Y729648D01*
X589398Y729638D01*
X589508Y729632D01*
X589619Y729630D01*
X589619Y729629D02*
X592723Y729629D01*
X578471Y735838D02*
X578367Y735836D01*
X578262Y735830D01*
X578158Y735820D01*
X578055Y735807D01*
X577952Y735789D01*
X577849Y735768D01*
X577748Y735743D01*
X577647Y735714D01*
X577548Y735681D01*
X577450Y735645D01*
X577354Y735605D01*
X577259Y735561D01*
X577165Y735514D01*
X577074Y735464D01*
X576985Y735410D01*
X576897Y735353D01*
X576812Y735292D01*
X576729Y735228D01*
X576649Y735162D01*
X576571Y735092D01*
X576495Y735020D01*
X576423Y734944D01*
X576353Y734866D01*
X576287Y734786D01*
X576223Y734703D01*
X576162Y734618D01*
X576105Y734530D01*
X576051Y734441D01*
X576001Y734350D01*
X575954Y734256D01*
X575910Y734161D01*
X575870Y734065D01*
X575834Y733967D01*
X575801Y733868D01*
X575772Y733767D01*
X575747Y733666D01*
X575726Y733563D01*
X575708Y733460D01*
X575695Y733357D01*
X575685Y733253D01*
X575679Y733148D01*
X575677Y733044D01*
X578471Y735839D02*
X578590Y735837D01*
X578708Y735831D01*
X578827Y735821D01*
X578945Y735808D01*
X579062Y735790D01*
X579179Y735768D01*
X579295Y735743D01*
X579410Y735714D01*
X579525Y735681D01*
X579638Y735644D01*
X579749Y735604D01*
X579860Y735560D01*
X579968Y735512D01*
X580075Y735461D01*
X580181Y735406D01*
X580284Y735347D01*
X580386Y735286D01*
X580485Y735221D01*
X580583Y735152D01*
X580677Y735081D01*
X580770Y735006D01*
X580860Y734929D01*
X580947Y734848D01*
X581032Y734765D01*
X581114Y734679D01*
X581193Y734590D01*
X581269Y734499D01*
X581342Y734405D01*
X581411Y734309D01*
X581478Y734210D01*
X581541Y734110D01*
X581601Y734007D01*
X581658Y733903D01*
X581710Y733796D01*
X581760Y733688D01*
X581806Y733579D01*
X581848Y733467D01*
X581886Y733355D01*
X576608Y730871D02*
X576533Y730945D01*
X576461Y731022D01*
X576391Y731101D01*
X576324Y731183D01*
X576260Y731267D01*
X576199Y731353D01*
X576141Y731441D01*
X576086Y731532D01*
X576034Y731624D01*
X575986Y731718D01*
X575941Y731813D01*
X575899Y731911D01*
X575861Y732009D01*
X575826Y732109D01*
X575795Y732210D01*
X575768Y732312D01*
X575744Y732415D01*
X575723Y732518D01*
X575707Y732623D01*
X575694Y732728D01*
X575684Y732833D01*
X575679Y732938D01*
X575677Y733044D01*
X576608Y730871D02*
X581886Y724662D01*
X575677Y724662D01*
X592723Y481838D02*
X592723Y470662D01*
X592723Y481838D02*
X589619Y481838D01*
X589508Y481836D01*
X589398Y481830D01*
X589287Y481820D01*
X589177Y481806D01*
X589068Y481789D01*
X588959Y481767D01*
X588851Y481742D01*
X588745Y481712D01*
X588639Y481679D01*
X588534Y481642D01*
X588431Y481602D01*
X588330Y481557D01*
X588230Y481510D01*
X588131Y481458D01*
X588035Y481403D01*
X587941Y481345D01*
X587849Y481284D01*
X587759Y481219D01*
X587671Y481151D01*
X587586Y481080D01*
X587504Y481006D01*
X587424Y480929D01*
X587347Y480849D01*
X587273Y480767D01*
X587202Y480682D01*
X587134Y480594D01*
X587069Y480504D01*
X587008Y480412D01*
X586950Y480318D01*
X586895Y480222D01*
X586843Y480123D01*
X586796Y480023D01*
X586751Y479922D01*
X586711Y479819D01*
X586674Y479714D01*
X586641Y479608D01*
X586611Y479502D01*
X586586Y479394D01*
X586564Y479285D01*
X586547Y479176D01*
X586533Y479066D01*
X586523Y478955D01*
X586517Y478845D01*
X586515Y478734D01*
X586517Y478623D01*
X586523Y478513D01*
X586533Y478402D01*
X586547Y478292D01*
X586564Y478183D01*
X586586Y478074D01*
X586611Y477966D01*
X586641Y477860D01*
X586674Y477754D01*
X586711Y477649D01*
X586751Y477546D01*
X586796Y477445D01*
X586843Y477345D01*
X586895Y477246D01*
X586950Y477150D01*
X587008Y477056D01*
X587069Y476964D01*
X587134Y476874D01*
X587202Y476786D01*
X587273Y476701D01*
X587347Y476619D01*
X587424Y476539D01*
X587504Y476462D01*
X587586Y476388D01*
X587671Y476317D01*
X587759Y476249D01*
X587849Y476184D01*
X587941Y476123D01*
X588035Y476065D01*
X588131Y476010D01*
X588230Y475958D01*
X588330Y475911D01*
X588431Y475866D01*
X588534Y475826D01*
X588639Y475789D01*
X588745Y475756D01*
X588851Y475726D01*
X588959Y475701D01*
X589068Y475679D01*
X589177Y475662D01*
X589287Y475648D01*
X589398Y475638D01*
X589508Y475632D01*
X589619Y475630D01*
X589619Y475629D02*
X592723Y475629D01*
X581886Y479354D02*
X578781Y481838D01*
X578781Y470662D01*
X575677Y470662D02*
X581886Y470662D01*
D13*
X609092Y789884D02*
X609092Y795020D01*
X609092Y789884D02*
X609090Y789797D01*
X609084Y789709D01*
X609075Y789622D01*
X609061Y789536D01*
X609044Y789450D01*
X609023Y789366D01*
X608998Y789282D01*
X608969Y789199D01*
X608937Y789118D01*
X608902Y789038D01*
X608863Y788960D01*
X608820Y788883D01*
X608774Y788809D01*
X608725Y788737D01*
X608673Y788667D01*
X608617Y788599D01*
X608559Y788534D01*
X608498Y788471D01*
X608434Y788412D01*
X608367Y788355D01*
X608299Y788301D01*
X608227Y788250D01*
X608154Y788203D01*
X608079Y788158D01*
X608001Y788117D01*
X607922Y788080D01*
X607842Y788046D01*
X607760Y788016D01*
X607677Y787989D01*
X607592Y787966D01*
X607507Y787947D01*
X607421Y787932D01*
X607334Y787920D01*
X607247Y787912D01*
X607160Y787908D01*
X607072Y787908D01*
X606985Y787912D01*
X606898Y787920D01*
X606811Y787932D01*
X606725Y787947D01*
X606640Y787966D01*
X606555Y787989D01*
X606472Y788016D01*
X606390Y788046D01*
X606310Y788080D01*
X606231Y788117D01*
X606153Y788158D01*
X606078Y788203D01*
X606005Y788250D01*
X605933Y788301D01*
X605865Y788355D01*
X605798Y788412D01*
X605734Y788471D01*
X605673Y788534D01*
X605615Y788599D01*
X605559Y788667D01*
X605507Y788737D01*
X605458Y788809D01*
X605412Y788883D01*
X605369Y788960D01*
X605330Y789038D01*
X605295Y789118D01*
X605263Y789199D01*
X605234Y789282D01*
X605209Y789366D01*
X605188Y789450D01*
X605171Y789536D01*
X605157Y789622D01*
X605148Y789709D01*
X605142Y789797D01*
X605140Y789884D01*
X605141Y789884D02*
X605141Y795020D01*
X600045Y795020D02*
X600045Y787908D01*
X600045Y791464D02*
X601033Y792057D01*
X601090Y792094D01*
X601145Y792134D01*
X601198Y792177D01*
X601248Y792223D01*
X601296Y792271D01*
X601340Y792323D01*
X601382Y792377D01*
X601420Y792433D01*
X601455Y792491D01*
X601486Y792551D01*
X601514Y792613D01*
X601539Y792677D01*
X601560Y792742D01*
X601577Y792807D01*
X601590Y792874D01*
X601599Y792941D01*
X601604Y793009D01*
X601606Y793077D01*
X601604Y793145D01*
X601597Y793213D01*
X601587Y793280D01*
X601573Y793347D01*
X601555Y793412D01*
X601533Y793477D01*
X601508Y793540D01*
X601479Y793601D01*
X601447Y793661D01*
X601411Y793719D01*
X601372Y793775D01*
X601330Y793828D01*
X601284Y793879D01*
X601236Y793927D01*
X601186Y793972D01*
X601132Y794014D01*
X601077Y794053D01*
X601019Y794089D01*
X600959Y794122D01*
X600898Y794151D01*
X600835Y794176D01*
X600770Y794198D01*
X600705Y794216D01*
X600638Y794230D01*
X600638Y794229D02*
X600532Y794247D01*
X600425Y794260D01*
X600318Y794271D01*
X600211Y794277D01*
X600103Y794280D01*
X599996Y794279D01*
X599888Y794274D01*
X599781Y794266D01*
X599674Y794254D01*
X599568Y794239D01*
X599462Y794219D01*
X599357Y794197D01*
X599253Y794170D01*
X599150Y794140D01*
X599048Y794107D01*
X598947Y794070D01*
X598847Y794029D01*
X598749Y793985D01*
X598653Y793938D01*
X598558Y793888D01*
X598465Y793834D01*
X600045Y791464D02*
X599057Y790871D01*
X599058Y790871D02*
X599001Y790834D01*
X598946Y790794D01*
X598893Y790751D01*
X598843Y790705D01*
X598795Y790657D01*
X598751Y790605D01*
X598709Y790551D01*
X598671Y790495D01*
X598636Y790437D01*
X598605Y790377D01*
X598577Y790315D01*
X598552Y790251D01*
X598531Y790186D01*
X598514Y790121D01*
X598501Y790054D01*
X598492Y789987D01*
X598487Y789919D01*
X598485Y789851D01*
X598487Y789783D01*
X598494Y789715D01*
X598504Y789648D01*
X598518Y789581D01*
X598536Y789516D01*
X598558Y789451D01*
X598583Y789388D01*
X598612Y789327D01*
X598644Y789267D01*
X598680Y789209D01*
X598719Y789153D01*
X598761Y789100D01*
X598807Y789049D01*
X598855Y789001D01*
X598905Y788956D01*
X598959Y788914D01*
X599014Y788875D01*
X599072Y788839D01*
X599132Y788806D01*
X599193Y788777D01*
X599256Y788752D01*
X599321Y788730D01*
X599386Y788712D01*
X599453Y788698D01*
X599452Y788699D02*
X599558Y788681D01*
X599665Y788668D01*
X599772Y788657D01*
X599879Y788651D01*
X599987Y788648D01*
X600094Y788649D01*
X600202Y788654D01*
X600309Y788662D01*
X600416Y788674D01*
X600522Y788689D01*
X600628Y788709D01*
X600733Y788731D01*
X600837Y788758D01*
X600940Y788788D01*
X601042Y788821D01*
X601143Y788858D01*
X601243Y788899D01*
X601341Y788943D01*
X601437Y788990D01*
X601532Y789040D01*
X601625Y789094D01*
X595193Y793440D02*
X593218Y795020D01*
X593218Y787908D01*
X595193Y787908D02*
X591242Y787908D01*
D14*
X842400Y768900D02*
X842400Y678900D01*
X986400Y678900D01*
X986400Y768900D02*
X967900Y768900D01*
X986400Y708400D02*
X986400Y678900D01*
X931900Y768900D02*
X842400Y768900D01*
X986400Y768900D02*
X986400Y738400D01*
D15*
X993400Y723900D02*
X993402Y723989D01*
X993408Y724078D01*
X993418Y724167D01*
X993432Y724255D01*
X993449Y724342D01*
X993471Y724428D01*
X993497Y724514D01*
X993526Y724598D01*
X993559Y724681D01*
X993595Y724762D01*
X993636Y724842D01*
X993679Y724919D01*
X993726Y724995D01*
X993777Y725068D01*
X993830Y725139D01*
X993887Y725208D01*
X993947Y725274D01*
X994010Y725338D01*
X994075Y725398D01*
X994143Y725456D01*
X994214Y725510D01*
X994287Y725561D01*
X994362Y725609D01*
X994439Y725654D01*
X994518Y725695D01*
X994599Y725732D01*
X994681Y725766D01*
X994765Y725797D01*
X994850Y725823D01*
X994936Y725846D01*
X995023Y725864D01*
X995111Y725879D01*
X995200Y725890D01*
X995289Y725897D01*
X995378Y725900D01*
X995467Y725899D01*
X995556Y725894D01*
X995644Y725885D01*
X995733Y725872D01*
X995820Y725855D01*
X995907Y725835D01*
X995993Y725810D01*
X996077Y725782D01*
X996160Y725750D01*
X996242Y725714D01*
X996322Y725675D01*
X996400Y725632D01*
X996476Y725586D01*
X996550Y725536D01*
X996622Y725483D01*
X996691Y725427D01*
X996758Y725368D01*
X996822Y725306D01*
X996883Y725242D01*
X996942Y725174D01*
X996997Y725104D01*
X997049Y725032D01*
X997098Y724957D01*
X997143Y724881D01*
X997185Y724802D01*
X997223Y724722D01*
X997258Y724640D01*
X997289Y724556D01*
X997317Y724471D01*
X997340Y724385D01*
X997360Y724298D01*
X997376Y724211D01*
X997388Y724122D01*
X997396Y724034D01*
X997400Y723945D01*
X997400Y723855D01*
X997396Y723766D01*
X997388Y723678D01*
X997376Y723589D01*
X997360Y723502D01*
X997340Y723415D01*
X997317Y723329D01*
X997289Y723244D01*
X997258Y723160D01*
X997223Y723078D01*
X997185Y722998D01*
X997143Y722919D01*
X997098Y722843D01*
X997049Y722768D01*
X996997Y722696D01*
X996942Y722626D01*
X996883Y722558D01*
X996822Y722494D01*
X996758Y722432D01*
X996691Y722373D01*
X996622Y722317D01*
X996550Y722264D01*
X996476Y722214D01*
X996400Y722168D01*
X996322Y722125D01*
X996242Y722086D01*
X996160Y722050D01*
X996077Y722018D01*
X995993Y721990D01*
X995907Y721965D01*
X995820Y721945D01*
X995733Y721928D01*
X995644Y721915D01*
X995556Y721906D01*
X995467Y721901D01*
X995378Y721900D01*
X995289Y721903D01*
X995200Y721910D01*
X995111Y721921D01*
X995023Y721936D01*
X994936Y721954D01*
X994850Y721977D01*
X994765Y722003D01*
X994681Y722034D01*
X994599Y722068D01*
X994518Y722105D01*
X994439Y722146D01*
X994362Y722191D01*
X994287Y722239D01*
X994214Y722290D01*
X994143Y722344D01*
X994075Y722402D01*
X994010Y722462D01*
X993947Y722526D01*
X993887Y722592D01*
X993830Y722661D01*
X993777Y722732D01*
X993726Y722805D01*
X993679Y722881D01*
X993636Y722958D01*
X993595Y723038D01*
X993559Y723119D01*
X993526Y723202D01*
X993497Y723286D01*
X993471Y723372D01*
X993449Y723458D01*
X993432Y723545D01*
X993418Y723633D01*
X993408Y723722D01*
X993402Y723811D01*
X993400Y723900D01*
D13*
X804222Y763022D02*
X804222Y772128D01*
X804221Y763022D02*
X804223Y762922D01*
X804229Y762823D01*
X804238Y762724D01*
X804251Y762625D01*
X804269Y762527D01*
X804289Y762429D01*
X804314Y762333D01*
X804342Y762237D01*
X804374Y762142D01*
X804410Y762049D01*
X804449Y761958D01*
X804491Y761867D01*
X804537Y761779D01*
X804586Y761692D01*
X804639Y761608D01*
X804695Y761525D01*
X804754Y761445D01*
X804816Y761366D01*
X804880Y761291D01*
X804948Y761218D01*
X805019Y761147D01*
X805092Y761079D01*
X805167Y761015D01*
X805246Y760953D01*
X805326Y760894D01*
X805409Y760838D01*
X805493Y760785D01*
X805580Y760736D01*
X805668Y760690D01*
X805759Y760648D01*
X805850Y760609D01*
X805943Y760573D01*
X806038Y760541D01*
X806134Y760513D01*
X806230Y760488D01*
X806328Y760468D01*
X806426Y760450D01*
X806525Y760437D01*
X806624Y760428D01*
X806723Y760422D01*
X806823Y760420D01*
X806823Y760421D02*
X808124Y760421D01*
X798940Y769526D02*
X795688Y772128D01*
X795688Y760421D01*
X798940Y760421D02*
X792436Y760421D01*
D12*
X810514Y580644D02*
X688086Y580644D01*
X688086Y638556D01*
X810514Y638556D01*
X810514Y580644D01*
D16*
X762212Y651891D02*
X762110Y651893D01*
X762009Y651899D01*
X761908Y651909D01*
X761807Y651922D01*
X761707Y651940D01*
X761608Y651961D01*
X761509Y651986D01*
X761412Y652015D01*
X761315Y652047D01*
X761220Y652083D01*
X761127Y652123D01*
X761035Y652166D01*
X760945Y652213D01*
X760856Y652264D01*
X760770Y652317D01*
X760686Y652374D01*
X760604Y652434D01*
X760524Y652497D01*
X760447Y652563D01*
X760372Y652632D01*
X760300Y652704D01*
X760231Y652779D01*
X760165Y652856D01*
X760102Y652936D01*
X760042Y653018D01*
X759985Y653102D01*
X759932Y653188D01*
X759881Y653277D01*
X759834Y653367D01*
X759791Y653459D01*
X759751Y653552D01*
X759715Y653647D01*
X759683Y653744D01*
X759654Y653841D01*
X759629Y653940D01*
X759608Y654039D01*
X759590Y654139D01*
X759577Y654240D01*
X759567Y654341D01*
X759561Y654442D01*
X759559Y654544D01*
X762212Y651891D02*
X762360Y651893D01*
X762507Y651899D01*
X762654Y651908D01*
X762801Y651922D01*
X762947Y651939D01*
X763093Y651961D01*
X763239Y651986D01*
X763383Y652015D01*
X763527Y652047D01*
X763670Y652084D01*
X763812Y652124D01*
X763953Y652168D01*
X764092Y652216D01*
X764230Y652267D01*
X764367Y652322D01*
X764503Y652381D01*
X764637Y652443D01*
X764769Y652508D01*
X764899Y652577D01*
X765027Y652650D01*
X765154Y652725D01*
X765279Y652804D01*
X765401Y652887D01*
X765521Y652972D01*
X765639Y653061D01*
X765754Y653153D01*
X765867Y653247D01*
X765978Y653345D01*
X766086Y653446D01*
X766191Y653549D01*
X765860Y661176D02*
X765858Y661278D01*
X765852Y661379D01*
X765842Y661480D01*
X765829Y661581D01*
X765811Y661681D01*
X765790Y661780D01*
X765765Y661879D01*
X765736Y661976D01*
X765704Y662073D01*
X765668Y662168D01*
X765628Y662261D01*
X765585Y662353D01*
X765538Y662443D01*
X765487Y662532D01*
X765434Y662618D01*
X765377Y662702D01*
X765317Y662784D01*
X765254Y662864D01*
X765188Y662941D01*
X765119Y663016D01*
X765047Y663088D01*
X764972Y663157D01*
X764895Y663223D01*
X764815Y663286D01*
X764733Y663346D01*
X764649Y663403D01*
X764563Y663456D01*
X764474Y663507D01*
X764384Y663554D01*
X764292Y663597D01*
X764199Y663637D01*
X764104Y663673D01*
X764007Y663705D01*
X763910Y663734D01*
X763811Y663759D01*
X763712Y663780D01*
X763612Y663798D01*
X763511Y663811D01*
X763410Y663821D01*
X763309Y663827D01*
X763207Y663829D01*
X763068Y663827D01*
X762929Y663821D01*
X762790Y663811D01*
X762652Y663798D01*
X762513Y663780D01*
X762376Y663759D01*
X762239Y663734D01*
X762103Y663705D01*
X761968Y663672D01*
X761833Y663636D01*
X761700Y663595D01*
X761568Y663551D01*
X761437Y663504D01*
X761308Y663452D01*
X761180Y663397D01*
X761054Y663339D01*
X760929Y663277D01*
X760807Y663211D01*
X760686Y663143D01*
X760567Y663070D01*
X760450Y662995D01*
X760335Y662916D01*
X760223Y662834D01*
X764533Y658855D02*
X764618Y658907D01*
X764701Y658963D01*
X764782Y659021D01*
X764861Y659083D01*
X764937Y659147D01*
X765011Y659214D01*
X765083Y659284D01*
X765151Y659356D01*
X765218Y659431D01*
X765281Y659508D01*
X765341Y659588D01*
X765399Y659670D01*
X765453Y659754D01*
X765504Y659839D01*
X765552Y659927D01*
X765597Y660016D01*
X765638Y660107D01*
X765676Y660200D01*
X765710Y660294D01*
X765741Y660388D01*
X765769Y660485D01*
X765793Y660582D01*
X765813Y660679D01*
X765829Y660778D01*
X765842Y660877D01*
X765852Y660976D01*
X765857Y661076D01*
X765859Y661176D01*
X760885Y656865D02*
X760800Y656813D01*
X760717Y656757D01*
X760636Y656699D01*
X760557Y656637D01*
X760481Y656573D01*
X760407Y656506D01*
X760335Y656436D01*
X760267Y656364D01*
X760200Y656289D01*
X760137Y656212D01*
X760077Y656132D01*
X760019Y656050D01*
X759965Y655966D01*
X759914Y655881D01*
X759866Y655793D01*
X759821Y655704D01*
X759780Y655613D01*
X759742Y655520D01*
X759708Y655427D01*
X759677Y655332D01*
X759649Y655235D01*
X759625Y655138D01*
X759605Y655041D01*
X759589Y654942D01*
X759576Y654843D01*
X759566Y654744D01*
X759561Y654644D01*
X759559Y654544D01*
X760885Y656865D02*
X764533Y658855D01*
X752588Y663829D02*
X752588Y651891D01*
X755904Y663829D02*
X749272Y663829D01*
X744835Y651891D02*
X739530Y651891D01*
X744835Y651891D02*
X744835Y663829D01*
X739530Y663829D01*
X740856Y658523D02*
X744835Y658523D01*
X734801Y663829D02*
X734801Y651891D01*
X734801Y663829D02*
X731485Y663829D01*
X731371Y663827D01*
X731256Y663821D01*
X731142Y663811D01*
X731029Y663797D01*
X730915Y663780D01*
X730803Y663758D01*
X730691Y663733D01*
X730581Y663703D01*
X730471Y663670D01*
X730363Y663633D01*
X730256Y663593D01*
X730150Y663548D01*
X730046Y663501D01*
X729944Y663449D01*
X729844Y663394D01*
X729745Y663336D01*
X729649Y663274D01*
X729554Y663209D01*
X729463Y663141D01*
X729373Y663069D01*
X729286Y662995D01*
X729202Y662918D01*
X729120Y662837D01*
X729041Y662754D01*
X728965Y662669D01*
X728892Y662580D01*
X728823Y662490D01*
X728756Y662397D01*
X728693Y662301D01*
X728633Y662204D01*
X728576Y662104D01*
X728523Y662003D01*
X728473Y661900D01*
X728427Y661795D01*
X728384Y661689D01*
X728346Y661581D01*
X728311Y661472D01*
X728280Y661362D01*
X728252Y661251D01*
X728229Y661139D01*
X728209Y661026D01*
X728193Y660913D01*
X728181Y660799D01*
X728173Y660685D01*
X728169Y660570D01*
X728169Y660456D01*
X728173Y660341D01*
X728181Y660227D01*
X728193Y660113D01*
X728209Y660000D01*
X728229Y659887D01*
X728252Y659775D01*
X728280Y659664D01*
X728311Y659554D01*
X728346Y659445D01*
X728384Y659337D01*
X728427Y659231D01*
X728473Y659126D01*
X728523Y659023D01*
X728576Y658922D01*
X728633Y658822D01*
X728693Y658725D01*
X728756Y658629D01*
X728823Y658536D01*
X728892Y658446D01*
X728965Y658357D01*
X729041Y658272D01*
X729120Y658189D01*
X729202Y658108D01*
X729286Y658031D01*
X729373Y657957D01*
X729463Y657885D01*
X729554Y657817D01*
X729649Y657752D01*
X729745Y657690D01*
X729844Y657632D01*
X729944Y657577D01*
X730046Y657525D01*
X730150Y657478D01*
X730256Y657433D01*
X730363Y657393D01*
X730471Y657356D01*
X730581Y657323D01*
X730691Y657293D01*
X730803Y657268D01*
X730915Y657246D01*
X731029Y657229D01*
X731142Y657215D01*
X731256Y657205D01*
X731371Y657199D01*
X731485Y657197D01*
X734801Y657197D01*
X723519Y651891D02*
X723519Y663829D01*
X720203Y663829D01*
X720090Y663827D01*
X719977Y663821D01*
X719864Y663812D01*
X719751Y663798D01*
X719640Y663781D01*
X719528Y663760D01*
X719418Y663735D01*
X719308Y663706D01*
X719200Y663674D01*
X719093Y663638D01*
X718987Y663598D01*
X718882Y663554D01*
X718779Y663508D01*
X718677Y663457D01*
X718578Y663403D01*
X718480Y663346D01*
X718384Y663286D01*
X718291Y663222D01*
X718199Y663155D01*
X718110Y663085D01*
X718024Y663012D01*
X717940Y662936D01*
X717858Y662858D01*
X717780Y662776D01*
X717704Y662692D01*
X717631Y662606D01*
X717561Y662517D01*
X717494Y662425D01*
X717430Y662332D01*
X717370Y662236D01*
X717313Y662138D01*
X717259Y662039D01*
X717208Y661937D01*
X717162Y661834D01*
X717118Y661729D01*
X717078Y661623D01*
X717042Y661516D01*
X717010Y661408D01*
X716981Y661298D01*
X716956Y661188D01*
X716935Y661076D01*
X716918Y660965D01*
X716904Y660852D01*
X716895Y660739D01*
X716889Y660626D01*
X716887Y660513D01*
X716887Y655207D01*
X716889Y655094D01*
X716895Y654981D01*
X716904Y654868D01*
X716918Y654755D01*
X716935Y654644D01*
X716956Y654532D01*
X716981Y654422D01*
X717010Y654312D01*
X717042Y654204D01*
X717078Y654097D01*
X717118Y653991D01*
X717162Y653886D01*
X717208Y653783D01*
X717259Y653681D01*
X717313Y653582D01*
X717370Y653484D01*
X717430Y653388D01*
X717494Y653295D01*
X717561Y653203D01*
X717631Y653114D01*
X717704Y653028D01*
X717780Y652944D01*
X717858Y652862D01*
X717940Y652784D01*
X718024Y652708D01*
X718110Y652635D01*
X718199Y652565D01*
X718291Y652498D01*
X718384Y652434D01*
X718480Y652374D01*
X718578Y652317D01*
X718677Y652263D01*
X718779Y652212D01*
X718882Y652166D01*
X718987Y652122D01*
X719093Y652082D01*
X719200Y652046D01*
X719308Y652014D01*
X719418Y651985D01*
X719528Y651960D01*
X719640Y651939D01*
X719751Y651922D01*
X719864Y651908D01*
X719977Y651899D01*
X720090Y651893D01*
X720203Y651891D01*
X723519Y651891D01*
X711708Y655207D02*
X711708Y660513D01*
X711706Y660627D01*
X711700Y660742D01*
X711690Y660856D01*
X711676Y660969D01*
X711659Y661083D01*
X711637Y661195D01*
X711612Y661307D01*
X711582Y661417D01*
X711549Y661527D01*
X711512Y661635D01*
X711472Y661742D01*
X711427Y661848D01*
X711380Y661952D01*
X711328Y662054D01*
X711273Y662154D01*
X711215Y662253D01*
X711153Y662349D01*
X711088Y662444D01*
X711020Y662535D01*
X710948Y662625D01*
X710874Y662712D01*
X710797Y662796D01*
X710716Y662878D01*
X710633Y662957D01*
X710548Y663033D01*
X710459Y663106D01*
X710369Y663175D01*
X710276Y663242D01*
X710180Y663305D01*
X710083Y663365D01*
X709983Y663422D01*
X709882Y663475D01*
X709779Y663525D01*
X709674Y663571D01*
X709568Y663614D01*
X709460Y663652D01*
X709351Y663687D01*
X709241Y663718D01*
X709130Y663746D01*
X709018Y663769D01*
X708905Y663789D01*
X708792Y663805D01*
X708678Y663817D01*
X708564Y663825D01*
X708449Y663829D01*
X708335Y663829D01*
X708220Y663825D01*
X708106Y663817D01*
X707992Y663805D01*
X707879Y663789D01*
X707766Y663769D01*
X707654Y663746D01*
X707543Y663718D01*
X707433Y663687D01*
X707324Y663652D01*
X707216Y663614D01*
X707110Y663571D01*
X707005Y663525D01*
X706902Y663475D01*
X706801Y663422D01*
X706701Y663365D01*
X706604Y663305D01*
X706508Y663242D01*
X706415Y663175D01*
X706325Y663106D01*
X706236Y663033D01*
X706151Y662957D01*
X706068Y662878D01*
X705987Y662796D01*
X705910Y662712D01*
X705836Y662625D01*
X705764Y662535D01*
X705696Y662444D01*
X705631Y662349D01*
X705569Y662253D01*
X705511Y662154D01*
X705456Y662054D01*
X705404Y661952D01*
X705357Y661848D01*
X705312Y661742D01*
X705272Y661635D01*
X705235Y661527D01*
X705202Y661417D01*
X705172Y661307D01*
X705147Y661195D01*
X705125Y661083D01*
X705108Y660969D01*
X705094Y660856D01*
X705084Y660742D01*
X705078Y660627D01*
X705076Y660513D01*
X705076Y655207D01*
X705078Y655093D01*
X705084Y654978D01*
X705094Y654864D01*
X705108Y654751D01*
X705125Y654637D01*
X705147Y654525D01*
X705172Y654413D01*
X705202Y654303D01*
X705235Y654193D01*
X705272Y654085D01*
X705312Y653978D01*
X705357Y653872D01*
X705404Y653768D01*
X705456Y653666D01*
X705511Y653566D01*
X705569Y653467D01*
X705631Y653371D01*
X705696Y653276D01*
X705764Y653185D01*
X705836Y653095D01*
X705910Y653008D01*
X705987Y652924D01*
X706068Y652842D01*
X706151Y652763D01*
X706236Y652687D01*
X706325Y652614D01*
X706415Y652545D01*
X706508Y652478D01*
X706604Y652415D01*
X706701Y652355D01*
X706801Y652298D01*
X706902Y652245D01*
X707005Y652195D01*
X707110Y652149D01*
X707216Y652106D01*
X707324Y652068D01*
X707433Y652033D01*
X707543Y652002D01*
X707654Y651974D01*
X707766Y651951D01*
X707879Y651931D01*
X707992Y651915D01*
X708106Y651903D01*
X708220Y651895D01*
X708335Y651891D01*
X708449Y651891D01*
X708564Y651895D01*
X708678Y651903D01*
X708792Y651915D01*
X708905Y651931D01*
X709018Y651951D01*
X709130Y651974D01*
X709241Y652002D01*
X709351Y652033D01*
X709460Y652068D01*
X709568Y652106D01*
X709674Y652149D01*
X709779Y652195D01*
X709882Y652245D01*
X709983Y652298D01*
X710083Y652355D01*
X710180Y652415D01*
X710276Y652478D01*
X710369Y652545D01*
X710459Y652614D01*
X710548Y652687D01*
X710633Y652763D01*
X710716Y652842D01*
X710797Y652924D01*
X710874Y653008D01*
X710948Y653095D01*
X711020Y653185D01*
X711088Y653276D01*
X711153Y653371D01*
X711215Y653467D01*
X711273Y653566D01*
X711328Y653666D01*
X711380Y653768D01*
X711427Y653872D01*
X711472Y653978D01*
X711512Y654085D01*
X711549Y654193D01*
X711582Y654303D01*
X711612Y654413D01*
X711637Y654525D01*
X711659Y654637D01*
X711676Y654751D01*
X711690Y654864D01*
X711700Y654978D01*
X711706Y655093D01*
X711708Y655207D01*
X700744Y663829D02*
X698091Y651891D01*
X695438Y659850D01*
X692785Y651891D01*
X690132Y663829D01*
X685419Y663829D02*
X685419Y651891D01*
X678787Y651891D02*
X685419Y663829D01*
X678787Y663829D02*
X678787Y651891D01*
D12*
X782066Y440944D02*
X904494Y440944D01*
X782066Y440944D02*
X782066Y498856D01*
X904494Y498856D01*
X904494Y440944D01*
D16*
X856192Y512191D02*
X856090Y512193D01*
X855989Y512199D01*
X855888Y512209D01*
X855787Y512222D01*
X855687Y512240D01*
X855588Y512261D01*
X855489Y512286D01*
X855392Y512315D01*
X855295Y512347D01*
X855200Y512383D01*
X855107Y512423D01*
X855015Y512466D01*
X854925Y512513D01*
X854836Y512564D01*
X854750Y512617D01*
X854666Y512674D01*
X854584Y512734D01*
X854504Y512797D01*
X854427Y512863D01*
X854352Y512932D01*
X854280Y513004D01*
X854211Y513079D01*
X854145Y513156D01*
X854082Y513236D01*
X854022Y513318D01*
X853965Y513402D01*
X853912Y513488D01*
X853861Y513577D01*
X853814Y513667D01*
X853771Y513759D01*
X853731Y513852D01*
X853695Y513947D01*
X853663Y514044D01*
X853634Y514141D01*
X853609Y514240D01*
X853588Y514339D01*
X853570Y514439D01*
X853557Y514540D01*
X853547Y514641D01*
X853541Y514742D01*
X853539Y514844D01*
X856192Y512191D02*
X856340Y512193D01*
X856487Y512199D01*
X856634Y512208D01*
X856781Y512222D01*
X856927Y512239D01*
X857073Y512261D01*
X857219Y512286D01*
X857363Y512315D01*
X857507Y512347D01*
X857650Y512384D01*
X857792Y512424D01*
X857933Y512468D01*
X858072Y512516D01*
X858210Y512567D01*
X858347Y512622D01*
X858483Y512681D01*
X858617Y512743D01*
X858749Y512808D01*
X858879Y512877D01*
X859007Y512950D01*
X859134Y513025D01*
X859259Y513104D01*
X859381Y513187D01*
X859501Y513272D01*
X859619Y513361D01*
X859734Y513453D01*
X859847Y513547D01*
X859958Y513645D01*
X860066Y513746D01*
X860171Y513849D01*
X859840Y521476D02*
X859838Y521578D01*
X859832Y521679D01*
X859822Y521780D01*
X859809Y521881D01*
X859791Y521981D01*
X859770Y522080D01*
X859745Y522179D01*
X859716Y522276D01*
X859684Y522373D01*
X859648Y522468D01*
X859608Y522561D01*
X859565Y522653D01*
X859518Y522743D01*
X859467Y522832D01*
X859414Y522918D01*
X859357Y523002D01*
X859297Y523084D01*
X859234Y523164D01*
X859168Y523241D01*
X859099Y523316D01*
X859027Y523388D01*
X858952Y523457D01*
X858875Y523523D01*
X858795Y523586D01*
X858713Y523646D01*
X858629Y523703D01*
X858543Y523756D01*
X858454Y523807D01*
X858364Y523854D01*
X858272Y523897D01*
X858179Y523937D01*
X858084Y523973D01*
X857987Y524005D01*
X857890Y524034D01*
X857791Y524059D01*
X857692Y524080D01*
X857592Y524098D01*
X857491Y524111D01*
X857390Y524121D01*
X857289Y524127D01*
X857187Y524129D01*
X857048Y524127D01*
X856909Y524121D01*
X856770Y524111D01*
X856632Y524098D01*
X856493Y524080D01*
X856356Y524059D01*
X856219Y524034D01*
X856083Y524005D01*
X855948Y523972D01*
X855813Y523936D01*
X855680Y523895D01*
X855548Y523851D01*
X855417Y523804D01*
X855288Y523752D01*
X855160Y523697D01*
X855034Y523639D01*
X854909Y523577D01*
X854787Y523511D01*
X854666Y523443D01*
X854547Y523370D01*
X854430Y523295D01*
X854315Y523216D01*
X854203Y523134D01*
X858513Y519155D02*
X858598Y519207D01*
X858681Y519263D01*
X858762Y519321D01*
X858841Y519383D01*
X858917Y519447D01*
X858991Y519514D01*
X859063Y519584D01*
X859131Y519656D01*
X859198Y519731D01*
X859261Y519808D01*
X859321Y519888D01*
X859379Y519970D01*
X859433Y520054D01*
X859484Y520139D01*
X859532Y520227D01*
X859577Y520316D01*
X859618Y520407D01*
X859656Y520500D01*
X859690Y520594D01*
X859721Y520688D01*
X859749Y520785D01*
X859773Y520882D01*
X859793Y520979D01*
X859809Y521078D01*
X859822Y521177D01*
X859832Y521276D01*
X859837Y521376D01*
X859839Y521476D01*
X854865Y517165D02*
X854780Y517113D01*
X854697Y517057D01*
X854616Y516999D01*
X854537Y516937D01*
X854461Y516873D01*
X854387Y516806D01*
X854315Y516736D01*
X854247Y516664D01*
X854180Y516589D01*
X854117Y516512D01*
X854057Y516432D01*
X853999Y516350D01*
X853945Y516266D01*
X853894Y516181D01*
X853846Y516093D01*
X853801Y516004D01*
X853760Y515913D01*
X853722Y515820D01*
X853688Y515727D01*
X853657Y515632D01*
X853629Y515535D01*
X853605Y515438D01*
X853585Y515341D01*
X853569Y515242D01*
X853556Y515143D01*
X853546Y515044D01*
X853541Y514944D01*
X853539Y514844D01*
X854865Y517165D02*
X858513Y519155D01*
X846568Y524129D02*
X846568Y512191D01*
X849884Y524129D02*
X843252Y524129D01*
X838815Y512191D02*
X833510Y512191D01*
X838815Y512191D02*
X838815Y524129D01*
X833510Y524129D01*
X834836Y518823D02*
X838815Y518823D01*
X828781Y524129D02*
X828781Y512191D01*
X828781Y524129D02*
X825465Y524129D01*
X825351Y524127D01*
X825236Y524121D01*
X825122Y524111D01*
X825009Y524097D01*
X824895Y524080D01*
X824783Y524058D01*
X824671Y524033D01*
X824561Y524003D01*
X824451Y523970D01*
X824343Y523933D01*
X824236Y523893D01*
X824130Y523848D01*
X824026Y523801D01*
X823924Y523749D01*
X823824Y523694D01*
X823725Y523636D01*
X823629Y523574D01*
X823534Y523509D01*
X823443Y523441D01*
X823353Y523369D01*
X823266Y523295D01*
X823182Y523218D01*
X823100Y523137D01*
X823021Y523054D01*
X822945Y522969D01*
X822872Y522880D01*
X822803Y522790D01*
X822736Y522697D01*
X822673Y522601D01*
X822613Y522504D01*
X822556Y522404D01*
X822503Y522303D01*
X822453Y522200D01*
X822407Y522095D01*
X822364Y521989D01*
X822326Y521881D01*
X822291Y521772D01*
X822260Y521662D01*
X822232Y521551D01*
X822209Y521439D01*
X822189Y521326D01*
X822173Y521213D01*
X822161Y521099D01*
X822153Y520985D01*
X822149Y520870D01*
X822149Y520756D01*
X822153Y520641D01*
X822161Y520527D01*
X822173Y520413D01*
X822189Y520300D01*
X822209Y520187D01*
X822232Y520075D01*
X822260Y519964D01*
X822291Y519854D01*
X822326Y519745D01*
X822364Y519637D01*
X822407Y519531D01*
X822453Y519426D01*
X822503Y519323D01*
X822556Y519222D01*
X822613Y519122D01*
X822673Y519025D01*
X822736Y518929D01*
X822803Y518836D01*
X822872Y518746D01*
X822945Y518657D01*
X823021Y518572D01*
X823100Y518489D01*
X823182Y518408D01*
X823266Y518331D01*
X823353Y518257D01*
X823443Y518185D01*
X823534Y518117D01*
X823629Y518052D01*
X823725Y517990D01*
X823824Y517932D01*
X823924Y517877D01*
X824026Y517825D01*
X824130Y517778D01*
X824236Y517733D01*
X824343Y517693D01*
X824451Y517656D01*
X824561Y517623D01*
X824671Y517593D01*
X824783Y517568D01*
X824895Y517546D01*
X825009Y517529D01*
X825122Y517515D01*
X825236Y517505D01*
X825351Y517499D01*
X825465Y517497D01*
X828781Y517497D01*
X817499Y512191D02*
X817499Y524129D01*
X814183Y524129D01*
X814070Y524127D01*
X813957Y524121D01*
X813844Y524112D01*
X813731Y524098D01*
X813620Y524081D01*
X813508Y524060D01*
X813398Y524035D01*
X813288Y524006D01*
X813180Y523974D01*
X813073Y523938D01*
X812967Y523898D01*
X812862Y523854D01*
X812759Y523808D01*
X812657Y523757D01*
X812558Y523703D01*
X812460Y523646D01*
X812364Y523586D01*
X812271Y523522D01*
X812179Y523455D01*
X812090Y523385D01*
X812004Y523312D01*
X811920Y523236D01*
X811838Y523158D01*
X811760Y523076D01*
X811684Y522992D01*
X811611Y522906D01*
X811541Y522817D01*
X811474Y522725D01*
X811410Y522632D01*
X811350Y522536D01*
X811293Y522438D01*
X811239Y522339D01*
X811188Y522237D01*
X811142Y522134D01*
X811098Y522029D01*
X811058Y521923D01*
X811022Y521816D01*
X810990Y521708D01*
X810961Y521598D01*
X810936Y521488D01*
X810915Y521376D01*
X810898Y521265D01*
X810884Y521152D01*
X810875Y521039D01*
X810869Y520926D01*
X810867Y520813D01*
X810867Y515507D01*
X810869Y515394D01*
X810875Y515281D01*
X810884Y515168D01*
X810898Y515055D01*
X810915Y514944D01*
X810936Y514832D01*
X810961Y514722D01*
X810990Y514612D01*
X811022Y514504D01*
X811058Y514397D01*
X811098Y514291D01*
X811142Y514186D01*
X811188Y514083D01*
X811239Y513981D01*
X811293Y513882D01*
X811350Y513784D01*
X811410Y513688D01*
X811474Y513595D01*
X811541Y513503D01*
X811611Y513414D01*
X811684Y513328D01*
X811760Y513244D01*
X811838Y513162D01*
X811920Y513084D01*
X812004Y513008D01*
X812090Y512935D01*
X812179Y512865D01*
X812271Y512798D01*
X812364Y512734D01*
X812460Y512674D01*
X812558Y512617D01*
X812657Y512563D01*
X812759Y512512D01*
X812862Y512466D01*
X812967Y512422D01*
X813073Y512382D01*
X813180Y512346D01*
X813288Y512314D01*
X813398Y512285D01*
X813508Y512260D01*
X813620Y512239D01*
X813731Y512222D01*
X813844Y512208D01*
X813957Y512199D01*
X814070Y512193D01*
X814183Y512191D01*
X817499Y512191D01*
X805688Y515507D02*
X805688Y520813D01*
X805686Y520927D01*
X805680Y521042D01*
X805670Y521156D01*
X805656Y521269D01*
X805639Y521383D01*
X805617Y521495D01*
X805592Y521607D01*
X805562Y521717D01*
X805529Y521827D01*
X805492Y521935D01*
X805452Y522042D01*
X805407Y522148D01*
X805360Y522252D01*
X805308Y522354D01*
X805253Y522454D01*
X805195Y522553D01*
X805133Y522649D01*
X805068Y522744D01*
X805000Y522835D01*
X804928Y522925D01*
X804854Y523012D01*
X804777Y523096D01*
X804696Y523178D01*
X804613Y523257D01*
X804528Y523333D01*
X804439Y523406D01*
X804349Y523475D01*
X804256Y523542D01*
X804160Y523605D01*
X804063Y523665D01*
X803963Y523722D01*
X803862Y523775D01*
X803759Y523825D01*
X803654Y523871D01*
X803548Y523914D01*
X803440Y523952D01*
X803331Y523987D01*
X803221Y524018D01*
X803110Y524046D01*
X802998Y524069D01*
X802885Y524089D01*
X802772Y524105D01*
X802658Y524117D01*
X802544Y524125D01*
X802429Y524129D01*
X802315Y524129D01*
X802200Y524125D01*
X802086Y524117D01*
X801972Y524105D01*
X801859Y524089D01*
X801746Y524069D01*
X801634Y524046D01*
X801523Y524018D01*
X801413Y523987D01*
X801304Y523952D01*
X801196Y523914D01*
X801090Y523871D01*
X800985Y523825D01*
X800882Y523775D01*
X800781Y523722D01*
X800681Y523665D01*
X800584Y523605D01*
X800488Y523542D01*
X800395Y523475D01*
X800305Y523406D01*
X800216Y523333D01*
X800131Y523257D01*
X800048Y523178D01*
X799967Y523096D01*
X799890Y523012D01*
X799816Y522925D01*
X799744Y522835D01*
X799676Y522744D01*
X799611Y522649D01*
X799549Y522553D01*
X799491Y522454D01*
X799436Y522354D01*
X799384Y522252D01*
X799337Y522148D01*
X799292Y522042D01*
X799252Y521935D01*
X799215Y521827D01*
X799182Y521717D01*
X799152Y521607D01*
X799127Y521495D01*
X799105Y521383D01*
X799088Y521269D01*
X799074Y521156D01*
X799064Y521042D01*
X799058Y520927D01*
X799056Y520813D01*
X799056Y515507D01*
X799058Y515393D01*
X799064Y515278D01*
X799074Y515164D01*
X799088Y515051D01*
X799105Y514937D01*
X799127Y514825D01*
X799152Y514713D01*
X799182Y514603D01*
X799215Y514493D01*
X799252Y514385D01*
X799292Y514278D01*
X799337Y514172D01*
X799384Y514068D01*
X799436Y513966D01*
X799491Y513866D01*
X799549Y513767D01*
X799611Y513671D01*
X799676Y513576D01*
X799744Y513485D01*
X799816Y513395D01*
X799890Y513308D01*
X799967Y513224D01*
X800048Y513142D01*
X800131Y513063D01*
X800216Y512987D01*
X800305Y512914D01*
X800395Y512845D01*
X800488Y512778D01*
X800584Y512715D01*
X800681Y512655D01*
X800781Y512598D01*
X800882Y512545D01*
X800985Y512495D01*
X801090Y512449D01*
X801196Y512406D01*
X801304Y512368D01*
X801413Y512333D01*
X801523Y512302D01*
X801634Y512274D01*
X801746Y512251D01*
X801859Y512231D01*
X801972Y512215D01*
X802086Y512203D01*
X802200Y512195D01*
X802315Y512191D01*
X802429Y512191D01*
X802544Y512195D01*
X802658Y512203D01*
X802772Y512215D01*
X802885Y512231D01*
X802998Y512251D01*
X803110Y512274D01*
X803221Y512302D01*
X803331Y512333D01*
X803440Y512368D01*
X803548Y512406D01*
X803654Y512449D01*
X803759Y512495D01*
X803862Y512545D01*
X803963Y512598D01*
X804063Y512655D01*
X804160Y512715D01*
X804256Y512778D01*
X804349Y512845D01*
X804439Y512914D01*
X804528Y512987D01*
X804613Y513063D01*
X804696Y513142D01*
X804777Y513224D01*
X804854Y513308D01*
X804928Y513395D01*
X805000Y513485D01*
X805068Y513576D01*
X805133Y513671D01*
X805195Y513767D01*
X805253Y513866D01*
X805308Y513966D01*
X805360Y514068D01*
X805407Y514172D01*
X805452Y514278D01*
X805492Y514385D01*
X805529Y514493D01*
X805562Y514603D01*
X805592Y514713D01*
X805617Y514825D01*
X805639Y514937D01*
X805656Y515051D01*
X805670Y515164D01*
X805680Y515278D01*
X805686Y515393D01*
X805688Y515507D01*
X794724Y524129D02*
X792071Y512191D01*
X789418Y520150D01*
X786765Y512191D01*
X784112Y524129D01*
X779399Y524129D02*
X779399Y512191D01*
X772767Y512191D02*
X779399Y524129D01*
X772767Y524129D02*
X772767Y512191D01*
D14*
X965200Y177800D02*
X990600Y177800D01*
X1003300Y171450D02*
X1003300Y158750D01*
X1009650Y165100D02*
X996950Y165100D01*
X996950Y31750D02*
X1009650Y31750D01*
X1009650Y111125D02*
X1006475Y111125D01*
X1006475Y117475D01*
X1000125Y117475D01*
X1000125Y111125D01*
X996950Y111125D01*
X990600Y177800D02*
X990600Y25400D01*
X965200Y25400D01*
X965200Y177800D01*
X1006475Y85725D02*
X1009650Y85725D01*
X1006475Y85725D02*
X1006475Y92075D01*
X1000125Y92075D01*
X1000125Y85725D01*
X996950Y85725D01*
X996950Y69850D02*
X1003300Y69850D01*
X1003300Y63500D01*
X996950Y63500D01*
X996950Y57150D01*
X1003300Y57150D01*
X996950Y146050D02*
X1009650Y146050D01*
X1009650Y133350D01*
X996950Y133350D01*
X996950Y139700D01*
X1003300Y139700D01*
D13*
X996442Y186634D02*
X996442Y191770D01*
X996442Y186634D02*
X996440Y186547D01*
X996434Y186459D01*
X996425Y186372D01*
X996411Y186286D01*
X996394Y186200D01*
X996373Y186116D01*
X996348Y186032D01*
X996319Y185949D01*
X996287Y185868D01*
X996252Y185788D01*
X996213Y185710D01*
X996170Y185633D01*
X996124Y185559D01*
X996075Y185487D01*
X996023Y185417D01*
X995967Y185349D01*
X995909Y185284D01*
X995848Y185221D01*
X995784Y185162D01*
X995717Y185105D01*
X995649Y185051D01*
X995577Y185000D01*
X995504Y184953D01*
X995429Y184908D01*
X995351Y184867D01*
X995272Y184830D01*
X995192Y184796D01*
X995110Y184766D01*
X995027Y184739D01*
X994942Y184716D01*
X994857Y184697D01*
X994771Y184682D01*
X994684Y184670D01*
X994597Y184662D01*
X994510Y184658D01*
X994422Y184658D01*
X994335Y184662D01*
X994248Y184670D01*
X994161Y184682D01*
X994075Y184697D01*
X993990Y184716D01*
X993905Y184739D01*
X993822Y184766D01*
X993740Y184796D01*
X993660Y184830D01*
X993581Y184867D01*
X993503Y184908D01*
X993428Y184953D01*
X993355Y185000D01*
X993283Y185051D01*
X993215Y185105D01*
X993148Y185162D01*
X993084Y185221D01*
X993023Y185284D01*
X992965Y185349D01*
X992909Y185417D01*
X992857Y185487D01*
X992808Y185559D01*
X992762Y185633D01*
X992719Y185710D01*
X992680Y185788D01*
X992645Y185868D01*
X992613Y185949D01*
X992584Y186032D01*
X992559Y186116D01*
X992538Y186200D01*
X992521Y186286D01*
X992507Y186372D01*
X992498Y186459D01*
X992492Y186547D01*
X992490Y186634D01*
X992491Y186634D02*
X992491Y191770D01*
X987395Y191770D02*
X987395Y184658D01*
X987395Y188214D02*
X988383Y188807D01*
X988440Y188844D01*
X988495Y188884D01*
X988548Y188927D01*
X988598Y188973D01*
X988646Y189021D01*
X988690Y189073D01*
X988732Y189127D01*
X988770Y189183D01*
X988805Y189241D01*
X988836Y189301D01*
X988864Y189363D01*
X988889Y189427D01*
X988910Y189492D01*
X988927Y189557D01*
X988940Y189624D01*
X988949Y189691D01*
X988954Y189759D01*
X988956Y189827D01*
X988954Y189895D01*
X988947Y189963D01*
X988937Y190030D01*
X988923Y190097D01*
X988905Y190162D01*
X988883Y190227D01*
X988858Y190290D01*
X988829Y190351D01*
X988797Y190411D01*
X988761Y190469D01*
X988722Y190525D01*
X988680Y190578D01*
X988634Y190629D01*
X988586Y190677D01*
X988536Y190722D01*
X988482Y190764D01*
X988427Y190803D01*
X988369Y190839D01*
X988309Y190872D01*
X988248Y190901D01*
X988185Y190926D01*
X988120Y190948D01*
X988055Y190966D01*
X987988Y190980D01*
X987988Y190979D02*
X987882Y190997D01*
X987775Y191010D01*
X987668Y191021D01*
X987561Y191027D01*
X987453Y191030D01*
X987346Y191029D01*
X987238Y191024D01*
X987131Y191016D01*
X987024Y191004D01*
X986918Y190989D01*
X986812Y190969D01*
X986707Y190947D01*
X986603Y190920D01*
X986500Y190890D01*
X986398Y190857D01*
X986297Y190820D01*
X986197Y190779D01*
X986099Y190735D01*
X986003Y190688D01*
X985908Y190638D01*
X985815Y190584D01*
X987395Y188214D02*
X986407Y187621D01*
X986408Y187621D02*
X986351Y187584D01*
X986296Y187544D01*
X986243Y187501D01*
X986193Y187455D01*
X986145Y187407D01*
X986101Y187355D01*
X986059Y187301D01*
X986021Y187245D01*
X985986Y187187D01*
X985955Y187127D01*
X985927Y187065D01*
X985902Y187001D01*
X985881Y186936D01*
X985864Y186871D01*
X985851Y186804D01*
X985842Y186737D01*
X985837Y186669D01*
X985835Y186601D01*
X985837Y186533D01*
X985844Y186465D01*
X985854Y186398D01*
X985868Y186331D01*
X985886Y186266D01*
X985908Y186201D01*
X985933Y186138D01*
X985962Y186077D01*
X985994Y186017D01*
X986030Y185959D01*
X986069Y185903D01*
X986111Y185850D01*
X986157Y185799D01*
X986205Y185751D01*
X986255Y185706D01*
X986309Y185664D01*
X986364Y185625D01*
X986422Y185589D01*
X986482Y185556D01*
X986543Y185527D01*
X986606Y185502D01*
X986671Y185480D01*
X986736Y185462D01*
X986803Y185448D01*
X986802Y185449D02*
X986908Y185431D01*
X987015Y185418D01*
X987122Y185407D01*
X987229Y185401D01*
X987337Y185398D01*
X987444Y185399D01*
X987552Y185404D01*
X987659Y185412D01*
X987766Y185424D01*
X987872Y185439D01*
X987978Y185459D01*
X988083Y185481D01*
X988187Y185508D01*
X988290Y185538D01*
X988392Y185571D01*
X988493Y185608D01*
X988593Y185649D01*
X988691Y185693D01*
X988787Y185740D01*
X988882Y185790D01*
X988975Y185844D01*
X982543Y186238D02*
X980963Y191770D01*
X982543Y186238D02*
X978592Y186238D01*
X979777Y187819D02*
X979777Y184658D01*
D17*
X617400Y318900D02*
X617402Y318963D01*
X617408Y319025D01*
X617418Y319087D01*
X617431Y319149D01*
X617449Y319209D01*
X617470Y319268D01*
X617495Y319326D01*
X617524Y319382D01*
X617556Y319436D01*
X617591Y319488D01*
X617629Y319537D01*
X617671Y319585D01*
X617715Y319629D01*
X617763Y319671D01*
X617812Y319709D01*
X617864Y319744D01*
X617918Y319776D01*
X617974Y319805D01*
X618032Y319830D01*
X618091Y319851D01*
X618151Y319869D01*
X618213Y319882D01*
X618275Y319892D01*
X618337Y319898D01*
X618400Y319900D01*
X618463Y319898D01*
X618525Y319892D01*
X618587Y319882D01*
X618649Y319869D01*
X618709Y319851D01*
X618768Y319830D01*
X618826Y319805D01*
X618882Y319776D01*
X618936Y319744D01*
X618988Y319709D01*
X619037Y319671D01*
X619085Y319629D01*
X619129Y319585D01*
X619171Y319537D01*
X619209Y319488D01*
X619244Y319436D01*
X619276Y319382D01*
X619305Y319326D01*
X619330Y319268D01*
X619351Y319209D01*
X619369Y319149D01*
X619382Y319087D01*
X619392Y319025D01*
X619398Y318963D01*
X619400Y318900D01*
X619398Y318837D01*
X619392Y318775D01*
X619382Y318713D01*
X619369Y318651D01*
X619351Y318591D01*
X619330Y318532D01*
X619305Y318474D01*
X619276Y318418D01*
X619244Y318364D01*
X619209Y318312D01*
X619171Y318263D01*
X619129Y318215D01*
X619085Y318171D01*
X619037Y318129D01*
X618988Y318091D01*
X618936Y318056D01*
X618882Y318024D01*
X618826Y317995D01*
X618768Y317970D01*
X618709Y317949D01*
X618649Y317931D01*
X618587Y317918D01*
X618525Y317908D01*
X618463Y317902D01*
X618400Y317900D01*
X618337Y317902D01*
X618275Y317908D01*
X618213Y317918D01*
X618151Y317931D01*
X618091Y317949D01*
X618032Y317970D01*
X617974Y317995D01*
X617918Y318024D01*
X617864Y318056D01*
X617812Y318091D01*
X617763Y318129D01*
X617715Y318171D01*
X617671Y318215D01*
X617629Y318263D01*
X617591Y318312D01*
X617556Y318364D01*
X617524Y318418D01*
X617495Y318474D01*
X617470Y318532D01*
X617449Y318591D01*
X617431Y318651D01*
X617418Y318713D01*
X617408Y318775D01*
X617402Y318837D01*
X617400Y318900D01*
D14*
X642100Y317900D02*
X678700Y317900D01*
X678700Y367900D02*
X642100Y367900D01*
D16*
X637251Y312749D02*
X637251Y305962D01*
X637249Y305861D01*
X637243Y305760D01*
X637233Y305659D01*
X637220Y305559D01*
X637202Y305459D01*
X637181Y305360D01*
X637155Y305262D01*
X637126Y305165D01*
X637094Y305069D01*
X637057Y304975D01*
X637017Y304882D01*
X636973Y304790D01*
X636926Y304701D01*
X636875Y304613D01*
X636821Y304527D01*
X636764Y304444D01*
X636704Y304362D01*
X636640Y304284D01*
X636574Y304207D01*
X636504Y304134D01*
X636432Y304063D01*
X636357Y303995D01*
X636279Y303930D01*
X636199Y303868D01*
X636117Y303809D01*
X636032Y303753D01*
X635946Y303701D01*
X635857Y303652D01*
X635766Y303606D01*
X635674Y303565D01*
X635580Y303526D01*
X635485Y303492D01*
X635389Y303461D01*
X635291Y303434D01*
X635193Y303410D01*
X635093Y303391D01*
X634993Y303375D01*
X634893Y303363D01*
X634792Y303355D01*
X634691Y303351D01*
X634589Y303351D01*
X634488Y303355D01*
X634387Y303363D01*
X634287Y303375D01*
X634187Y303391D01*
X634087Y303410D01*
X633989Y303434D01*
X633891Y303461D01*
X633795Y303492D01*
X633700Y303526D01*
X633606Y303565D01*
X633514Y303606D01*
X633423Y303652D01*
X633335Y303701D01*
X633248Y303753D01*
X633163Y303809D01*
X633081Y303868D01*
X633001Y303930D01*
X632923Y303995D01*
X632848Y304063D01*
X632776Y304134D01*
X632706Y304207D01*
X632640Y304284D01*
X632576Y304362D01*
X632516Y304444D01*
X632459Y304527D01*
X632405Y304613D01*
X632354Y304701D01*
X632307Y304790D01*
X632263Y304882D01*
X632223Y304975D01*
X632186Y305069D01*
X632154Y305165D01*
X632125Y305262D01*
X632099Y305360D01*
X632078Y305459D01*
X632060Y305559D01*
X632047Y305659D01*
X632037Y305760D01*
X632031Y305861D01*
X632029Y305962D01*
X632030Y305962D02*
X632030Y312749D01*
X627802Y303351D02*
X625192Y303351D01*
X625091Y303353D01*
X624990Y303359D01*
X624889Y303369D01*
X624789Y303382D01*
X624689Y303400D01*
X624590Y303421D01*
X624492Y303447D01*
X624395Y303476D01*
X624299Y303508D01*
X624205Y303545D01*
X624112Y303585D01*
X624020Y303629D01*
X623931Y303676D01*
X623843Y303727D01*
X623757Y303781D01*
X623674Y303838D01*
X623592Y303898D01*
X623514Y303962D01*
X623437Y304028D01*
X623364Y304098D01*
X623293Y304170D01*
X623225Y304245D01*
X623160Y304323D01*
X623098Y304403D01*
X623039Y304485D01*
X622983Y304570D01*
X622931Y304657D01*
X622882Y304745D01*
X622836Y304836D01*
X622795Y304928D01*
X622756Y305022D01*
X622722Y305117D01*
X622691Y305213D01*
X622664Y305311D01*
X622640Y305409D01*
X622621Y305509D01*
X622605Y305609D01*
X622593Y305709D01*
X622585Y305810D01*
X622581Y305911D01*
X622581Y306013D01*
X622585Y306114D01*
X622593Y306215D01*
X622605Y306315D01*
X622621Y306415D01*
X622640Y306515D01*
X622664Y306613D01*
X622691Y306711D01*
X622722Y306807D01*
X622756Y306902D01*
X622795Y306996D01*
X622836Y307088D01*
X622882Y307179D01*
X622931Y307268D01*
X622983Y307354D01*
X623039Y307439D01*
X623098Y307521D01*
X623160Y307601D01*
X623225Y307679D01*
X623293Y307754D01*
X623364Y307826D01*
X623437Y307896D01*
X623514Y307962D01*
X623592Y308026D01*
X623674Y308086D01*
X623757Y308143D01*
X623843Y308197D01*
X623931Y308248D01*
X624020Y308295D01*
X624112Y308339D01*
X624205Y308379D01*
X624299Y308416D01*
X624395Y308448D01*
X624492Y308477D01*
X624590Y308503D01*
X624689Y308524D01*
X624789Y308542D01*
X624889Y308555D01*
X624990Y308565D01*
X625091Y308571D01*
X625192Y308573D01*
X624669Y312749D02*
X627802Y312749D01*
X624669Y312749D02*
X624579Y312747D01*
X624490Y312741D01*
X624400Y312732D01*
X624311Y312718D01*
X624223Y312701D01*
X624136Y312680D01*
X624049Y312655D01*
X623964Y312626D01*
X623880Y312594D01*
X623798Y312559D01*
X623717Y312519D01*
X623638Y312477D01*
X623561Y312431D01*
X623486Y312381D01*
X623413Y312329D01*
X623342Y312273D01*
X623274Y312215D01*
X623209Y312153D01*
X623146Y312089D01*
X623086Y312022D01*
X623029Y311953D01*
X622975Y311881D01*
X622924Y311807D01*
X622876Y311731D01*
X622832Y311653D01*
X622791Y311573D01*
X622753Y311491D01*
X622719Y311408D01*
X622689Y311323D01*
X622662Y311237D01*
X622639Y311151D01*
X622620Y311063D01*
X622605Y310974D01*
X622593Y310885D01*
X622585Y310796D01*
X622581Y310706D01*
X622581Y310616D01*
X622585Y310526D01*
X622593Y310437D01*
X622605Y310348D01*
X622620Y310259D01*
X622639Y310171D01*
X622662Y310085D01*
X622689Y309999D01*
X622719Y309914D01*
X622753Y309831D01*
X622791Y309749D01*
X622832Y309669D01*
X622876Y309591D01*
X622924Y309515D01*
X622975Y309441D01*
X623029Y309369D01*
X623086Y309300D01*
X623146Y309233D01*
X623209Y309169D01*
X623274Y309107D01*
X623342Y309049D01*
X623413Y308993D01*
X623486Y308941D01*
X623561Y308891D01*
X623638Y308845D01*
X623717Y308803D01*
X623798Y308763D01*
X623880Y308728D01*
X623964Y308696D01*
X624049Y308667D01*
X624136Y308642D01*
X624223Y308621D01*
X624311Y308604D01*
X624400Y308590D01*
X624490Y308581D01*
X624579Y308575D01*
X624669Y308573D01*
X624669Y308572D02*
X626758Y308572D01*
D14*
X952500Y558800D02*
X977900Y558800D01*
X952500Y558800D02*
X952500Y482600D01*
X977900Y482600D01*
X977900Y558800D01*
X990600Y527050D02*
X990600Y514350D01*
X996950Y520700D02*
X984250Y520700D01*
X984250Y495300D02*
X996950Y495300D01*
X996950Y542925D02*
X993775Y542925D01*
X993775Y549275D01*
X987425Y549275D01*
X987425Y542925D01*
X984250Y542925D01*
D13*
X983742Y567634D02*
X983742Y572770D01*
X983742Y567634D02*
X983740Y567547D01*
X983734Y567459D01*
X983725Y567372D01*
X983711Y567286D01*
X983694Y567200D01*
X983673Y567116D01*
X983648Y567032D01*
X983619Y566949D01*
X983587Y566868D01*
X983552Y566788D01*
X983513Y566710D01*
X983470Y566633D01*
X983424Y566559D01*
X983375Y566487D01*
X983323Y566417D01*
X983267Y566349D01*
X983209Y566284D01*
X983148Y566221D01*
X983084Y566162D01*
X983017Y566105D01*
X982949Y566051D01*
X982877Y566000D01*
X982804Y565953D01*
X982729Y565908D01*
X982651Y565867D01*
X982572Y565830D01*
X982492Y565796D01*
X982410Y565766D01*
X982327Y565739D01*
X982242Y565716D01*
X982157Y565697D01*
X982071Y565682D01*
X981984Y565670D01*
X981897Y565662D01*
X981810Y565658D01*
X981722Y565658D01*
X981635Y565662D01*
X981548Y565670D01*
X981461Y565682D01*
X981375Y565697D01*
X981290Y565716D01*
X981205Y565739D01*
X981122Y565766D01*
X981040Y565796D01*
X980960Y565830D01*
X980881Y565867D01*
X980803Y565908D01*
X980728Y565953D01*
X980655Y566000D01*
X980583Y566051D01*
X980515Y566105D01*
X980448Y566162D01*
X980384Y566221D01*
X980323Y566284D01*
X980265Y566349D01*
X980209Y566417D01*
X980157Y566487D01*
X980108Y566559D01*
X980062Y566633D01*
X980019Y566710D01*
X979980Y566788D01*
X979945Y566868D01*
X979913Y566949D01*
X979884Y567032D01*
X979859Y567116D01*
X979838Y567200D01*
X979821Y567286D01*
X979807Y567372D01*
X979798Y567459D01*
X979792Y567547D01*
X979790Y567634D01*
X979791Y567634D02*
X979791Y572770D01*
X974695Y572770D02*
X974695Y565658D01*
X974695Y569214D02*
X975683Y569807D01*
X975740Y569844D01*
X975795Y569884D01*
X975848Y569927D01*
X975898Y569973D01*
X975946Y570021D01*
X975990Y570073D01*
X976032Y570127D01*
X976070Y570183D01*
X976105Y570241D01*
X976136Y570301D01*
X976164Y570363D01*
X976189Y570427D01*
X976210Y570492D01*
X976227Y570557D01*
X976240Y570624D01*
X976249Y570691D01*
X976254Y570759D01*
X976256Y570827D01*
X976254Y570895D01*
X976247Y570963D01*
X976237Y571030D01*
X976223Y571097D01*
X976205Y571162D01*
X976183Y571227D01*
X976158Y571290D01*
X976129Y571351D01*
X976097Y571411D01*
X976061Y571469D01*
X976022Y571525D01*
X975980Y571578D01*
X975934Y571629D01*
X975886Y571677D01*
X975836Y571722D01*
X975782Y571764D01*
X975727Y571803D01*
X975669Y571839D01*
X975609Y571872D01*
X975548Y571901D01*
X975485Y571926D01*
X975420Y571948D01*
X975355Y571966D01*
X975288Y571980D01*
X975288Y571979D02*
X975182Y571997D01*
X975075Y572010D01*
X974968Y572021D01*
X974861Y572027D01*
X974753Y572030D01*
X974646Y572029D01*
X974538Y572024D01*
X974431Y572016D01*
X974324Y572004D01*
X974218Y571989D01*
X974112Y571969D01*
X974007Y571947D01*
X973903Y571920D01*
X973800Y571890D01*
X973698Y571857D01*
X973597Y571820D01*
X973497Y571779D01*
X973399Y571735D01*
X973303Y571688D01*
X973208Y571638D01*
X973115Y571584D01*
X974695Y569214D02*
X973707Y568621D01*
X973708Y568621D02*
X973651Y568584D01*
X973596Y568544D01*
X973543Y568501D01*
X973493Y568455D01*
X973445Y568407D01*
X973401Y568355D01*
X973359Y568301D01*
X973321Y568245D01*
X973286Y568187D01*
X973255Y568127D01*
X973227Y568065D01*
X973202Y568001D01*
X973181Y567936D01*
X973164Y567871D01*
X973151Y567804D01*
X973142Y567737D01*
X973137Y567669D01*
X973135Y567601D01*
X973137Y567533D01*
X973144Y567465D01*
X973154Y567398D01*
X973168Y567331D01*
X973186Y567266D01*
X973208Y567201D01*
X973233Y567138D01*
X973262Y567077D01*
X973294Y567017D01*
X973330Y566959D01*
X973369Y566903D01*
X973411Y566850D01*
X973457Y566799D01*
X973505Y566751D01*
X973555Y566706D01*
X973609Y566664D01*
X973664Y566625D01*
X973722Y566589D01*
X973782Y566556D01*
X973843Y566527D01*
X973906Y566502D01*
X973971Y566480D01*
X974036Y566462D01*
X974103Y566448D01*
X974102Y566449D02*
X974208Y566431D01*
X974315Y566418D01*
X974422Y566407D01*
X974529Y566401D01*
X974637Y566398D01*
X974744Y566399D01*
X974852Y566404D01*
X974959Y566412D01*
X975066Y566424D01*
X975172Y566439D01*
X975278Y566459D01*
X975383Y566481D01*
X975487Y566508D01*
X975590Y566538D01*
X975692Y566571D01*
X975793Y566608D01*
X975893Y566649D01*
X975991Y566693D01*
X976087Y566740D01*
X976182Y566790D01*
X976275Y566844D01*
X969843Y565658D02*
X967868Y565658D01*
X967781Y565660D01*
X967693Y565666D01*
X967606Y565675D01*
X967520Y565689D01*
X967434Y565706D01*
X967350Y565727D01*
X967266Y565752D01*
X967183Y565781D01*
X967102Y565813D01*
X967022Y565848D01*
X966944Y565887D01*
X966867Y565930D01*
X966793Y565976D01*
X966721Y566025D01*
X966651Y566077D01*
X966583Y566133D01*
X966518Y566191D01*
X966455Y566252D01*
X966396Y566316D01*
X966339Y566383D01*
X966285Y566451D01*
X966234Y566523D01*
X966187Y566596D01*
X966142Y566671D01*
X966101Y566749D01*
X966064Y566828D01*
X966030Y566908D01*
X966000Y566990D01*
X965973Y567073D01*
X965950Y567158D01*
X965931Y567243D01*
X965916Y567329D01*
X965904Y567416D01*
X965896Y567503D01*
X965892Y567590D01*
X965892Y567678D01*
X965896Y567765D01*
X965904Y567852D01*
X965916Y567939D01*
X965931Y568025D01*
X965950Y568110D01*
X965973Y568195D01*
X966000Y568278D01*
X966030Y568360D01*
X966064Y568440D01*
X966101Y568519D01*
X966142Y568597D01*
X966187Y568672D01*
X966234Y568745D01*
X966285Y568817D01*
X966339Y568885D01*
X966396Y568952D01*
X966455Y569016D01*
X966518Y569077D01*
X966583Y569135D01*
X966651Y569191D01*
X966721Y569243D01*
X966793Y569292D01*
X966867Y569338D01*
X966944Y569381D01*
X967022Y569420D01*
X967102Y569455D01*
X967183Y569487D01*
X967266Y569516D01*
X967350Y569541D01*
X967434Y569562D01*
X967520Y569579D01*
X967606Y569593D01*
X967693Y569602D01*
X967781Y569608D01*
X967868Y569610D01*
X967473Y572770D02*
X969843Y572770D01*
X967473Y572770D02*
X967394Y572768D01*
X967316Y572762D01*
X967238Y572752D01*
X967160Y572739D01*
X967083Y572721D01*
X967007Y572700D01*
X966933Y572675D01*
X966859Y572646D01*
X966787Y572614D01*
X966717Y572578D01*
X966649Y572538D01*
X966583Y572495D01*
X966519Y572449D01*
X966457Y572400D01*
X966398Y572348D01*
X966342Y572293D01*
X966288Y572235D01*
X966238Y572175D01*
X966190Y572112D01*
X966146Y572047D01*
X966105Y571980D01*
X966067Y571911D01*
X966033Y571840D01*
X966002Y571767D01*
X965975Y571693D01*
X965952Y571618D01*
X965933Y571542D01*
X965917Y571464D01*
X965905Y571386D01*
X965897Y571308D01*
X965893Y571229D01*
X965893Y571151D01*
X965897Y571072D01*
X965905Y570994D01*
X965917Y570916D01*
X965933Y570838D01*
X965952Y570762D01*
X965975Y570687D01*
X966002Y570613D01*
X966033Y570540D01*
X966067Y570469D01*
X966105Y570400D01*
X966146Y570333D01*
X966190Y570268D01*
X966238Y570205D01*
X966288Y570145D01*
X966342Y570087D01*
X966398Y570032D01*
X966457Y569980D01*
X966519Y569931D01*
X966583Y569885D01*
X966649Y569842D01*
X966717Y569802D01*
X966787Y569766D01*
X966859Y569734D01*
X966933Y569705D01*
X967007Y569680D01*
X967083Y569659D01*
X967160Y569641D01*
X967238Y569628D01*
X967316Y569618D01*
X967394Y569612D01*
X967473Y569610D01*
X967473Y569609D02*
X969053Y569609D01*
D14*
X723900Y50800D02*
X723900Y25400D01*
X723900Y50800D02*
X647700Y50800D01*
X647700Y25400D01*
X723900Y25400D01*
X692150Y12700D02*
X679450Y12700D01*
X685800Y6350D02*
X685800Y19050D01*
X660400Y19050D02*
X660400Y6350D01*
X708025Y6350D02*
X708025Y9525D01*
X714375Y9525D01*
X714375Y15875D01*
X708025Y15875D01*
X708025Y19050D01*
D13*
X732734Y19558D02*
X737870Y19558D01*
X732734Y19558D02*
X732647Y19560D01*
X732559Y19566D01*
X732472Y19575D01*
X732386Y19589D01*
X732300Y19606D01*
X732216Y19627D01*
X732132Y19652D01*
X732049Y19681D01*
X731968Y19713D01*
X731888Y19748D01*
X731810Y19787D01*
X731733Y19830D01*
X731659Y19876D01*
X731587Y19925D01*
X731517Y19977D01*
X731449Y20033D01*
X731384Y20091D01*
X731321Y20152D01*
X731262Y20216D01*
X731205Y20283D01*
X731151Y20351D01*
X731100Y20423D01*
X731053Y20496D01*
X731008Y20571D01*
X730967Y20649D01*
X730930Y20728D01*
X730896Y20808D01*
X730866Y20890D01*
X730839Y20973D01*
X730816Y21058D01*
X730797Y21143D01*
X730782Y21229D01*
X730770Y21316D01*
X730762Y21403D01*
X730758Y21490D01*
X730758Y21578D01*
X730762Y21665D01*
X730770Y21752D01*
X730782Y21839D01*
X730797Y21925D01*
X730816Y22010D01*
X730839Y22095D01*
X730866Y22178D01*
X730896Y22260D01*
X730930Y22340D01*
X730967Y22419D01*
X731008Y22497D01*
X731053Y22572D01*
X731100Y22645D01*
X731151Y22717D01*
X731205Y22785D01*
X731262Y22852D01*
X731321Y22916D01*
X731384Y22977D01*
X731449Y23035D01*
X731517Y23091D01*
X731587Y23143D01*
X731659Y23192D01*
X731733Y23238D01*
X731810Y23281D01*
X731888Y23320D01*
X731968Y23355D01*
X732049Y23387D01*
X732132Y23416D01*
X732216Y23441D01*
X732300Y23462D01*
X732386Y23479D01*
X732472Y23493D01*
X732559Y23502D01*
X732647Y23508D01*
X732734Y23510D01*
X732734Y23509D02*
X737870Y23509D01*
X737870Y28697D02*
X732338Y27117D01*
X732338Y31068D01*
X733919Y29883D02*
X730758Y29883D01*
D14*
X317500Y25400D02*
X317500Y50800D01*
X317500Y25400D02*
X393700Y25400D01*
X393700Y50800D01*
X317500Y50800D01*
X349250Y63500D02*
X361950Y63500D01*
X355600Y69850D02*
X355600Y57150D01*
X381000Y57150D02*
X381000Y69850D01*
X333375Y69850D02*
X333375Y66675D01*
X327025Y66675D01*
X327025Y60325D01*
X333375Y60325D01*
X333375Y57150D01*
D13*
X310642Y45132D02*
X305506Y45132D01*
X305506Y45131D02*
X305419Y45133D01*
X305331Y45139D01*
X305244Y45148D01*
X305158Y45162D01*
X305072Y45179D01*
X304988Y45200D01*
X304904Y45225D01*
X304821Y45254D01*
X304740Y45286D01*
X304660Y45321D01*
X304582Y45360D01*
X304505Y45403D01*
X304431Y45449D01*
X304359Y45498D01*
X304289Y45550D01*
X304221Y45606D01*
X304156Y45664D01*
X304093Y45725D01*
X304034Y45789D01*
X303977Y45856D01*
X303923Y45924D01*
X303872Y45996D01*
X303825Y46069D01*
X303780Y46144D01*
X303739Y46222D01*
X303702Y46301D01*
X303668Y46381D01*
X303638Y46463D01*
X303611Y46546D01*
X303588Y46631D01*
X303569Y46716D01*
X303554Y46802D01*
X303542Y46889D01*
X303534Y46976D01*
X303530Y47063D01*
X303530Y47151D01*
X303534Y47238D01*
X303542Y47325D01*
X303554Y47412D01*
X303569Y47498D01*
X303588Y47583D01*
X303611Y47668D01*
X303638Y47751D01*
X303668Y47833D01*
X303702Y47913D01*
X303739Y47992D01*
X303780Y48070D01*
X303825Y48145D01*
X303872Y48218D01*
X303923Y48290D01*
X303977Y48358D01*
X304034Y48425D01*
X304093Y48489D01*
X304156Y48550D01*
X304221Y48608D01*
X304289Y48664D01*
X304359Y48716D01*
X304431Y48765D01*
X304505Y48811D01*
X304582Y48854D01*
X304660Y48893D01*
X304740Y48928D01*
X304821Y48960D01*
X304904Y48989D01*
X304988Y49014D01*
X305072Y49035D01*
X305158Y49052D01*
X305244Y49066D01*
X305331Y49075D01*
X305419Y49081D01*
X305506Y49083D01*
X310642Y49083D01*
X303530Y52691D02*
X303530Y55062D01*
X303532Y55140D01*
X303538Y55217D01*
X303547Y55294D01*
X303560Y55370D01*
X303577Y55446D01*
X303598Y55521D01*
X303622Y55594D01*
X303650Y55667D01*
X303682Y55738D01*
X303717Y55807D01*
X303755Y55874D01*
X303796Y55940D01*
X303841Y56003D01*
X303889Y56064D01*
X303939Y56123D01*
X303993Y56179D01*
X304049Y56233D01*
X304108Y56283D01*
X304169Y56331D01*
X304232Y56376D01*
X304298Y56417D01*
X304365Y56455D01*
X304434Y56490D01*
X304505Y56522D01*
X304578Y56550D01*
X304651Y56574D01*
X304726Y56595D01*
X304802Y56612D01*
X304878Y56625D01*
X304955Y56634D01*
X305032Y56640D01*
X305110Y56642D01*
X305901Y56642D01*
X305979Y56640D01*
X306056Y56634D01*
X306133Y56625D01*
X306209Y56612D01*
X306285Y56595D01*
X306360Y56574D01*
X306433Y56550D01*
X306506Y56522D01*
X306577Y56490D01*
X306646Y56455D01*
X306713Y56417D01*
X306779Y56376D01*
X306842Y56331D01*
X306903Y56283D01*
X306962Y56233D01*
X307018Y56179D01*
X307072Y56123D01*
X307122Y56064D01*
X307170Y56003D01*
X307215Y55940D01*
X307256Y55874D01*
X307294Y55807D01*
X307329Y55738D01*
X307361Y55667D01*
X307389Y55594D01*
X307413Y55521D01*
X307434Y55446D01*
X307451Y55370D01*
X307464Y55294D01*
X307473Y55217D01*
X307479Y55140D01*
X307481Y55062D01*
X307481Y52691D01*
X310642Y52691D01*
X310642Y56642D01*
M02*
