G04 EAGLE Gerber RS-274X export*
G75*
%MOMM*%
%FSLAX34Y34*%
%LPD*%
%INSoldermask Bottom*%
%IPPOS*%
%AMOC8*
5,1,8,0,0,1.08239X$1,22.5*%
G01*
%ADD10R,1.727200X1.727200*%
%ADD11P,1.869504X8X202.500000*%
%ADD12C,1.711200*%
%ADD13C,1.727200*%
%ADD14C,1.854200*%
%ADD15R,2.460000X2.310000*%
%ADD16C,0.313534*%
%ADD17R,1.711200X1.711200*%
%ADD18C,1.711200*%
%ADD19C,5.203200*%
%ADD20C,2.703200*%
%ADD21P,2.006968X8X202.500000*%
%ADD22R,1.854200X1.854200*%
%ADD23C,2.303200*%
%ADD24C,0.959600*%
%ADD25C,0.914400*%


D10*
X563200Y467100D03*
D11*
X563200Y492500D03*
X537800Y467100D03*
X537800Y492500D03*
X512400Y467100D03*
X512400Y492500D03*
X487000Y467100D03*
X487000Y492500D03*
X461600Y467100D03*
X461600Y492500D03*
X436200Y467100D03*
X436200Y492500D03*
X410800Y467100D03*
X410800Y492500D03*
X385400Y467100D03*
X385400Y492500D03*
X360000Y467100D03*
X360000Y492500D03*
X334600Y467100D03*
X334600Y492500D03*
X309200Y467100D03*
X309200Y492500D03*
X283800Y467100D03*
X283800Y492500D03*
X258400Y467100D03*
X258400Y492500D03*
X233000Y467100D03*
X233000Y492500D03*
X207600Y467100D03*
X207600Y492500D03*
X182200Y467100D03*
X182200Y492500D03*
X156800Y467100D03*
X156800Y492500D03*
X131400Y467100D03*
X131400Y492500D03*
D10*
X563200Y721100D03*
D11*
X563200Y746500D03*
X537800Y721100D03*
X537800Y746500D03*
X512400Y721100D03*
X512400Y746500D03*
X487000Y721100D03*
X487000Y746500D03*
X461600Y721100D03*
X461600Y746500D03*
X436200Y721100D03*
X436200Y746500D03*
X410800Y721100D03*
X410800Y746500D03*
X385400Y721100D03*
X385400Y746500D03*
X360000Y721100D03*
X360000Y746500D03*
X334600Y721100D03*
X334600Y746500D03*
X309200Y721100D03*
X309200Y746500D03*
X283800Y721100D03*
X283800Y746500D03*
X258400Y721100D03*
X258400Y746500D03*
X233000Y721100D03*
X233000Y746500D03*
X207600Y721100D03*
X207600Y746500D03*
X182200Y721100D03*
X182200Y746500D03*
X156800Y721100D03*
X156800Y746500D03*
X131400Y721100D03*
X131400Y746500D03*
D12*
X979400Y731440D02*
X979400Y716360D01*
X919400Y716360D02*
X919400Y731440D01*
X941860Y770900D02*
X956940Y770900D01*
D13*
X787400Y609600D03*
X762000Y609600D03*
X736600Y609600D03*
X711200Y609600D03*
X881380Y469900D03*
X855980Y469900D03*
X830580Y469900D03*
X805180Y469900D03*
D14*
X977900Y165100D03*
X977900Y139700D03*
X977900Y114300D03*
X977900Y88900D03*
X977900Y63500D03*
X977900Y38100D03*
D15*
X660400Y342900D03*
D16*
X638349Y318451D02*
X624451Y318451D01*
X624451Y321849D01*
X638349Y321849D01*
X638349Y318451D01*
X638349Y321429D02*
X624451Y321429D01*
X624451Y324951D02*
X638349Y324951D01*
X624451Y324951D02*
X624451Y328349D01*
X638349Y328349D01*
X638349Y324951D01*
X638349Y327929D02*
X624451Y327929D01*
X624451Y331451D02*
X638349Y331451D01*
X624451Y331451D02*
X624451Y334849D01*
X638349Y334849D01*
X638349Y331451D01*
X638349Y334429D02*
X624451Y334429D01*
X624451Y337951D02*
X638349Y337951D01*
X624451Y337951D02*
X624451Y341349D01*
X638349Y341349D01*
X638349Y337951D01*
X638349Y340929D02*
X624451Y340929D01*
X624451Y344451D02*
X638349Y344451D01*
X624451Y344451D02*
X624451Y347849D01*
X638349Y347849D01*
X638349Y344451D01*
X638349Y347429D02*
X624451Y347429D01*
X624451Y350951D02*
X638349Y350951D01*
X624451Y350951D02*
X624451Y354349D01*
X638349Y354349D01*
X638349Y350951D01*
X638349Y353929D02*
X624451Y353929D01*
X624451Y357451D02*
X638349Y357451D01*
X624451Y357451D02*
X624451Y360849D01*
X638349Y360849D01*
X638349Y357451D01*
X638349Y360429D02*
X624451Y360429D01*
X624451Y363951D02*
X638349Y363951D01*
X624451Y363951D02*
X624451Y367349D01*
X638349Y367349D01*
X638349Y363951D01*
X638349Y366929D02*
X624451Y366929D01*
X682451Y363951D02*
X696349Y363951D01*
X682451Y363951D02*
X682451Y367349D01*
X696349Y367349D01*
X696349Y363951D01*
X696349Y366929D02*
X682451Y366929D01*
X682451Y357451D02*
X696349Y357451D01*
X682451Y357451D02*
X682451Y360849D01*
X696349Y360849D01*
X696349Y357451D01*
X696349Y360429D02*
X682451Y360429D01*
X682451Y350951D02*
X696349Y350951D01*
X682451Y350951D02*
X682451Y354349D01*
X696349Y354349D01*
X696349Y350951D01*
X696349Y353929D02*
X682451Y353929D01*
X682451Y344451D02*
X696349Y344451D01*
X682451Y344451D02*
X682451Y347849D01*
X696349Y347849D01*
X696349Y344451D01*
X696349Y347429D02*
X682451Y347429D01*
X682451Y337951D02*
X696349Y337951D01*
X682451Y337951D02*
X682451Y341349D01*
X696349Y341349D01*
X696349Y337951D01*
X696349Y340929D02*
X682451Y340929D01*
X682451Y331451D02*
X696349Y331451D01*
X682451Y331451D02*
X682451Y334849D01*
X696349Y334849D01*
X696349Y331451D01*
X696349Y334429D02*
X682451Y334429D01*
X682451Y324951D02*
X696349Y324951D01*
X682451Y324951D02*
X682451Y328349D01*
X696349Y328349D01*
X696349Y324951D01*
X696349Y327929D02*
X682451Y327929D01*
X682451Y318451D02*
X696349Y318451D01*
X682451Y318451D02*
X682451Y321849D01*
X696349Y321849D01*
X696349Y318451D01*
X696349Y321429D02*
X682451Y321429D01*
D17*
X186600Y642600D03*
D18*
X212000Y642600D03*
X237400Y642600D03*
X262800Y642600D03*
X288200Y642600D03*
X313600Y642600D03*
X339000Y642600D03*
X364400Y642600D03*
X389800Y642600D03*
X415200Y642600D03*
X440600Y642600D03*
X466000Y642600D03*
X491400Y642600D03*
X516800Y642600D03*
X542200Y642600D03*
X567600Y642600D03*
D19*
X883000Y637600D03*
X133000Y637600D03*
X133000Y327600D03*
X883000Y327600D03*
D18*
X787800Y114300D03*
X812800Y114300D03*
X837800Y114300D03*
D20*
X762800Y184300D03*
X862800Y184300D03*
D21*
X965200Y546100D03*
D14*
X965200Y520700D03*
X965200Y495300D03*
D22*
X711200Y38100D03*
D14*
X685800Y38100D03*
X660400Y38100D03*
D22*
X330200Y38100D03*
D14*
X355600Y38100D03*
X381000Y38100D03*
D18*
X178200Y114300D03*
X203200Y114300D03*
X228200Y114300D03*
D20*
X153200Y184300D03*
X253200Y184300D03*
D23*
X570500Y202800D03*
X570500Y152800D03*
X445500Y152800D03*
X445500Y202800D03*
D24*
X723900Y342900D03*
X210820Y784860D03*
X873760Y73660D03*
X955040Y337820D03*
X914400Y172720D03*
D25*
X619760Y284480D03*
D24*
X530860Y533400D03*
X495300Y523240D03*
X373380Y393700D03*
X419100Y622300D03*
X419100Y607060D03*
X421640Y566420D03*
X342900Y678180D03*
X728980Y383540D03*
X739140Y383540D03*
M02*
