G04 EAGLE Gerber RS-274X export*
G75*
%MOMM*%
%FSLAX34Y34*%
%LPD*%
%INSolderpaste Bottom*%
%IPPOS*%
%AMOC8*
5,1,8,0,0,1.08239X$1,22.5*%
G01*
%ADD10R,2.460000X2.310000*%
%ADD11C,0.112500*%


D10*
X660400Y342900D03*
D11*
X638338Y318462D02*
X624462Y318462D01*
X624462Y321838D01*
X638338Y321838D01*
X638338Y318462D01*
X638338Y319531D02*
X624462Y319531D01*
X624462Y320600D02*
X638338Y320600D01*
X638338Y321669D02*
X624462Y321669D01*
X624462Y324962D02*
X638338Y324962D01*
X624462Y324962D02*
X624462Y328338D01*
X638338Y328338D01*
X638338Y324962D01*
X638338Y326031D02*
X624462Y326031D01*
X624462Y327100D02*
X638338Y327100D01*
X638338Y328169D02*
X624462Y328169D01*
X624462Y331462D02*
X638338Y331462D01*
X624462Y331462D02*
X624462Y334838D01*
X638338Y334838D01*
X638338Y331462D01*
X638338Y332531D02*
X624462Y332531D01*
X624462Y333600D02*
X638338Y333600D01*
X638338Y334669D02*
X624462Y334669D01*
X624462Y337962D02*
X638338Y337962D01*
X624462Y337962D02*
X624462Y341338D01*
X638338Y341338D01*
X638338Y337962D01*
X638338Y339031D02*
X624462Y339031D01*
X624462Y340100D02*
X638338Y340100D01*
X638338Y341169D02*
X624462Y341169D01*
X624462Y344462D02*
X638338Y344462D01*
X624462Y344462D02*
X624462Y347838D01*
X638338Y347838D01*
X638338Y344462D01*
X638338Y345531D02*
X624462Y345531D01*
X624462Y346600D02*
X638338Y346600D01*
X638338Y347669D02*
X624462Y347669D01*
X624462Y350962D02*
X638338Y350962D01*
X624462Y350962D02*
X624462Y354338D01*
X638338Y354338D01*
X638338Y350962D01*
X638338Y352031D02*
X624462Y352031D01*
X624462Y353100D02*
X638338Y353100D01*
X638338Y354169D02*
X624462Y354169D01*
X624462Y357462D02*
X638338Y357462D01*
X624462Y357462D02*
X624462Y360838D01*
X638338Y360838D01*
X638338Y357462D01*
X638338Y358531D02*
X624462Y358531D01*
X624462Y359600D02*
X638338Y359600D01*
X638338Y360669D02*
X624462Y360669D01*
X624462Y363962D02*
X638338Y363962D01*
X624462Y363962D02*
X624462Y367338D01*
X638338Y367338D01*
X638338Y363962D01*
X638338Y365031D02*
X624462Y365031D01*
X624462Y366100D02*
X638338Y366100D01*
X638338Y367169D02*
X624462Y367169D01*
X682462Y363962D02*
X696338Y363962D01*
X682462Y363962D02*
X682462Y367338D01*
X696338Y367338D01*
X696338Y363962D01*
X696338Y365031D02*
X682462Y365031D01*
X682462Y366100D02*
X696338Y366100D01*
X696338Y367169D02*
X682462Y367169D01*
X682462Y357462D02*
X696338Y357462D01*
X682462Y357462D02*
X682462Y360838D01*
X696338Y360838D01*
X696338Y357462D01*
X696338Y358531D02*
X682462Y358531D01*
X682462Y359600D02*
X696338Y359600D01*
X696338Y360669D02*
X682462Y360669D01*
X682462Y350962D02*
X696338Y350962D01*
X682462Y350962D02*
X682462Y354338D01*
X696338Y354338D01*
X696338Y350962D01*
X696338Y352031D02*
X682462Y352031D01*
X682462Y353100D02*
X696338Y353100D01*
X696338Y354169D02*
X682462Y354169D01*
X682462Y344462D02*
X696338Y344462D01*
X682462Y344462D02*
X682462Y347838D01*
X696338Y347838D01*
X696338Y344462D01*
X696338Y345531D02*
X682462Y345531D01*
X682462Y346600D02*
X696338Y346600D01*
X696338Y347669D02*
X682462Y347669D01*
X682462Y337962D02*
X696338Y337962D01*
X682462Y337962D02*
X682462Y341338D01*
X696338Y341338D01*
X696338Y337962D01*
X696338Y339031D02*
X682462Y339031D01*
X682462Y340100D02*
X696338Y340100D01*
X696338Y341169D02*
X682462Y341169D01*
X682462Y331462D02*
X696338Y331462D01*
X682462Y331462D02*
X682462Y334838D01*
X696338Y334838D01*
X696338Y331462D01*
X696338Y332531D02*
X682462Y332531D01*
X682462Y333600D02*
X696338Y333600D01*
X696338Y334669D02*
X682462Y334669D01*
X682462Y324962D02*
X696338Y324962D01*
X682462Y324962D02*
X682462Y328338D01*
X696338Y328338D01*
X696338Y324962D01*
X696338Y326031D02*
X682462Y326031D01*
X682462Y327100D02*
X696338Y327100D01*
X696338Y328169D02*
X682462Y328169D01*
X682462Y318462D02*
X696338Y318462D01*
X682462Y318462D02*
X682462Y321838D01*
X696338Y321838D01*
X696338Y318462D01*
X696338Y319531D02*
X682462Y319531D01*
X682462Y320600D02*
X696338Y320600D01*
X696338Y321669D02*
X682462Y321669D01*
M02*
